<?xml version="1.0" encoding="UTF-8"?>
<svg xmlns="http://www.w3.org/2000/svg" viewBox="0 0 173.05 167.53">
  <defs>
    <style>
      .cls-1 {
        fill: #ff9773;
      }

      .cls-2 {
        fill: #71e06e;
      }

      .cls-3 {
        isolation: isolate;
      }

      .cls-4 {
        fill: #ffee68;
      }

      .cls-5 {
        mix-blend-mode: multiply;
      }
    </style>
  </defs>
  <g class="cls-3">
    <g id="_레이어_2" data-name="레이어 2">
      <g id="art">
        <g>
          <path class="cls-4" d="M82.94,18.21L99.04,1.49c2.8-2.91,7.71-1.31,8.27,2.69l3.19,23c.38,2.72,2.93,4.57,5.63,4.09l22.86-4.07c3.97-.71,7.01,3.47,5.11,7.03l-10.93,20.48c-1.29,2.42-.31,5.42,2.15,6.62l20.88,10.14c3.63,1.76,3.63,6.93,0,8.69l-20.88,10.14c-2.47,1.2-3.44,4.2-2.15,6.62l10.93,20.48c1.9,3.56-1.14,7.74-5.11,7.03l-22.86-4.07c-2.7-.48-5.26,1.38-5.63,4.09l-3.19,23c-.55,4-5.47,5.59-8.27,2.69l-16.1-16.73c-1.9-1.97-5.06-1.97-6.96,0l-16.1,16.73c-2.8,2.91-7.71,1.31-8.27-2.69l-3.19-23c-.38-2.72-2.93-4.57-5.63-4.09l-22.86,4.07c-3.97.71-7.01-3.47-5.11-7.03l10.93-20.48c1.29-2.42.31-5.42-2.15-6.62l-20.88-10.14c-3.63-1.76-3.63-6.93,0-8.69l20.88-10.14c2.47-1.2,3.44-4.2,2.15-6.62l-10.93-20.48c-1.9-3.56,1.14-7.74,5.11-7.03l22.86,4.07c2.7.48,5.26-1.38,5.63-4.09l3.19-23c.55-3.99,5.47-5.59,8.27-2.69l16.1,16.73c1.9,1.98,5.06,1.98,6.96,0Z"/>
          <path d="M74.55,54.95h1.75c1.17,0,2.11.95,2.11,2.11v.57c0,1.17-.95,2.11-2.11,2.11h-1.75c-1.17,0-2.11-.95-2.11-2.11v-.57c0-1.17.95-2.11,2.11-2.11Z"/>
          <rect x="92.06" y="54.95" width="5.98" height="4.8" rx="2.11" ry="2.11"/>
          <g class="cls-5">
            <circle class="cls-1" cx="60.01" cy="70.51" r="8.87" transform="translate(-32.28 63.08) rotate(-45)"/>
          </g>
          <g class="cls-5">
            <circle class="cls-1" cx="106.31" cy="70.51" r="8.87" transform="translate(-18.94 46.33) rotate(-22.63)"/>
          </g>
          <path d="M84.95,68.99c-3.73,0-6.65-2.37-6.65-5.4,0-1.1.9-2,2-2s2,.9,2,2c0,.56,1.06,1.4,2.65,1.4s2.65-.84,2.65-1.4c0-1.1.9-2,2-2s2,.9,2,2c0,3.03-2.92,5.4-6.65,5.4Z"/>
          <path class="cls-4" d="M78.5,122.86l13.11,37.55c1.39,3.98,5.74,6.08,9.73,4.69l19.48-6.8c5.34-1.87,4.86-9.57-.67-10.76h0l-12.21-34.96"/>
          <path d="M99.06,167.44c-1.43,0-2.85-.32-4.18-.96-2.32-1.12-4.06-3.07-4.91-5.5l-9.67-27.67c-.36-1.04.19-2.18,1.23-2.55,1.04-.37,2.18.18,2.55,1.23l9.67,27.67c.5,1.42,1.52,2.56,2.87,3.22,1.36.65,2.88.74,4.31.25,1.04-.36,2.18.18,2.55,1.23.36,1.04-.19,2.18-1.23,2.55-1.04.36-2.11.54-3.18.54Z"/>
          <path class="cls-4" d="M49.28,118.13v39.77c0,4.22,3.42,7.64,7.64,7.64h20.63c5.66,0,7.74-7.43,2.91-10.38h0v-37.03"/>
          <path d="M55.36,167.53c-5.31,0-9.64-4.32-9.64-9.64v-39.77c0-1.1.9-2,2-2s2,.9,2,2v39.77c0,3.11,2.53,5.64,5.64,5.64,1.1,0,2,.9,2,2s-.9,2-2,2Z"/>
          <path class="cls-4" d="M138.62,105.35c-5.79,0-11.07-3.91-12.55-9.79-1.75-6.94,2.45-13.98,9.39-15.73,8.42-2.13,10.92-4.64,12.36-7.04,3.68-6.13,11.64-8.12,17.78-4.44s8.12,11.64,4.44,17.78c-7.42,12.36-19.67,16.67-28.23,18.83-1.06.27-2.13.4-3.18.4Z"/>
          <path class="cls-2" d="M172.95,40.31c-.99,6.21-4.88,8.6-9.1,7.93-4.22-.67-7.17-4.16-6.18-10.37.99-6.2,10.12-14.33,10.12-14.33,0,0,6.15,10.56,5.16,16.77Z"/>
          <path d="M154.78,106.99h0c-2.31-.37-3.92-2.5-3.64-4.83l5.95-48.56c.42-3.45,3.62-5.86,7.05-5.31h0c3.43.55,5.72,3.83,5.05,7.24l-9.45,48c-.45,2.3-2.64,3.83-4.96,3.46Z"/>
          <path d="M130.76,80.39c-.88,0-1.69-.59-1.93-1.49-.28-1.07.35-2.16,1.42-2.45,15.3-4.08,26.02-11.06,26.13-11.13.92-.61,2.16-.35,2.77.57.61.92.35,2.16-.57,2.77-.46.3-11.33,7.4-27.3,11.66-.17.05-.35.07-.52.07Z"/>
          <g>
            <path class="cls-4" d="M153.88,75.97l.28-.06c2.29-.5,4.57.96,5.07,3.25.5,2.29-.96,4.57-3.25,5.07l-4.87,1.07"/>
            <path d="M151.11,87.29c-.92,0-1.75-.64-1.95-1.57-.24-1.08.45-2.14,1.53-2.38l4.87-1.07c1.21-.27,1.99-1.47,1.72-2.69-.13-.58-.48-1.09-.99-1.41-.51-.33-1.11-.44-1.7-.31l-.28.06c-1.08.23-2.15-.45-2.38-1.53s.45-2.14,1.53-2.38l.28-.06c1.62-.36,3.3-.06,4.71.85,1.41.9,2.38,2.3,2.74,3.93.36,1.63.06,3.3-.85,4.71s-2.3,2.38-3.93,2.74l-4.87,1.07c-.14.03-.29.05-.43.05Z"/>
          </g>
          <path d="M71.4,127.52c-10.17,0-18.59-2.75-23.87-7.84-3.51-3.39-5.45-7.69-5.45-12.12,0-10.53,11.66-19.1,25.99-19.1,4.74,0,12.92.87,14.46,6.67.95,3.59-.86,5.47-1.95,6.59-.95.98-1.05,1.08-.6,2.1.33.75.69.89,3.41.57,2.8-.33,7.03-.84,10.37,3.21h0c2.1,2.54,2.5,5.63,1.12,8.7-2.71,6.04-11.88,10.86-21.33,11.21-.72.03-1.44.04-2.15.04ZM68.06,92.45c-12.12,0-21.99,6.78-21.99,15.1,0,3.38,1.46,6.58,4.23,9.25,4.86,4.68,13.06,7.06,23.09,6.69,8.82-.33,15.99-4.76,17.83-8.85.75-1.67.57-3.15-.56-4.51h0c-1.95-2.36-4.2-2.09-6.81-1.78-2.5.3-5.93.71-7.54-2.91-1.55-3.48.29-5.38,1.38-6.51.94-.97,1.33-1.37.96-2.77-.72-2.72-5.95-3.69-10.6-3.69Z"/>
          <path d="M68.13,101.91c-2.56,0-4.56-1.5-4.56-3.42s2-3.42,4.56-3.42,4.56,1.5,4.56,3.42-2,3.42-4.56,3.42ZM68.13,97.24c-1.35,0-2.4.68-2.4,1.26s1.05,1.26,2.4,1.26,2.4-.68,2.4-1.26-1.05-1.26-2.4-1.26Z"/>
          <path class="cls-2" d="M58.77,108.63s3.56-1.21,5.61,1.41c2.05,2.62.77,4.17,3.4,4.71,2.62.54,5.45,3.83,2.08,4.98-3.36,1.14-10.02,0-12.64-1.55-2.62-1.55-4.91-1.75-5.38-5.11-.34-2.45.6-4.72,6.92-4.44Z"/>
          <path class="cls-2" d="M73.41,113.17c0,.61-.26,1.38-1.37,1.38s-2.67-.77-2.67-1.38.9-1.1,2.02-1.1,2.02.49,2.02,1.1Z"/>
        </g>
      </g>
    </g>
  </g>
</svg>