<?xml version="1.0" encoding="UTF-8"?>
<svg id="_레이어_2" xmlns="http://www.w3.org/2000/svg" version="1.1" xmlns:xlink="http://www.w3.org/1999/xlink" viewBox="0 0 382.8 35">
  <!-- Generator: Adobe Illustrator 29.6.1, SVG Export Plug-In . SVG Version: 2.1.1 Build 9)  -->
  <defs>
    <style>
      .st0 {
        fill: #3e3a39;
      }

      .st1 {
        fill: #0c9268;
      }

      .st2 {
        fill: #fff;
      }

      .st3 {
        fill: none;
      }

      .st4 {
        fill: #44af35;
      }

      .st5 {
        fill: #333;
      }

      .st6 {
        clip-path: url(#clippath);
      }

      .st7 {
        fill: #3d3a39;
      }
    </style>
    <clipPath id="clippath">
      <rect class="st3" x="219" y="0" width="136.3" height="35"/>
    </clipPath>
  </defs>
  <rect class="st3" x=".8" y="0" width="382" height="35"/>
  <g class="st6">
    <path class="st0" d="M267.2,19.8h6v4.9h1.4v-4.9h6v-1.2h-13.4v1.2h0ZM288.5,17.4c.1-.1.3-.3.5-.4s.3-.3.5-.4c-.5-.3-.9-.6-1.3-.9-.4-.3-.7-.7-1-1.1-.3-.4-.5-.8-.6-1.2-.1-.4-.2-.8-.2-1.3v-1.4h-1.3v1.4c0,.5,0,.9-.2,1.3-.1.5-.4.9-.6,1.3-.3.4-.6.8-1,1.1-.4.4-.8.7-1.3,1,.2.1.3.3.5.4s.3.3.5.4c.6-.4,1.2-.9,1.7-1.4.5-.6.9-1.1,1.1-1.8.3.6.6,1.1,1.1,1.6.5.5,1,.9,1.6,1.3ZM343.7,18.1c1.2-.4,2.2-.9,3.1-1.5.8-.6,1.4-1.4,1.8-2.3.4.9,1,1.7,1.8,2.4.8.7,1.8,1.2,3.1,1.5.1-.2.3-.3.4-.5.1-.1.3-.3.4-.5-.8-.2-1.5-.5-2.1-.9-.6-.4-1.1-.8-1.6-1.3-.4-.5-.8-1-1-1.5-.2-.5-.3-1.1-.3-1.6v-.6h-1.4v.6c0,.6-.1,1.1-.3,1.6-.2.6-.5,1.1-1,1.5-.4.5-1,.9-1.6,1.3-.6.4-1.4.7-2.1.9.1.2.3.3.4.5.1.2.3.3.4.5h0ZM336.4,14.4c0,.8-.2,1.6-.3,2.3h1.3c.3-1.4.5-3.4.5-5.9h-9.1v1.2h7.8c0,.8,0,1.6-.1,2.4h0ZM271.2,14.6c-.4.3-.9.6-1.4.7-.5.2-1,.4-1.4.5.1.2.3.3.4.5.1.2.2.3.4.5,1.1-.3,2-.7,2.9-1.3.8-.6,1.4-1.2,1.8-1.9.2.4.4.7.7,1,.3.3.7.6,1.1.9.4.3.8.5,1.3.7.5.2,1,.4,1.5.5.1-.1.3-.3.4-.5.1-.1.2-.3.4-.5-.5-.1-1.1-.3-1.5-.5-.5-.2-.9-.5-1.3-.8-.4-.3-.8-.6-1-1-.3-.4-.5-.9-.6-1.4h3.9v-1.2h-9.5v1.2h3.9c-.1.6-.4,1.1-.7,1.5-.3.4-.7.8-1.1,1.1h0ZM292.6,19.1c-.4-.3-.8-.5-1.2-.6-.5-.1-1-.2-1.5-.2s-1,0-1.5.2c-.5.1-.9.4-1.2.7-.4.3-.6.6-.8,1-.2.4-.3.9-.3,1.4s0,1,.3,1.4c.2.4.5.8.8,1,.3.3.8.5,1.2.6.5.1,1,.2,1.5.2s1,0,1.5-.2c.5-.2.9-.4,1.2-.7.3-.3.6-.6.8-1,.2-.4.3-.8.3-1.3s-.1-1-.3-1.4c-.2-.4-.5-.8-.8-1h0ZM292.2,22.4c-.1.3-.3.5-.5.7-.2.2-.5.3-.8.4-.3,0-.7.1-1,.1s-.7,0-1-.1c-.3-.1-.6-.2-.8-.4-.2-.2-.4-.4-.5-.7-.1-.2-.2-.5-.2-.9s0-.6.2-.9c.1-.2.3-.5.5-.7.2-.2.5-.3.8-.4.3,0,.6-.1,1-.1s.7,0,1,.1c.3.1.6.2.8.4.2.2.4.4.5.7.1.3.2.5.2.9s0,.6-.2.9h0ZM322.6,19.6h1.4v-9.4h-1.4v1.8h-2.4v1.1h2.4v2h-2.4v1.1h2.4v3.4h0ZM306.5,17.9v-1.1c-1.6.3-2.9.5-4.1.5v-.8c.3,0,.7-.1,1-.2.3-.1.5-.3.8-.5.2-.2.4-.4.5-.6.1-.2.2-.5.2-.8s0-.7-.2-1c-.2-.3-.4-.5-.7-.7-.2-.1-.4-.2-.7-.3h2.4v-1h-3.2v-1.1h-1.4v1.1h-3.2v1h2.4c-.2,0-.5.2-.6.3-.3.2-.5.4-.7.7-.2.3-.2.6-.2,1,0,.6.2,1.1.7,1.5.5.4,1,.6,1.8.7v.8h-3.5v1.1h3.7c2,0,3.7-.1,5.1-.5h0ZM301.1,15.2c-.2,0-.4-.1-.5-.2-.1,0-.3-.2-.4-.3,0-.1-.1-.3-.1-.5,0-.4.2-.7.5-.9.3-.2.7-.3,1.2-.3s.9.1,1.2.3c.3.2.5.5.5.9s-.2.7-.5.9c-.3.2-.8.2-1.2.2s-.5,0-.7,0h0ZM326.5,19.5h6v5.1h1.4v-5.1h6v-1.2h-13.4s0,1.2,0,1.2ZM316.5,19.4h-1.3v4.8h9v-1.2h-7.6v-3.6h0ZM349.3,21.6v-3.4h-1.4v3.4h-6v1.2h13.4v-1.2h-6ZM301,22.3h7.6v-3h-9v1h7.6v1h-7.6v3.2h9.2v-1h-7.9v-1.1h0ZM317.9,17.5c.4-.1.8-.4,1.1-.7.3-.3.5-.7.7-1.1.2-.4.3-.9.3-1.4s0-1-.3-1.5c-.2-.4-.4-.8-.7-1.1-.3-.3-.7-.5-1.1-.7-.4-.2-.9-.3-1.4-.3s-1,0-1.4.3c-.4.2-.8.4-1.1.7-.3.3-.6.7-.7,1.1-.2.4-.3.9-.3,1.5s0,1,.3,1.4c.2.4.4.8.7,1.1.3.3.7.6,1.1.7.4.2.9.3,1.4.3s1,0,1.4-.3ZM314.9,15.9c-.4-.4-.6-1-.6-1.7s.2-1.3.6-1.7c.4-.4.9-.6,1.6-.6s1.1.2,1.5.6c.4.4.6,1,.6,1.7s-.2,1.3-.6,1.7c-.4.4-.9.7-1.6.7s-1.2-.2-1.6-.6h0ZM293,13.3h-1.6v-2.9h-1.3v6.9h1.3v-2.8h1.6v3.4h1.3v-7.7h-1.3v3.1h0ZM308.6,10.2h-1.4v8.4h1.4v-3.8h2.2v-1.2h-2.2s0-3.4,0-3.4Z"/>
    <path class="st4" d="M234.3,15.4h-5.3s0-4.6,0-4.6h-2v11.6c0,0,2,0,2,0v-5.2s5.3,0,5.3,0v5.2s2,0,2,0v-11.6c0,0-2,0-2,0v4.5s0,0,0,0ZM246.6,18.1c-.2.9-.5,1.6-1.1,2.1-.5.5-1.2.7-2,.7h0c-1.1,0-1.9-.4-2.4-1.1-.6-.7-.9-1.8-.9-3.2s.3-2.4.9-3.1c.6-.8,1.4-1.1,2.5-1.1s1.4.2,1.9.6c.5.4.8.9.9,1.6v.2h2v-.3c-.2-1.2-.7-2.1-1.6-2.8-.8-.7-1.9-1-3.3-1-1.6,0-3,.6-4,1.6-1,1.1-1.5,2.6-1.5,4.4,0,1.8.5,3.3,1.4,4.4.9,1.1,2.2,1.7,3.8,1.7h0c1.4,0,2.5-.4,3.4-1.2s1.5-1.9,1.7-3.4v-.3s-1.9,0-1.9,0v.2s0,0,0,0ZM250.6,10.9v11.6c0,0,2,0,2,0v-11.6c0,0-2,0-2,0h0Z"/>
    <path class="st4" d="M258.4,5.8v18.1c0,2.5-2,4.5-4.5,4.5h-28.5c-2.5,0-4.5-2-4.5-4.5V5.8h-1.9v18.1c0,3.5,2.9,6.4,6.4,6.4h28.5c3.5,0,6.4-2.9,6.4-6.4V5.8h-1.9,0Z"/>
  </g>
  <path class="st1" d="M124.5,14.2c.4,0,.8.1,1,.4s.4.7.4,1.2c0,.9-.2,1.7-.5,2.2s-.9.9-1.6,1.1c-1.4.5-2.8.7-4.4.7s-2.6-.2-3.7-.5c-.9,1.4-1.8,2.9-2.9,4.4-1.2,1.7-2.2,2.9-3.1,3.5-.8.6-1.8,1-2.9,1s-2.1-.5-2.7-1.4-1-2.5-1.1-4.6l-.2-3.3c-.9,2.5-1.8,4.5-2.5,5.8-.7,1.3-1.5,2.2-2.2,2.8s-1.6.8-2.6.8-2.2-.5-2.9-1.4c-.7-1-1.1-2.5-1.3-4.6-.4-4.2-.5-7.9-.5-11.1v-1.6c0-1,.3-1.7.8-2.1.5-.4,1.3-.6,2.3-.6s1.3.2,1.7.5.6.9.6,1.7c0,3.2.2,7.4.6,12.5,0,.3.4.4.5.1,1.9-4,3.6-8.2,5.2-12.5.3-.9.7-1.5,1.2-1.8.5-.3,1-.5,1.7-.5s1.4.2,1.7.5.5.9.5,1.8c0,3.3.2,7.5.6,12.7,0,.2.3.4.5.1,1.6-2.4,2.8-4.3,3.6-5.8-.4-.9-.7-1.9-.7-3.1s.2-2,.7-3c.4-1,1.1-1.7,1.8-2.3.5-.4,1.1-.7,1.7-.8,1.3-.3,2.4,0,3.1.8.5.6.8,1.5.8,2.7s-.4,2.9-1.1,4.6c1.1,0,2.6-.3,4.5-.7l1.2-.2c0,0,.2,0,.4,0h0Z"/>
  <path class="st7" d="M134.4,13.7c0-2.3,1.9-3.9,4.4-3.9s4.4,1.6,4.4,3.9-1.9,3.9-4.4,3.9-4.4-1.6-4.4-3.9ZM136.1,13.7c0,1.4,1.2,2.3,2.7,2.3s2.7-.9,2.7-2.3-1.2-2.3-2.7-2.3-2.7.9-2.7,2.3Z"/>
  <polygon class="st7" points="137.9 25.5 137.9 20.7 131.2 20.7 131.2 19.1 146.3 19.1 146.3 20.7 139.7 20.7 139.7 25.5 137.9 25.5"/>
  <path class="st7" d="M157.4,19.4h-7.1v-3h5.8v-5.7h-7.6v1.6h5.8v2.5h-5.8v6.2h8.9v-1.6h0Z"/>
  <rect class="st7" x="159" y="9.5" width="1.7" height="16"/>
  <path class="st7" d="M189.7,19.4h-7.1v-3h5.8v-5.7h-7.6v1.6h5.8v2.5h-5.8v6.2h8.9v-1.6h0Z"/>
  <rect class="st7" x="191.3" y="9.5" width="1.7" height="16"/>
  <polygon class="st7" points="166.2 25.2 166.2 20.2 167.9 20.2 167.9 23.6 177 23.6 177 25.2 166.2 25.2"/>
  <polygon class="st7" points="174.9 21.3 174.9 9.5 176.6 9.5 176.6 14.9 179.2 14.9 179.2 16.5 176.6 16.5 176.6 21.3 174.9 21.3"/>
  <polygon class="st7" points="170.7 16.1 172.5 16.1 172.5 10.2 164.5 10.2 164.5 11.8 170.7 11.8 170.7 16.1"/>
  <polygon class="st7" points="173.7 17.4 168.3 17.4 168.3 14 166.6 14 166.6 17.4 163.6 17.4 163.6 19 173.7 19 173.7 17.4"/>
  <rect class="st3" x="90.8" y="0" width="102.3" height="35"/>
  <rect class="st5" x=".8" y="3.5" width="64" height="28" rx="10" ry="10"/>
  <g>
    <path class="st2" d="M12.2,15.8c-.6.3-1.2.5-1.9.6l.5,1.1c.9-.1,1.6-.4,2.3-.7.7-.4,1.2-.8,1.6-1.3,0,0,.1-.2.2-.3,0,0,0,.2.2.3.4.5.9,1,1.6,1.3.7.4,1.4.6,2.3.7l.5-1.1c-.7,0-1.4-.3-2-.6s-1-.6-1.3-1c-.3-.3-.4-.7-.4-1.1h3.3v-1.1h-8.2v1.1h3.3c0,.4-.2.7-.5,1.1-.3.4-.7.7-1.3,1Z"/>
    <polygon class="st2" points="9.7 19.2 14.1 19.2 14.1 23 15.4 23 15.4 19.2 19.8 19.2 19.8 18.1 9.7 18.1 9.7 19.2"/>
    <rect class="st2" x="28.4" y="12" width="1.4" height="11"/>
    <path class="st2" d="M22.3,16.5c-.4.3-.9.5-1.4.7l.6,1c.7-.2,1.2-.5,1.7-.9.5-.4.8-.8,1-1.4.2.5.6.9,1,1.3.5.4,1,.7,1.7.8l.6-1.1c-.6-.1-1.1-.4-1.5-.6-.4-.3-.7-.6-.9-1-.2-.3-.3-.7-.3-1h2.3v-1.1h-2.4v-1.3h-1.4v1.3h-2.4v1.1h2.3c0,.4-.1.7-.3,1.1-.2.4-.5.7-.9,1Z"/>
    <path class="st2" d="M25.4,19.6c-.2,0-.3,0-.5,0v-1.8h-1.4v1.8c-.1,0-.3,0-.5,0-.7,0-1.5,0-2.4,0h0l.2,1.1h.1c.8,0,1.6,0,2.3,0s1.5,0,2.3-.1,1.6-.2,2.3-.3v-1c-.8.1-1.6.2-2.4.2Z"/>
    <path class="st2" d="M33.1,17.2c-.1,0-.3-.1-.5-.1s-.3,0-.5.1c-.1,0-.3.2-.3.3,0,.1-.1.3-.1.5,0,.2,0,.3.1.5,0,.1.2.3.3.3.1,0,.3.1.5.1s.3,0,.5-.1c.1,0,.3-.2.3-.3,0-.1.1-.3.1-.5s0-.3-.1-.5c0-.1-.2-.3-.3-.3Z"/>
    <path class="st2" d="M37.2,15.8c-.6.3-1.2.5-1.9.6l.5,1.1c.9-.1,1.6-.4,2.3-.7.7-.4,1.2-.8,1.6-1.3,0,0,.1-.2.2-.3,0,0,0,.2.2.3.4.5.9,1,1.6,1.3.7.4,1.4.6,2.3.7l.5-1.1c-.7,0-1.4-.3-2-.6s-1-.6-1.3-1c-.3-.3-.4-.7-.4-1.1h3.3v-1.1h-8.2v1.1h3.3c0,.4-.2.7-.5,1.1-.3.4-.7.7-1.3,1Z"/>
    <polygon class="st2" points="34.7 19.2 39.1 19.2 39.1 23 40.4 23 40.4 19.2 44.8 19.2 44.8 18.1 34.7 18.1 34.7 19.2"/>
    <path class="st2" d="M50.3,15c0,.4-.1,1-.2,1.6h1.3c.1-.5.2-1,.2-1.5,0-.5,0-1,0-1.6h0v-.7h-5.6v1.1h4.3c0,.4,0,.8,0,1.1Z"/>
    <polygon class="st2" points="54.4 15.4 54.4 12 53 12 53 20.2 54.4 20.2 54.4 16.6 55.8 16.6 55.8 15.4 54.4 15.4"/>
    <polygon class="st2" points="48.4 19.5 47.1 19.5 47.1 21.7 47.1 22 47.1 22.8 54.7 22.8 54.7 21.7 48.4 21.7 48.4 19.5"/>
    <path class="st2" d="M52.4,18.2v-1c-1.1.1-2.1.2-3.3.3,0,0-.1,0-.2,0v-2.2h-1.3v2.2c-.7,0-1.4,0-2.1,0v1.1c1.4,0,2.6,0,3.7,0s2.2-.2,3.2-.4Z"/>
  </g>
</svg>