<?xml version="1.0" encoding="UTF-8"?>
<svg id="_레이어_2" xmlns="http://www.w3.org/2000/svg" version="1.1" viewBox="0 0 382.8 35">
  <!-- Generator: Adobe Illustrator 29.6.1, SVG Export Plug-In . SVG Version: 2.1.1 Build 9)  -->
  <defs>
    <style>
      .st0 {
        fill: #231815;
      }

      .st1 {
        fill: #009e41;
      }

      .st2 {
        fill: #fff;
      }

      .st3 {
        fill: #f6ba81;
      }

      .st4 {
        fill: none;
      }

      .st5 {
        fill: #f39e50;
      }

      .st6 {
        fill: #004097;
      }

      .st7 {
        fill: #333;
      }

      .st8 {
        fill: #e50012;
      }

      .st9 {
        fill: #ec7000;
      }
    </style>
  </defs>
  <rect class="st4" x=".8" y="0" width="382" height="35"/>
  <g>
    <path class="st6" d="M377.5,27.6c.8,0,1.5-.6,1.6-1.4l3.2-17.4c.1-.8-.3-1.4-1-1.4h-35.5c-.8,0-1.6.6-1.7,1.4l-3.6,17.4c-.1.8.3,1.4,1.1,1.4h35.9Z"/>
    <path class="st2" d="M357.1,14.6l-1.4,6.7s-.9,3.9,4.2,3.9c0,0,4.5.1,5.7-3.4l.4-2h-3.5l-.3,1.6s-.3,1.3-1.8,1.2c0,0-1.5.1-1.2-1.1l1.4-6.9s0-1.1,1.6-1.3c0,0,1.5,0,1.3,1.1l-.4,1.7h3.5l.4-1.7s.7-3.7-4.3-3.6c0,0-4.8.2-5.7,3.8Z"/>
    <path class="st2" d="M367.8,14.6l-1.4,6.7s-.9,3.9,4.2,3.9c0,0,4.5.1,5.7-3.4l.4-2h-3.5l-.3,1.6s-.4,1.3-1.8,1.2c0,0-1.5.1-1.2-1.1l1.4-6.9s0-1.1,1.6-1.3c0,0,1.5,0,1.3,1.1l-.4,1.7h3.5l.4-1.7s.7-3.7-4.3-3.6c0,0-4.8.2-5.7,3.8h0Z"/>
    <g>
      <polyline class="st2" points="362 7.4 357.9 7.4 350.7 15.2 351.9 10.1 348.2 10.1 345 24.8 348.7 24.8 349.6 20.7 350.5 19.6 351.8 24.9 355.5 24.9 353.3 16.8 362 7.4"/>
      <polygon class="st8" points="364.6 4.5 360.6 4.5 357.9 7.4 362 7.4 364.6 4.5"/>
    </g>
    <rect class="st4" x="340.5" y="0" width="41.9" height="35"/>
  </g>
  <rect class="st7" x=".8" y="3.5" width="40" height="28" rx="10" ry="10"/>
  <g>
    <g>
      <path class="st3" d="M225.6,17.9c-.5-4.4,4.1-8,10.4-7.9,6.2,0,11.6,3.7,12.1,8.1.5,4.4-4.1,8-10.4,7.9-6.2,0-11.6-3.7-12.1-8.1M249.2,19.3c-.6-5.5-6.8-10-14-10-7.1,0-12.5,4.3-11.9,9.8.6,5.5,6.8,10,14,10,7.1,0,12.5-4.3,11.9-9.8"/>
      <path class="st5" d="M238.4,29.2c-3.5,3.7-9.2,4-12.6.7-3.4-3.3-3.4-9,.1-12.6,3.5-3.7,9.2-4,12.6-.7,3.4,3.3,3.4,9-.1,12.6M225.4,17.2c-4.1,4.3-4.2,10.9-.1,14.7,4,3.8,10.6,3.5,14.7-.8,4.1-4.3,4.2-10.9.1-14.7-4-3.8-10.6-3.5-14.7.8"/>
      <path class="st9" d="M225.8,3.4c7.3-2.7,14.6,0,16.2,6.2,1.6,6.2-3,13.4-10.4,16.1-7.3,2.8-14.6,0-16.2-6.2-1.6-6.2,3-13.4,10.4-16.1M219,5.8c-7.6,6-9.5,14.7-4.3,19.5,5.2,4.7,15.6,3.7,23.2-2.3,7.6-6,9.5-14.7,4.3-19.5-5.2-4.7-15.6-3.7-23.2,2.3"/>
      <g>
        <path class="st0" d="M263.1,13.8h-8.7v-1.4h8.7v1.4ZM258.7,19.9c-1.1,0-2-.3-2.7-.8-.7-.6-1-1.2-1-2s.4-1.4,1-2c.7-.6,1.6-.8,2.7-.8s2,.3,2.7.8c.7.6,1,1.2,1,2s-.4,1.4-1,2-1.6.8-2.7.8ZM259.4,23.1h7.5v1.5h-8c-1.7,0-2.6-.8-2.6-2.4v-1.5h1.9v1.3c0,.8.4,1.1,1.1,1.1h0ZM256.5,10.5h4.5v1.4h-4.5v-1.4ZM258.7,18.5c.5,0,.9-.1,1.3-.4s.5-.6.5-1-.2-.8-.5-1c-.4-.3-.8-.4-1.3-.4s-.9.1-1.3.4c-.4.3-.5.6-.5,1s.2.8.5,1c.4.3.8.4,1.3.4ZM266.9,14.3h2v1.5h-2v4.9h-1.9v-10h1.9v3.6Z"/>
        <path class="st0" d="M273.9,19.8c-.7-.1-1.3-.4-1.8-.8-.7-.5-1-1.2-1-2s.4-1.4,1-2c.7-.6,1.6-.8,2.7-.8s2,.3,2.7.8c.7.6,1,1.2,1,2s-.3,1.4-1,2c-.5.4-1,.6-1.7.8v1.5h2.2c1.9,0,2.9-.8,2.9-2.2v-8.3h1.9v4.7h2v1.5h-2v7.7h-1.9v-2.6c-.6.5-1.5.8-2.6.8h-8.2v-1.5h3.7v-1.5h0ZM279.2,13.8h-8.7v-1.4h8.7v1.4ZM272.6,10.5h4.5v1.4h-4.5v-1.4ZM274.9,18.5c.5,0,.9-.1,1.3-.4s.5-.6.5-1-.2-.8-.5-1c-.4-.3-.8-.4-1.3-.4s-.9.1-1.3.4c-.4.3-.5.6-.5,1s.2.8.5,1c.4.3.8.4,1.3.4Z"/>
        <path class="st0" d="M294.5,21.4h-5.2c-1.7,0-2.6-.9-2.6-2.6v-7.9h1.9v3.4h4v-3.4h1.9v10.5ZM292.6,19.9v-4.1h-4v3c0,.8.4,1.2,1,1.2h2.9ZM296.9,24.6v-13.9h1.9v13.9h-1.9Z"/>
        <path class="st0" d="M305.9,16.3c-.3.5-.6.9-1,1.2-1,1-2.2,1.6-3.6,1.8v-1.5c.9-.2,1.7-.7,2.4-1.6.7-.9,1.1-2.1,1.2-3.8h-3.3v-1.5h8.5v1.5h-3.3c0,1.7.5,2.9,1.2,3.8.7.8,1.5,1.4,2.4,1.6v1.5c-1.4-.2-2.6-.8-3.6-1.8-.4-.4-.7-.8-1-1.2h0ZM307,23.1h7.5v1.5h-8c-1.7,0-2.6-.8-2.6-2.4v-2.1h2v1.9c0,.8.4,1.1,1.1,1.1h0ZM312.4,10.7h1.9v10h-1.9v-5.4h-3.2v-1.5h3.2s0-3.1,0-3.1Z"/>
      </g>
    </g>
    <rect class="st4" x="211.7" y="0" width="102.8" height="35"/>
  </g>
  <g>
    <g>
      <g>
        <path d="M88.7,9.9c-2.6,0-4.7,2-4.7,4.4s2.1,4.4,4.7,4.4,4.7-2,4.7-4.4-2.1-4.4-4.7-4.4ZM88.8,17.2c-1.2,0-2.1-1.2-2.1-2.8s.9-2.8,2.1-2.8,2.1,1.2,2.1,2.8-.9,2.8-2.1,2.8Z"/>
        <rect x="117.1" y="22.5" width="12.1" height="2.1"/>
        <path d="M96,10c-.8,0-1.3.9-1.4,1.9v12.8h2.7v-12.5h1.7v-2.1s-2.8,0-2.9,0,0,0-.1,0Z"/>
        <path d="M112.7,10c-.8,0-1.3.9-1.4,1.9v4.8h-2v-4.5h.9v-2.1h-9.2v2.1h.9v4.5h-.9v2.1h10.3v5.9h2.7v-12.5h1.7v-2.1s-2.8,0-2.9,0,0,0-.1,0ZM106.6,16.6h-2v-4.5h2v4.5Z"/>
        <path d="M141,10.1h0c-.7.2-1.2.9-1.3,1.8v4h-1v-4c0-.3-.1-.6-.2-.8-.2-.5-.6-.9-1.1-1,0,0-6.9,0-6.9,0v2.1h5.6v3.7h-1.5v-2.7h-2.7v2.7h-1.6v2.1h9.5v.7h2.7v-6.5h1.8v-2.1s-3.1,0-3.2,0h0Z"/>
        <path d="M133.6,18.7h-2.7v3.6h0c0,.1,0,.1,0,.1.1,1.1.8,2,1.7,2.1h9.9v-2.1h-8.9v-3.8h0Z"/>
        <path d="M163.3,18.4h-2.7v4h0c0,.1,0,.1,0,.1,0,1.1.8,1.9,1.6,2.1,0,0,.2,0,.2,0,0,0,9.4,0,9.4,0v-2.1h-8.5v-4.1h0Z"/>
        <path d="M176.3,19.5h-2.7v2.9h0c0,.1,0,.1,0,.1.1,1.1.8,2,1.7,2.1h10.2v-2.1h-9.1v-3h0Z"/>
        <polygon points="173.4 16.7 173.4 18.8 178.6 18.8 178.6 21.5 181.3 21.5 181.3 18.8 185.7 18.8 185.7 16.7 173.4 16.7"/>
        <path d="M173.6,13.6c.1,1.2.8,2,1.7,2.1h10.2v-5.6h-11.9v3.4h0ZM176.3,12.3h6.5v1.4h-6.5v-1.4Z"/>
        <rect x="169" y="10.2" width="2.7" height="8.6"/>
        <path d="M155.4,16.7h-6.8v-1.4h5.4v-5.2h-8.1v2.1h5.4v.9h-5.4v3.4h0c0,.1,0,.1,0,.1.1,1.1.8,2,1.7,2.1h7.8v5.8h2.7v-14.6h-2.7v6.6h0Z"/>
        <path d="M119.1,18.8h9.1v-2.1h-8.1v-1.3h8.1v-2.1h-8.1v-1h8.1v-2.1h-10.8v6.5c0,1.2.8,2.1,1.7,2.2h0Z"/>
        <path d="M163.8,14.6c1.1,2.1,2.2,3,4.3,3.2v-2.1c-2.2-.4-3.2-3.2-3.2-5.5h-2.3c0,2.3-1,5.1-2.9,5.5v2.1c1.8-.2,3-1,4.1-3.2h0Z"/>
      </g>
      <g>
        <path class="st1" d="M75.1,10.7h-1.1l-7.2,14.4h16.3l-8-14.4h0ZM75.1,12l6.8,12.5h-12.9s6.1-12.5,6.1-12.5Z"/>
        <path class="st1" d="M76.1,19.2c0,.5-.4.9-.9.9s-.9-.4-.9-.9.4-.9.9-.9.9.4.9.9Z"/>
      </g>
    </g>
    <rect class="st4" x="66.8" y="0" width="119" height="35"/>
  </g>
  <g>
    <path class="st2" d="M15.6,14.8c-.8,0-1.4,0-2,.2s-1,.4-1.3.6-.4.6-.4,1c0,.4.1.7.4,1,.3.3.7.5,1.3.6.6.1,1.2.2,2,.2s1.4,0,2-.2c.6-.1,1-.4,1.3-.6.3-.3.4-.6.5-1,0-.4-.2-.7-.5-1-.3-.3-.7-.5-1.3-.6-.6-.1-1.2-.2-2-.2ZM17.9,16.6c0,.2,0,.3-.3.5s-.4.2-.8.3c-.3,0-.8,0-1.3,0-.5,0-.9,0-1.3,0-.3,0-.6-.2-.8-.3-.2-.1-.3-.3-.3-.5,0-.2,0-.3.3-.5.2-.1.4-.2.8-.3.3,0,.8,0,1.3,0s.9,0,1.3,0c.3,0,.6.2.8.3.2.1.3.3.3.5Z"/>
    <polygon class="st2" points="20.1 13.2 16.3 13.2 16.3 12 14.9 12 14.9 13.2 11.1 13.2 11.1 14.3 20.1 14.3 20.1 13.2"/>
    <polygon class="st2" points="10.6 20.2 14.9 20.2 14.9 23 16.3 23 16.3 20.2 20.7 20.2 20.7 19.1 10.6 19.1 10.6 20.2"/>
    <polygon class="st2" points="27.1 18.4 27.1 19.4 29.3 19.4 29.3 20.3 30.7 20.3 30.7 12 29.3 12 29.3 18.4 27.1 18.4"/>
    <path class="st2" d="M23.5,16.1c.4.2.9.2,1.4.2s1,0,1.4-.2c.4-.2.7-.4,1-.7.2-.3.4-.6.4-1,0-.4-.1-.7-.4-1-.2-.3-.6-.5-1-.7-.4-.2-.9-.2-1.4-.2s-1,0-1.4.2c-.4.2-.7.4-1,.7-.2.3-.3.6-.3,1s.1.7.3,1c.2.3.6.5,1,.7ZM23.7,13.8c.1-.1.3-.3.5-.3s.5-.1.8-.1c.3,0,.5,0,.8.1s.4.2.5.3c.1.1.2.3.2.5,0,.2,0,.4-.2.5-.1.1-.3.2-.5.3-.2,0-.5.1-.8.1s-.6,0-.8-.1c-.2,0-.4-.2-.5-.3-.1-.1-.2-.3-.2-.5,0-.2,0-.4.2-.5Z"/>
    <path class="st2" d="M24.4,18v2.1h1.4v-2.1c.2,0,.3,0,.5,0,.8,0,1.6-.2,2.3-.3v-1c-1.1.1-2.2.2-3.3.3-1.1,0-2.4,0-3.8,0h-.1l.2,1.1c.8,0,1.6,0,2.3,0,.2,0,.4,0,.5,0Z"/>
    <polygon class="st2" points="24.2 21.7 24.2 19.5 22.8 19.5 22.8 21.7 22.8 22 22.8 22.8 30.9 22.8 30.9 21.7 24.2 21.7"/>
  </g>
</svg>