<?xml version="1.0" encoding="UTF-8"?>
<svg id="_레이어_2" xmlns="http://www.w3.org/2000/svg" version="1.1" viewBox="0 0 382.7999878 35">
  <!-- Generator: Adobe Illustrator 29.6.1, SVG Export Plug-In . SVG Version: 2.1.1 Build 9)  -->
  <defs>
    <style>
      .st0 {
        fill: #3e3a39;
      }

      .st1 {
        fill: #fff;
      }

      .st2 {
        fill: none;
      }

      .st3 {
        fill: #44af35;
      }

      .st4 {
        fill: #333;
      }

      .st5 {
        fill: #009a6b;
      }
    </style>
  </defs>
  <rect class="st2" x=".8" width="381.9999878" height="35"/>
  <rect class="st2" x="90.8000031" width="102.3000031" height="35"/>
  <rect class="st4" x=".8" y="3.5" width="64.000003" height="28" rx="10" ry="10"/>
  <g>
    <polygon class="st1" points="8.8491211 19.2861328 13.3515625 19.2861328 13.3515625 23.21875 14.7480469 23.21875 14.7480469 19.2861328 19.3041992 19.2861328 19.3041992 18.1464844 8.8491211 18.1464844 8.8491211 19.2861328"/>
    <path class="st1" d="M11.4194336,15.6850586c-.5883789.2910156-1.262207.4863281-2.0224609.5859375l.5297852,1.1083984c.8945312-.1318359,1.6879883-.3847656,2.3789062-.7587891.6914062-.3740234,1.2294922-.8408203,1.6137695-1.4003906.0598755-.0870972.1067505-.1779785.1573486-.2678223.0510864.0905151.0984497.1821899.1590576.2697754.3862305.5585938.9262695,1.0244141,1.6206055,1.3984375s1.4921875.6269531,2.3925781.7587891l.5209961-1.1083984c-.769043-.0996094-1.4477539-.2949219-2.0356445-.5859375-.5883789-.2919922-1.0429688-.6396484-1.3647461-1.0439453-.2875977-.3613281-.4379272-.7385254-.4660645-1.1308594h3.4396973v-1.1132812h-8.5375977v1.1132812h3.4517212c-.0328979.392334-.1860962.7695312-.4736938,1.1308594-.3212891.4042969-.7763672.7519531-1.3642578,1.0439453Z"/>
    <rect class="st1" x="28.2368164" y="11.7543945" width="1.409668" height="11.4916992"/>
    <path class="st1" d="M25.1420898,19.7177734c-.184082.0122681-.3570557.0200195-.5366211.0304565v-1.8483276h-1.4052734v1.9133911c-.1552734.005249-.3173218.0130615-.46875.0167847-.7558594.0175781-1.5976562.0263672-2.5253906.0263672h-.0625l.1704102,1.1542969h.1347656c.8588867,0,1.6630859-.0117188,2.4125977-.0341797.75-.0224609,1.5429688-.0703125,2.3793945-.1435547s1.6435547-.1816406,2.421875-.3251953l-.1079102-1.0458984c-.7573242.1132812-1.5615234.1992188-2.4125977.2558594Z"/>
    <path class="st1" d="M21.9165039,16.487793c-.4160156.3105469-.9169922.5458984-1.5039062.7070312l.6645508,1.0727539c.6850586-.1855469,1.2705078-.4799805,1.7553711-.8842773.4733276-.394104.8304443-.8653564,1.0785522-1.4068604.2563477.50354.6065063.9474487,1.069397,1.3199463.4921875.3964844,1.0839844.6875,1.7753906.8725586l.6459961-1.0991211c-.5922852-.1533203-1.0966797-.3779297-1.5126953-.6757812s-.7324219-.6416016-.9492188-1.0302734c-.1868286-.3341675-.2753296-.6915894-.2990112-1.0634766h2.4425659v-1.140625h-2.4780273v-1.3105469h-1.4052734v1.3105469h-2.4506836v1.140625h2.4025879c-.0245361.392334-.1125488.7671509-.295166,1.1171875-.2109375.4042969-.5244141.7607422-.9404297,1.0703125Z"/>
    <path class="st1" d="M33.2104492,17.2241211c-.1523438-.0849609-.3154297-.1279297-.4892578-.1279297-.1762695,0-.3408203.0429688-.4936523.1279297-.1523438.0859375-.2729492.2041016-.3613281.3544922-.0883789.1513672-.1308594.3154297-.1279297.4916992-.0029297.1796875.0395508.3427734.1279297.4912109s.2089844.2675781.3613281.3574219c.152832.0888672.3173828.1337891.4936523.1337891.1738281,0,.3369141-.0449219.4892578-.1337891.152832-.0898438.2734375-.2099609.3618164-.359375.0878906-.1494141.1323242-.3125.1323242-.4892578,0-.1733398-.0444336-.3364258-.1323242-.4887695-.0883789-.1533203-.2089844-.2714844-.3618164-.3574219Z"/>
    <path class="st1" d="M37.4462891,15.6850586c-.5883789.2910156-1.262207.4863281-2.0224609.5859375l.5297852,1.1083984c.8945312-.1318359,1.6879883-.3847656,2.3789062-.7587891.6914062-.3740234,1.2294922-.8408203,1.6137695-1.4003906.0598755-.0870972.1067505-.1779785.1573486-.2678223.0510864.0905151.0984497.1821899.1590576.2697754.3862305.5585938.9262695,1.0244141,1.6206055,1.3984375s1.4921875.6269531,2.3925781.7587891l.5209961-1.1083984c-.769043-.0996094-1.4477539-.2949219-2.0356445-.5859375-.5883789-.2919922-1.0429688-.6396484-1.3647461-1.0439453-.2875977-.3613281-.4379272-.7385254-.4660645-1.1308594h3.4396973v-1.1132812h-8.5375977v1.1132812h3.4517212c-.0328979.392334-.1860962.7695312-.4736938,1.1308594-.3212891.4042969-.7763672.7519531-1.3642578,1.0439453Z"/>
    <polygon class="st1" points="34.8759766 19.2861328 39.378418 19.2861328 39.378418 23.21875 40.7749023 23.21875 40.7749023 19.2861328 45.3310547 19.2861328 45.3310547 18.1464844 34.8759766 18.1464844 34.8759766 19.2861328"/>
    <polygon class="st1" points="55.2651367 15.3276367 55.2651367 11.7543945 53.8286133 11.7543945 53.8286133 20.3505859 55.2651367 20.3505859 55.2651367 16.5131836 56.7509766 16.5131836 56.7509766 15.3276367 55.2651367 15.3276367"/>
    <path class="st1" d="M51.0834961,14.9125977c-.034668.4658203-.1113281,1.0058594-.2314453,1.6230469l1.3916016.125c.1137695-.6132812.1870117-1.1708984.2202148-1.671875.0327148-.5009766.0522461-1.0400391.0581055-1.6181641v-.7675781h-5.8442383v1.1630859h4.4569092c-.0097046.4050903-.0251465.7929077-.0511475,1.1464844Z"/>
    <polygon class="st1" points="49.1240234 19.578125 47.7055664 19.578125 47.7055664 21.8583984 47.7055664 22.2226562 47.7055664 23.0039062 55.6328125 23.0039062 55.6328125 21.8583984 49.1240234 21.8583984 49.1240234 19.578125"/>
    <path class="st1" d="M53.2314453,18.2275391l-.0761719-1.0229492c-1.0385742.1494141-2.1435547.2470703-3.3154297.2939453-.0663452.0026245-.1414185.0036011-.2084961.0060425v-2.2843628h-1.4003906v2.3248901c-.7134399.0155029-1.4526978.026001-2.2358398.0276489l.1259766,1.1303711c1.3344727-.0029297,2.5869141-.0361328,3.7568359-.0986328,1.1704102-.0634766,2.2880859-.1884766,3.3535156-.3769531Z"/>
  </g>
  <g>
    <path class="st5" d="M124.7383095,14.2356503c.4501029,0,.7947413.1517403,1.0352216.4537004.2398807.3026882.3601422.7110336.3601422,1.224929,0,.9379159-.1800925,1.6715842-.5401491,2.2004019-.360078.5295706-.9002271.915199-1.6204249,1.1569427-1.3805248.4536576-2.8511378.6804971-4.4110689.6804971-1.3207571,0-2.5656227-.181463-3.7359029-.5444319-.8706757,1.4220458-1.8306909,2.8887613-2.8807096,4.4008106-1.2004956,1.7240059-2.2280295,2.9036013-3.0832442,3.5387434-.8552147.6351635-1.822939.9527559-2.903173.9527559-1.2005384,0-2.1085174-.4685832-2.7231662-1.4064349-.6154191-.937145-.9979819-2.4796665-1.1478164-4.6275858l-.2250193-3.3119467c-.9304424,2.5406505-1.7631938,4.476595-2.4981469,5.8071812-.7356384,1.3313357-1.4705916,2.2535765-2.2055233,2.767533-.7356598.5146481-1.5979198.7712532-2.5880861.7712532-1.2308179,0-2.1985423-.4834478-2.9032802-1.4518114-.7053803-.9676173-1.1477098-2.4952774-1.3278024-4.5822094-.3600352-4.2341875-.5401491-7.9395753-.5401491-11.115414v-1.5878765c.0295729-.9981538.2996046-1.6935551.8102023-2.0869962.5099124-.3926703,1.2751237-.589787,2.2956338-.589787.7799228,0,1.357311.1743927,1.7328714.5217544.3748537.3480647.5626553.930057.5626553,1.7467226,0,3.2595929.1840327,7.4354698.5532974,12.5271418.0201292.2777408.3976597.3541463.5146021.1018883,1.8715277-4.0379916,3.6012298-8.2323917,5.1886138-12.5836928.3298841-.9073794.7271798-1.5198439,1.1927865-1.8374364.4648995-.3175924,1.027512-.4763779,1.6879226-.4763779.8102237,0,1.3728362.1666017,1.6879018.4990304.3150656.3332033.4726091.9230154.4726091,1.7694467,0,3.3132352.1901572,7.5732052.5717135,12.77925.0187373.2561126.3514695.3470154.4931024.1335811,1.5846651-2.388421,2.7900852-4.3182164,3.616348-5.7899643-.4501457-.8768643-.675165-1.9203732-.675165-3.1304408,0-1.0279194.2250193-2.0260089.675165-2.9943328.4498459-.9671676,1.0641734-1.753022,1.8442889-2.35827.4965072-.3852396,1.0614324-.6558281,1.6732331-.7920217,1.334612-.2970777,2.3681633-.0246262,3.0990915.8138176.540084.6202629.81018,1.5198476.81018,2.699443,0,1.3610584-.3600994,2.9191694-1.0802768,4.6729623,1.1400436-.0602378,2.6556689-.2871237,4.5460838-.6805613l1.2153141-.2268181c.0900463-.0297656.2398164-.0453765.4501243-.0453765Z"/>
    <g>
      <g>
        <path class="st0" d="M134.6726291,13.7437043c0-2.293835,1.9631371-3.9196359,4.4174065-3.9196359,2.4365599,0,4.3997613,1.6258009,4.3997613,3.9196359,0,2.3118442-1.9632014,3.9371954-4.3997613,3.9371954-2.4542694,0-4.4174065-1.6253512-4.4174065-3.9371954ZM136.4034876,13.7456529c0,1.4133945,1.1819095,2.3090818,2.6848349,2.3090818,1.4886236,0,2.6705946-.8956873,2.6705946-2.3090818,0-1.399668-1.1819709-2.2953768-2.6705946-2.2953768-1.5029255,0-2.6848349.8957087-2.6848349,2.2953768Z"/>
        <polygon class="st0" points="138.2070254 25.623216 138.2070254 20.8068616 131.4872397 20.8068616 131.4872397 19.1807643 146.675122 19.1807643 146.675122 20.8068616 139.9553792 20.8068616 139.9553792 25.623216 138.2070254 25.623216"/>
      </g>
      <g>
        <path class="st0" d="M157.8016285,19.4763002s-6.2830024-.0005139-7.1591815,0v-3.0508875h5.8643354v-5.7283595h-7.5951939v1.6086946h5.8642926v2.5284478h-5.8642926v6.2508351h8.8900399v-1.6087305Z"/>
        <rect class="st0" x="159.3846226" y="9.562688" width="1.7483323" height="16.060528"/>
      </g>
      <g>
        <path class="st0" d="M190.2563162,19.4763002s-6.2830238-.0005139-7.1591815,0v-3.0508875h5.8642926v-5.7283595h-7.595151v1.6086946h5.8642284v2.5284478h-5.8642284v6.2508351h8.8900399v-1.6087305Z"/>
        <rect class="st0" x="191.8393103" y="9.562688" width="1.7483537" height="16.060528"/>
      </g>
      <g>
        <polygon class="st0" points="166.6118367 25.3614715 166.6118367 20.2990725 168.360169 20.2990725 168.360169 23.735328 177.5071781 23.735328 177.5071781 25.3614715 166.6118367 25.3614715"/>
        <polygon class="st0" points="175.322191 21.433784 175.322191 9.562688 177.0705233 9.562688 177.0705233 14.9382039 179.7237938 14.9382039 179.7237938 16.564326 177.0705233 16.564326 177.0705233 21.433784 175.322191 21.433784"/>
        <polygon class="st0" points="171.1941767 16.2135845 172.9425283 16.2135845 172.9425283 10.2782828 164.9177677 10.2782828 164.9177677 11.8865669 171.1941767 11.8865669 171.1941767 16.2135845"/>
        <polygon class="st0" points="174.1502404 17.5217715 168.7425177 17.5217715 168.7425177 14.1015338 166.9942068 14.1015338 166.9942068 17.5217715 163.9933212 17.5217715 163.9933212 19.1304411 174.1502404 19.1304411 174.1502404 17.5217715"/>
      </g>
    </g>
  </g>
  <g>
    <path class="st0" d="M288.5358276,17.4202881c.1531372-.1363525.3095703-.2877808.4614868-.4437866.1503906-.1546631.3035278-.2918701.4614868-.444397-.4614868-.2766113-.892395-.5841675-1.2594604-.9234009-.3815308-.3354492-.7042236-.6890869-.9667358-1.0874634-.2753906-.369812-.4732056-.7687988-.6132812-1.1965942-.1541748-.4155884-.215271-.8276367-.215271-1.2614136v-1.3936157h-1.3209839v1.3936157c0,.4631348-.0751953.9080811-.2142334,1.3384399-.1529541.4607544-.3672485.8892822-.62854,1.2888184-.2752686.4144897-.5978394.7957764-.96521,1.1491089-.4000854.3682861-.8286133.7061157-1.2900391.999939.1553955.1535645.3060913.2929688.4614258.444397.1508179.1511841.3059692.3059692.4567261.4412842.6474609-.3806763,1.2146606-.8564453,1.7350464-1.4384155.5061035-.553894.8733521-1.1518555,1.1182251-1.7810059.2662354.5827026.647583,1.133606,1.1394043,1.6242676.475769.5099487,1.027771.9370728,1.6399536,1.2902222ZM336.4682617,14.4887085c-.0895386.7991943-.1956787,1.5802612-.3344116,2.3508301l1.2828369.1210938c.3416138-1.56427.5109253-3.5724487.5109253-6.0632324h-9.1343384v1.1959229h7.7832031c0,.831543-.0446777,1.6291504-.1082153,2.3953857ZM292.6040649,19.1836548c-.3673706-.2753296-.7815552-.489624-1.2454224-.6433716-.4920044-.1499634-.9936523-.2277222-1.5159302-.2277222-.5418701,0-1.0443726.0777588-1.5067749.2148438-.4782104.1501465-.8899536.3809204-1.2255859.65625-.369812.2932739-.6452026.6309814-.8428345,1.0317383-.2144165.4125366-.3086548.8729248-.3086548,1.378479,0,.5084229.0942383.9499512.3086548,1.3493652.1976318.4014282.4730225.7527466.8287354,1.0452881.3389282.2768555.750061.4909668,1.2252808.6464844.4614868.1519165.9676514.2283325,1.5211792.2283325.5342407,0,1.0427856-.076416,1.5348511-.2283325.4587402-.1555176.8710938-.3850708,1.2406006-.6616821.3413086-.2912598.614563-.6461792.8285522-1.0438232.2001953-.4015503.3083496-.8453369.3083496-1.3356323,0-.489624-.1081543-.9523315-.3083496-1.3649902-.2139893-.4001465-.4872437-.7519531-.8426514-1.0452271ZM292.2058105,22.4561768c-.1411133.2583008-.3245239.4733276-.5507812.6555176-.2493286.1707764-.5109253.3096924-.8168945.414978-.3224487.0942993-.6589355.1411743-.9954224.1411743-.3392944,0-.6616821-.046875-.9679565-.1411743-.3248291-.1052856-.6002197-.2442017-.8144531-.414978-.2424927-.1821899-.4261475-.3972168-.5507812-.6555176-.1519775-.2478027-.2155151-.5380249-.2155151-.8623047,0-.305481.0635376-.5969238.2011108-.8735352.1201782-.2442017.3059692-.4767456.5534668-.6592407.2142334-.1864014.4872437-.3230591.8121338-.4300537.3059082-.0924072.6286621-.1378174.9819946-.1378174.3505859,0,.6870728.0612793,1.0119019.1529541.3062744.1055298.5675659.2468262.8123779.4303589.2142944.1829224.3977051.414856.5388184.6592407.1201172.2611694.1980591.5526123.1980591.8580933,0,.3242798-.0779419.614502-.1980591.8623047ZM322.6615601,19.6461792h1.3493652v-9.3620605h-1.3493652v1.7791138h-2.4083862v1.1060791h2.4083862v1.9973755h-2.4083862v1.1201172h2.4083862v3.359375ZM267.227478,19.8146362h5.9703369v4.8945312h1.3961792v-4.8945312h6.0443726v-1.1817627h-13.4108887v1.1817627ZM271.2485352,14.6281738c-.4309082.3049316-.8757935.552124-1.3513184.7374878-.4896851.1991577-.9676514.3525391-1.4291382.473938.1248169.1694336.2612915.3236084.3861084.4741821.1224365.1706543.2449951.3414917.383728.4922485,1.1043091-.2739258,2.0552368-.7057495,2.8815918-1.2861938.8029175-.5525513,1.414978-1.1965332,1.8128052-1.934021.1859131.3668213.4307861.7051392.7392578,1.0270996.3059692.3372192.6568604.6303101,1.071167.9069214.4003906.274353.8452148.5187378,1.3372192.7356567.472168.2289429.9781494.4144287,1.5338745.5505371.1246338-.1507568.2599487-.3215942.4001465-.4922485.1177979-.1505737.2424316-.3047485.3648682-.4741821-.5485229-.1378784-1.0582886-.3197632-1.5491333-.5358276-.489624-.1987915-.9358521-.4613037-1.3336792-.7680664-.416626-.2910767-.7697754-.6424561-1.0427856-1.0415649-.3060913-.4002686-.5227661-.859314-.6451416-1.4008179h3.8809204v-1.1959229h-9.5145874v1.1959229h3.8678589c-.1505737.5549927-.3977661,1.0458374-.7039185,1.4637451-.3248291.4260864-.6920166.7798462-1.0898438,1.071106ZM343.7932739,18.1589966c1.2241211-.3702393,2.2507324-.875061,3.0820312-1.5509033.8141479-.6456299,1.4122925-1.4277954,1.7949829-2.3317261.3533325.9198608.9547119,1.7025757,1.7797241,2.3475952.8144531.6599731,1.8411255,1.1647949,3.0841064,1.5350342.1387329-.1564331.277832-.3218384.4285278-.4926758.1246948-.1541138.2612915-.3052979.4165649-.4760132-.7980347-.2296753-1.520813-.5350342-2.1330566-.9348145-.6307983-.3688354-1.151001-.8002319-1.5819092-1.288208-.4261475-.4614868-.7497559-.967041-.9639893-1.5202026-.2328491-.5222168-.3401489-1.0753784-.3401489-1.6281128v-.6114502h-1.3937378v.6114502c0,.5527344-.1069946,1.0900879-.3239136,1.6114502-.2319336.5527344-.5507812,1.0582886-.9673462,1.5197144-.4308472.4931641-.9655151.9212036-1.579834,1.3053589-.6310425.3997803-1.3490601.7051392-2.1515503.9348145.1387329.1707153.2798462.3218994.4329834.4760132.1246948.1708374.2637329.3362427.4165649.4926758ZM326.6192017,19.5856934h5.9669189v5.1234741h1.3961182v-5.1234741h6.0490112v-1.1854858h-13.4120483v1.1854858ZM317.90979,17.512207c.4224854-.1511841.7943726-.3978271,1.1156616-.7210693.3062744-.3067017.5393677-.6762085.7215576-1.119812.1699219-.4281006.2592163-.9053345.2592163-1.4425659,0-.5209961-.0892944-1.0118408-.2592163-1.4584961-.1821899-.4279175-.4152832-.7982788-.7215576-1.1183472-.3212891-.3079224-.6931763-.5372925-1.1156616-.7210083-.43573-.1706543-.9088745-.2612915-1.4009399-.2612915-.5202026,0-.9816895.0906372-1.4102173.2612915-.430603.1837158-.8001099.4130859-1.1063232.7210083-.3203735.3200684-.5697021.6904297-.7344971,1.1183472-.185791.4466553-.2612915.9375-.2612915,1.4584961,0,.5372314.0755005,1.0144653.2612915,1.4425659.1647949.4436035.4141235.8131104.7344971,1.119812.3062134.3232422.6757202.5698853,1.1063232.7210693.4285278.1824341.8900146.2606812,1.4102173.2606812.4920654,0,.96521-.0782471,1.4009399-.2606812ZM314.9458008,15.9306641c-.4003296-.4108276-.6005249-.9805298-.6005249-1.7019043,0-.7199707.2001953-1.303894.614624-1.7317505.4003906-.4155273.9202881-.6308594,1.5633545-.6308594.6307983,0,1.1533813.215332,1.5537109.6308594.3964844.4278564.5966797,1.0117798.5966797,1.7317505,0,.7043457-.2001953,1.2741089-.5837402,1.7019043-.3991699.4313965-.921814.6474609-1.5666504.6474609-.6568604,0-1.1797485-.2160645-1.5774536-.6474609ZM316.5232544,19.4932251h-1.335022v4.8344727h8.9755249v-1.1984863h-7.6405029v-3.6359863ZM349.3457031,21.6385498v-3.4036255h-1.352356v3.4036255h-6.0268555v1.182312h13.4108276v-1.182312h-6.0316162ZM306.583374,17.9100952l-.1225586-1.1040649c-1.4395752.3083496-2.7601929.4629517-3.9561768.4629517v-.8327637c.3389282-.0299683.6593018-.1224365.9676514-.2418213.2753906-.1254272.5346069-.2773438.7533569-.4761963.2121582-.1871338.3814697-.4008179.5037231-.6431885.1082153-.2478027.1696167-.5244141.1696167-.8303833,0-.3513794-.0916748-.6729126-.2427368-.9653931-.1716919-.2771606-.3883667-.5089722-.6658325-.7056885-.2070923-.1311035-.43573-.2324219-.680542-.3237915h2.387146v-1.0422363h-3.1618042v-1.1506958h-1.3490601v1.1506958h-3.2238159v1.0422363h2.3577881c-.2334595.0925903-.4542847.1971436-.6427612.3237915-.2874146.1967163-.5142822.4285278-.6697998.7056885-.1696167.277832-.2471924.5961914-.2471924.9653931,0,.6460571.2283325,1.1375122.6907349,1.5018921.4593506.3835449,1.0383301.6155396,1.7823486.7081299v.8143311h-3.4892578v1.102478h3.6846924c1.9657593,0,3.6867676-.1519775,5.15448-.4613647ZM301.1535034,15.2879028c-.2142944-.0297852-.3989258-.107605-.5507812-.1994019-.1531372-.0776367-.2802124-.1855469-.369812-.3371582-.0941162-.1231689-.1387329-.2932129-.1387329-.5067139,0-.4009399.1692505-.7064819.5085449-.9199829.3364868-.1854858.7368774-.2913818,1.2097168-.2913818.4920654,0,.9064941.105896,1.2432861.2913818.3224487.213501.4896851.519043.4896851.9199829,0,.4141235-.1672363.7055054-.5064697.8603516-.3341064.1682739-.7509155.2437744-1.2265015.2437744-.244812,0-.4614868-.0166626-.6589355-.0608521ZM293.0158081,13.3546143h-1.6242065v-2.9128418h-1.2594604v6.902771h1.2594604v-2.7939453h1.6242065v3.4077759h1.2763062v-7.6742554h-1.2763062v3.0704956ZM308.6408691,10.2841187h-1.3535767v8.4099121h1.3535767v-3.7609253h2.2247314v-1.1935425h-2.2247314v-3.4554443ZM301.0027466,22.2994385h7.6381226v-3.0385742h-8.9776001v1.0435791h7.6240234v.9680176h-7.6240234v3.2070312h9.2095337v-1.0444946h-7.8700562v-1.1355591Z"/>
    <g>
      <path class="st3" d="M234.2872334,15.4021335l-5.2784454-.0275434.0233337-4.5525739-2.0177658-.0106144-.0587553,11.6131935,2.0177658.009111.0258596-5.2137064,5.2739651.0245064-.0236044,5.2176154,2.0180673.0116669.0587563-11.6136145-2.0180683-.0076376-.0211086,4.5495971ZM246.555876,18.1354579c-.1808966.9169316-.5403443,1.6287307-1.0676386,2.1160329-.5204385.4803562-1.1594701.7153774-1.9722117.7153774h0c-1.0900691-.0046607-1.8911138-.3522311-2.4525378-1.0689917-.5708345-.7254205-.8551994-1.8023506-.8457877-3.2036977.0071876-1.3173336.326552-2.3725837.9467001-3.1365831.6109168-.7517011,1.4142167-1.1199591,2.464355-1.1199591.7894079.005232,1.4400763.1925634,1.931107.5579649.4908203.368228.7882051.8749248.9161798,1.5510017l.0375277.2096428,1.9579576.0088103-.0398718-.2926038c-.1620732-1.1956434-.6787831-2.1495-1.5293819-2.8390479-.8456073-.6839851-1.9344748-1.0341415-3.2805245-1.0375694-1.6420514,0-2.9742091.5573635-3.9654417,1.6542896-.9890065,1.0983092-1.4928778,2.5887816-1.5022885,4.4335899-.0082099,1.8410497.4639373,3.336303,1.401346,4.4356346.9489553,1.1137047,2.2458117,1.6845393,3.8455557,1.6914251h.0376768c1.3554614,0,2.5017311-.4096333,3.4002903-1.2165716.9020172-.8082312,1.4659659-1.9430145,1.6725717-3.3664926l.0423375-.2912507-1.9579889-.0094417-.039932.20844ZM250.5881617,10.9329716l-.058605,11.6124418,2.0201721.009562.0587553-11.610367-2.0203225-.0116368Z"/>
      <path class="st3" d="M258.448623,5.8000011v18.0835238c0,2.4770443-2.0155099,4.4925858-4.4917122,4.4925858h-28.5402241c-2.4770743,0-4.4927963-2.0155415-4.4927963-4.4925858V5.8000011h-1.9238904v18.0835238c0,3.5375264,2.8777771,6.4164762,6.4166867,6.4164762h28.5402241c3.5378557,0,6.4156327-2.8789498,6.4156327-6.4164762V5.8000011h-1.9239205Z"/>
    </g>
  </g>
</svg>