<?xml version="1.0" encoding="UTF-8"?>
<svg id="_레이어_2" xmlns="http://www.w3.org/2000/svg" version="1.1" viewBox="0 0 382.7999878 35">
  <!-- Generator: Adobe Illustrator 29.6.1, SVG Export Plug-In . SVG Version: 2.1.1 Build 9)  -->
  <defs>
    <style>
      .st0 {
        fill: #231815;
      }

      .st1 {
        fill: #009e41;
      }

      .st2 {
        fill: #fff;
      }

      .st3 {
        fill: #f6ba81;
      }

      .st4 {
        fill: #f39e50;
      }

      .st5 {
        fill: #004097;
      }

      .st6 {
        fill: #333;
      }

      .st7 {
        fill: #e50012;
      }

      .st8 {
        fill: #ec7000;
      }
    </style>
  </defs>
  <rect class="st6" x=".8" y="3.5" width="39.9999992" height="28" rx="10" ry="10"/>
  <g>
    <path class="st2" d="M15.4560547,14.6660156c-.8110352,0-1.5073242.0742188-2.0893555.2236328-.5820312.1503906-1.0273438.3710938-1.3354492.6621094-.3085938.2919922-.4609375.6464844-.4580078,1.0615234-.0029297.4130859.1494141.7646484.4580078,1.0527344.3081055.2890625.753418.5087891,1.3354492.6601562s1.2783203.2265625,2.0893555.2265625c.8081055,0,1.5024414-.0751953,2.0830078-.2265625s1.0258789-.3710938,1.3354492-.6601562c.3095703-.2880859.4663086-.6396484.4692383-1.0527344-.0029297-.4150391-.159668-.7695312-.4692383-1.0615234-.3095703-.2910156-.7548828-.5117188-1.3354492-.6621094-.5805664-.1494141-1.2749023-.2236328-2.0830078-.2236328ZM17.8803711,16.6132812c-.0029297.1953125-.0966797.3574219-.2807617.4873047-.184082.1308594-.4550781.2294922-.8125.296875s-.8012695.0996094-1.3310547.0957031c-.5327148.0039062-.9785156-.0283203-1.3374023-.0957031-.359375-.0673828-.6293945-.1660156-.8105469-.296875-.1811523-.1298828-.2700195-.2919922-.2670898-.4873047-.0029297-.1972656.0859375-.3632812.2670898-.4980469s.4511719-.234375.8105469-.3007812c.3588867-.0654297.8046875-.0986328,1.3374023-.0986328.5297852,0,.9736328.0332031,1.3310547.0986328.3574219.0664062.628418.1660156.8125.3007812s.277832.3007812.2807617.4980469Z"/>
    <polygon class="st2" points="20.1245117 13.0048828 16.15625 13.0048828 16.15625 11.7431641 14.7558594 11.7431641 14.7558594 13.0048828 10.7519531 13.0048828 10.7519531 14.1445312 20.1245117 14.1445312 20.1245117 13.0048828"/>
    <polygon class="st2" points="10.2353516 20.3398438 14.7558594 20.3398438 14.7558594 23.2578125 16.15625 23.2578125 16.15625 20.3398438 20.7260742 20.3398438 20.7260742 19.1904297 10.2353516 19.1904297 10.2353516 20.3398438"/>
    <polygon class="st2" points="27.4326172 18.4814453 27.4326172 19.4599609 29.6816406 19.4599609 29.6816406 20.4648438 31.1000977 20.4648438 31.1000977 11.7832031 29.6816406 11.7832031 29.6816406 18.4814453 27.4326172 18.4814453"/>
    <polygon class="st2" points="24.3623047 21.8789062 24.3623047 19.6259766 22.9482422 19.6259766 22.9482422 21.8789062 22.9482422 22.1894531 22.9482422 23.0244141 31.3647461 23.0244141 31.3647461 21.8789062 24.3623047 21.8789062"/>
    <path class="st2" d="M23.6708984,15.9990234c.434082.1640625.9321289.2470703,1.4946289.2470703.5537109,0,1.046875-.0839844,1.4794922-.25.4321289-.1660156.7695312-.3994141,1.012207-.7021484.2421875-.3017578.3647461-.6552734.3681641-1.0595703-.003418-.3974609-.1259766-.7519531-.3681641-1.0615234-.2426758-.3095703-.5805664-.5488281-1.0146484-.7177734s-.9262695-.2539062-1.4770508-.2539062c-.5595703,0-1.0571289.0849609-1.4921875.2539062-.4355469.1689453-.7739258.4082031-1.0146484.7177734-.2412109.3095703-.3613281.6640625-.3613281,1.0615234,0,.4042969.1201172.7578125.3613281,1.0615234.2407227.3037109.578125.5380859,1.012207.703125ZM23.8256836,13.703125c.1274414-.1513672.3061523-.2666016.5366211-.3457031.2304688-.0800781.4980469-.1181641.8032227-.1152344.293457-.0029297.5546875.0351562.7836914.1152344.2285156.0791016.4067383.1943359.5341797.3457031.1269531.1503906.1918945.328125.1953125.53125-.003418.2070312-.0683594.3828125-.1953125.5273438-.1274414.1455078-.3056641.2578125-.5341797.3369141-.2290039.0791016-.4902344.1191406-.7836914.1191406-.3051758,0-.5727539-.0400391-.8032227-.1191406s-.4091797-.1914062-.5366211-.3369141c-.1269531-.1445312-.1894531-.3203125-.1860352-.5273438-.003418-.203125.059082-.3808594.1860352-.53125Z"/>
    <path class="st2" d="M24.5913086,18.0084229v2.1380615h1.418457v-2.2162476c.1604004-.0112915.3086548-.0129395.4711914-.0259399.84375-.0673828,1.6518555-.1650391,2.4238281-.2939453l-.0849609-1.0146484c-1.0537109.1347656-2.1616211.2236328-3.3242188.2675781-1.1625977.0429688-2.4829102.0693359-3.9614258.078125h-.1079102l.1708984,1.1269531c.8378906.0029297,1.6503906-.0068359,2.4375-.0292969.1790771-.005127.3746338-.0231934.5566406-.0306396Z"/>
  </g>
  <g>
    <g>
      <path d="M88.8281674,9.8999985c-2.5790179,0-4.6689957,1.9794967-4.6689957,4.4214608s2.0899778,4.4208135,4.6689957,4.4208135c2.5776893,0,4.6690001-1.9788494,4.6690001-4.4208135s-2.0913109-4.4214608-4.6690001-4.4214608ZM88.9173223,17.1666472c-1.1657585,0-2.1105887-1.2595806-2.1105887-2.8139139,0-1.5530047.9448302-2.8132326,2.1105887-2.8132326,1.1660991,0,2.1105887,1.2602279,2.1105887,2.8132326,0,1.5543333-.9444895,2.8139139-2.1105887,2.8139139Z"/>
      <rect x="117.3524398" y="22.5089887" width="12.1721754" height="2.1159374"/>
      <path d="M96.2109183,9.9778429c-.7548649.0758685-1.3600459.8669858-1.4368979,1.869731-.006307.0718485-.0093049.1443784-.0093049.2182369s.0093049,12.6076616.0093049,12.6076616h2.6984544v-12.5703917h1.7369696v-2.1618264s-2.8398393.0279354-2.8801072.0279354c-.0395865,0-.0788279.0039859-.1184189.0086532Z"/>
      <path d="M112.9213381,9.9778429c-.7538814.0758685-1.3590579.8669858-1.4369023,1.869731-.0053145.0718485-.0083125.1443784-.0083125.2182369,0,.0299454.000988,2.1072842.0029979,4.5672019h-1.9994895v-4.4913334h.9468354v-2.1159374h-9.2754092v2.1159374h.9145441v4.4913334h-.9145441v2.1159033h10.3290513c.0023166,3.020159.0043266,5.9245564.0043266,5.9245564h2.6981181v-12.5703917h1.7373102v-2.1618264s-2.8398393.0279354-2.8790851.0279354c-.0406036,0-.0798544.0039859-.1194409.0086532ZM106.7801801,16.6330126h-2.0161193v-4.4913334h2.0161193v4.4913334Z"/>
      <path d="M141.3491311,10.1022918h-.0695319v.016625c-.659412.1636607-1.1724016.8782963-1.2625785,1.7759088-.0049739.0512376-.0049739,2.161145-.0029979,4.0262087h-.9614552c0-1.7685843,0-4.0109124-.001022-4.0262087-.0239495-.3007486-.096786-.5815676-.2045758-.8303972-.2369059-.5429691-.6487489-.9288866-1.1338316-1.0193701-.0705199-.0133204-6.9539137,0-6.9539137,0v2.115256h5.5938623v3.7607201h-1.5034022v-2.7027855h-2.6984588v2.7027855h-1.650506v2.1159374h9.5153131c.000988.4378025.000988.7119443.000988.7119443h2.6984588v-6.5307209h1.8085115v-2.1159033s-3.10434-.0133204-3.1748598,0Z"/>
      <path d="M133.9776907,18.7249664h-2.6984588s-.0073245,3.5597895,0,3.6489444v.135078h.015637c.1337493,1.1205168.8137722,1.9948271,1.6641385,2.1159374.0179482.0026573.0352545.0033046.0532081.0046332.049909.0053486,9.9181963-.0046332,9.9181963-.0046332v-2.1159374h-8.9527211v-3.7840223Z"/>
      <path d="M163.7758583,18.4361756h-2.698465s-.0069839,3.8778785,0,3.9670333v.135078h.0156432c.0302459,1.0845755.7684903,1.948904,1.6185104,2.0699802.0179877.00201.1723479.0099818.1913235.0113104.0488932.0053486,9.4530717-.0113104,9.4530717-.0113104v-2.0699802h-8.5800838v-4.1021113Z"/>
      <path d="M176.8026809,19.5327428h-2.6994468s-.0073245,2.7813112,0,2.8704661v.135078h.015637c.1350779,1.1198354.8151009,1.9941458,1.6641331,2.1159033.0176129.00201,10.2016386,0,10.2016386,0v-2.1159033h-9.1819619v-3.0055441Z"/>
      <polygon points="173.8633643 16.7095284 173.8633643 18.8254317 179.1594759 18.8254317 179.1594759 21.4803182 181.8579348 21.4803182 181.8579348 18.8254317 186.2640991 18.8254317 186.2640991 16.7095284 173.8633643 16.7095284"/>
      <path d="M174.108242,13.6221541c.1080964,1.2602279.8140789,1.9954744,1.6644397,2.1159033.017647.0026573.0352599.0033386.0529069.0046673.03325.0039859,10.1839916,0,10.1839916,0v-.0046673l-.0029979-5.5872193h-11.9562551l.0425845,3.471316h.0153304ZM176.7910638,12.2667754h6.5200576v1.3553786h-6.5200576v-1.3553786Z"/>
      <rect x="169.4705203" y="10.1222213" width="2.6984588" height="8.6266946"/>
      <path d="M155.7992352,16.6522949h-6.8151792v-1.3846427h5.4581312l.0073305-5.174695h-8.1595998v2.1159033h5.461135v.9428543l-5.4651209.0039859s-.0073245,3.2723613,0,3.3615162v.135078h.0156428c.1347315,1.1191881.8137665,1.9948271,1.6641273,2.115256.0176129.0026573.2648073.0026573.2824543.0046673.0425845.0053145,6.0123825.0046332,7.5510788.0046332v5.867357h2.6984588v-14.6377487h-2.6984588v6.6458352Z"/>
      <path d="M119.3831741,18.7722182c.048921.0053145,9.1290549-.0006814,9.1290549-.0006814v-2.1192419h-8.1635798v-1.3467255h8.1635798v-2.1159033h-8.1635798v-1.0007351h8.1635798v-2.1538546l-10.8616979-.0059959s-.0073245,6.3989816,0,6.4881364c.0954914,1.2076957.8244013,2.1604977,1.732643,2.2550012Z"/>
      <path d="M164.2512651,14.5363916c1.0769102,2.1345382,2.2406587,3.0294936,4.3242999,3.2311055v-2.1345723c-2.2050581-.4331693-3.1778578-3.203136-3.1778578-5.5107035h-2.2915897c0,2.3075675-.9727656,5.0775342-2.951615,5.5107035v2.1345723c1.7712415-.1730292,3.0554189-.9521888,4.0967626-3.2311055Z"/>
    </g>
    <g>
      <path class="st1" d="M75.1482291,10.6618518h-1.0902306l-7.2579954,14.4381467h16.3521311l-8.003905-14.4381467ZM75.2097892,11.9287569l6.8800497,12.52314h-12.9975647l6.1175151-12.52314Z"/>
      <path class="st1" d="M76.1948873,19.2053874c0,.5063464-.4102077.9162135-.9165541.9162135-.5070278,0-.9169249-.409867-.9169249-.9162135,0-.5063805.4098971-.9169289.9169249-.9169289.5063464,0,.9165541.4105484.9165541.9169289Z"/>
    </g>
  </g>
  <g>
    <path class="st3" d="M225.6197274,17.9771582c-.4880041-4.4238929,4.1464623-7.9711677,10.3499963-7.9212851,6.1997194.0489864,11.6261525,3.670398,12.1107,8.0864052.4850851,4.4259241-4.1432873,7.9677028-10.3485625,7.9187163-6.202032-.0425943-11.6261525-3.6678292-12.1121337-8.0838364M249.2340541,19.3478821c-.5600583-5.4836128-6.8006307-9.9745932-13.9413587-10.0340938-7.1427591-.0580668-12.4732593,4.3395407-11.9111699,9.8199873.5589232,5.4833141,6.8021242,9.9754296,13.9419561,10.0349302,7.1375706.0565734,12.4747528-4.3387043,11.9105725-9.8208236"/>
    <path class="st4" d="M238.4570395,29.2771928c-3.5158517,3.6789407-9.1610598,3.9822982-12.6074343.6820464-3.4452395-3.2985193-3.3886662-8.9492833.1321439-12.6226085,3.5187276-3.6733849,9.1639273-3.9784748,12.6062396-.6819867,3.4429097,3.2993556,3.3877701,8.9518521-.1309491,12.6225488M225.4280829,17.220497c-4.0883955,4.2683909-4.1549371,10.8392037-.1519774,14.6732283,4.0058952,3.8323519,10.5684638,3.4788132,14.6531044-.7928036,4.0913738-4.269287,4.1592976-10.8400401.1519687-14.6738257-4.0020718-3.8314558-10.5655366-3.4779171-14.6530957.793401"/>
    <path class="st8" d="M225.8011564,3.4672578c7.3151675-2.7392973,14.5460424.0329762,16.1541713,6.1930199,1.6101601,6.1621346-3.016429,13.379867-10.3321939,16.1177306-7.3151675,2.7454505-14.5463411-.0308853-16.1541713-6.1903914-1.6081289-6.1588489,3.0205511-13.3766411,10.3321939-16.1203592M219.0090168,5.8230272c-7.5887828,6.0066325-9.519565,14.7149265-4.3145178,19.4421769,5.2044497,4.730775,15.5745782,3.6929198,23.1639502-2.3131154,7.5882369-6.0069312,9.5209906-14.7114616,4.3154058-19.4419379-5.2079744-4.7289828-15.5781029-3.6963847-23.1648382,2.3128764"/>
    <g>
      <path class="st0" d="M263.0721829,13.8251399h-8.7054262v-1.3910952h8.7054262v1.3910952ZM258.7194399,19.9411556c-1.1002233,0-1.9963165-.277072-2.6858901-.8324706-.6904697-.555996-1.0361227-1.2216738-1.0361227-1.9987061,0-.7657416.345653-1.4261025,1.0361227-1.9823972.6895736-.5556973,1.5856668-.833068,2.6858901-.833068,1.1000532,0,1.9955491.2773707,2.6859498.833068.6898723.5562947,1.0355253,1.2166557,1.0355253,1.9823972,0,.7770323-.345653,1.4427101-1.0355253,1.9987061-.6904007.5553986-1.5858966.8324706-2.6859498.8324706ZM259.3830865,23.1451669h7.5231806v1.4894265h-7.9927932c-1.725995,0-2.589112-.8039151-2.589112-2.4117454v-1.5530491h1.9415353v1.3272336c0,.7654429.3724761,1.1481344,1.1171893,1.1481344ZM256.4862561,10.5242908h4.4658989v1.4080612h-4.4658989v-1.4080612ZM258.7194399,18.5824393c.5067109,0,.9407784-.1400295,1.3024416-.4206262.3608269-.2805967.5422559-.6312081.5422559-1.0518343,0-.4101718-.181429-.7552274-.5422559-1.0355254-.3616632-.280059-.7957308-.4206262-1.3024416-.4206262-.5075381,0-.941555.1405672-1.3026715.4206262-.3614243.280298-.5419663.6253536-.5419663,1.0355254,0,.4206262.180542.7712376.5419663,1.0518343.3611164.2805967.7951334.4206262,1.3026715.4206262ZM266.8420471,14.3265937h2.0068904v1.5212079h-2.0068904v4.9025262h-1.9251667v-9.9830165h1.9251667v3.5592824Z"/>
      <path class="st0" d="M273.8964514,19.8606864c-.6907087-.1184635-1.2781874-.3774942-1.7635712-.7765544-.668605-.5500818-1.0034452-1.2081727-1.0034452-1.9741532,0-.7657416.3453543-1.4261025,1.0361227-1.9823972.6895736-.5556973,1.5850694-.833068,2.6864875-.833068,1.0997454,0,1.9952412.2773707,2.6853525.833068.690171.5562947,1.035535,1.2166557,1.035535,1.9823972,0,.7659805-.3348498,1.4240714-1.0033951,1.9741532-.474332.388546-1.051894.6475767-1.7315508.7765544v1.4730578h2.152177c1.942073,0,2.9128407-.750269,2.9128407-2.2496122v-8.3168207h1.9258238v4.6598641h2.006293v1.5372181h-2.006293v7.7028773h-1.9258238v-2.6060781c-.5822216.5180614-1.4456373.7770921-2.5890523.7770921h-8.1546873v-1.5045406h3.7371867v-1.4730578ZM279.171523,13.8251399h-8.7054359v-1.3910952h8.7054359v1.3910952ZM272.6182641,10.5242908h4.4658897v1.4080612h-4.4658897v-1.4080612ZM274.8520453,18.5824393c.5064122,0,.9404797-.1400295,1.3021429-.4206262.3605282-.2805967.5419572-.6312081.5419572-1.0518343,0-.4101718-.181429-.7552274-.5419572-1.0355254-.3616632-.280059-.7957308-.4206262-1.3021429-.4206262-.5081446,0-.9421524.1405672-1.303278.4206262-.361723.280298-.5419572.6253536-.5419572,1.0355254,0,.4206262.1802342.7712376.5419572,1.0518343.3611256.2805967.7951334.4206262,1.303278.4206262Z"/>
      <path class="st0" d="M294.462269,21.4789711h-5.1939356c-1.7157796,0-2.5733408-.8517068-2.5733408-2.5569722v-7.9280357h1.9094054v3.3656068h3.964187v-3.3656068h1.893684v10.4850079ZM292.568585,19.9744305v-4.1426988h-3.964187v2.9770607c0,.7770921.3506712,1.1656381,1.0518841,1.1656381h2.912303ZM296.8407394,24.6672709v-13.8999596h1.9415353v13.8999596h-1.9415353Z"/>
      <path class="st0" d="M305.8052066,16.3011053c-.2596384.4637581-.5775723.8733325-.9556042,1.2294997-1.0349176.9818195-2.2320488,1.5804098-3.5919598,1.7962488v-1.4727591c.9171216-.2050859,1.7204393-.7278069,2.4111479-1.5690593.7123344-.8742286,1.100283-2.1466213,1.165051-3.8189105h-3.2524106v-1.4721617h8.4463956v1.4721617h-3.2524496c.0647473,1.6722892.4532933,2.9446819,1.1650303,3.8189105.6907684.8412523,1.4940861,1.3639734,2.4112077,1.5690593v1.4727591c-1.3593033-.215839-2.5564345-.8144293-3.5919598-1.7962488-.3774942-.3561672-.6954281-.7657416-.9544484-1.2294997ZM306.9212505,23.1293957h7.5240169v1.5051977h-7.9936789c-1.725647,0-2.5890627-.8039151-2.5890627-2.4117454v-2.1515796h1.9426807v1.9094552c0,.7659805.3716294,1.1486721,1.1160439,1.1486721ZM312.3579079,10.7673113h1.9257641v9.9830165h-1.9257641v-5.4045774h-3.1556222v-1.5206105h3.1556222v-3.0578286Z"/>
    </g>
  </g>
  <g>
    <path class="st5" d="M377.4604436,27.6000004c.7564339,0,1.4950099-.6141302,1.6489017-1.3689221l3.2327535-17.4403955c.1537238-.7558928-.3338334-1.3670934-1.0255906-1.3670934h-35.5366271c-.8205882,0-1.5566077.6112006-1.7111339,1.3670934l-3.5558572,17.4403955c-.1526229.7547918.33402,1.3689221,1.0898195,1.3689221h35.8577341Z"/>
    <path class="st2" d="M357.0757647,14.5854068l-1.3843168,6.7510661s-.9423095,3.8851561,4.1713309,3.8851561c0,0,4.4967858.1547128,5.7425124-3.4261119l.4083814-1.9935954h-3.5061087l-.3256415,1.5844862s-.3442272,1.3298287-1.7851221,1.2282418c0,0-1.4928267.1532387-1.1677263-1.0742567l1.4262279-6.9549862s.0397278-1.150055,1.6492749-1.2787927c0,0,1.4614773,0,1.3043946,1.1261884l-.3568042,1.7378182h3.5058288l.3571588-1.7378182s.6918505-3.7334476-4.2972509-3.6299387c0,0-4.7895478.2039201-5.7421392,3.7825429Z"/>
    <path class="st2" d="M367.7543271,14.5854068l-1.3831226,6.7510661s-.9436717,3.8851561,4.1706965,3.8851561c0,0,4.4979801.1547128,5.7429789-3.4261119l.4075603-1.9935954h-3.5043733l-.3256415,1.5844862s-.3453281,1.3298287-1.7867642,1.2282418c0,0-1.4918377.1532387-1.1682862-1.0742567l1.4274035-6.9549862s.0406422-1.150055,1.6490883-1.2787927c0,0,1.4609362,0,1.3045066,1.1261884l-.3570841,1.7378182h3.5060154l.3568042-1.7378182s.6925596-3.7334476-4.2957021-3.6299387c0,0-4.7903688.2039201-5.7440798,3.7825429Z"/>
    <g>
      <polyline class="st2" points="361.9220585 7.4252316 357.8619805 7.4235895 350.6938933 15.2361486 351.8342823 10.1430158 348.1326506 10.1386493 344.9615695 24.8622682 348.6653098 24.8622682 349.5214272 20.752703 350.4792248 19.6491309 351.7531845 24.8649926 355.4251276 24.8649926 353.2932964 16.8487 361.9220585 7.4252316"/>
      <polygon class="st7" points="364.6002083 4.5015492 360.5307441 4.5000004 357.8619805 7.4235895 361.9186064 7.4199507 364.6002083 4.5015492"/>
    </g>
  </g>
</svg>