<?xml version="1.0" encoding="UTF-8"?>
<svg id="_레이어_2" data-name="레이어 2" xmlns="http://www.w3.org/2000/svg" xmlns:xlink="http://www.w3.org/1999/xlink" viewBox="0 0 331.67 35">
  <defs>
    <style>
      .cls-1 {
        fill: #3e3a39;
      }

      .cls-2 {
        fill: #0c9268;
      }

      .cls-3 {
        fill: none;
      }

      .cls-4 {
        clip-path: url(#clippath-1);
      }

      .cls-5 {
        fill: #333;
        opacity: .95;
      }

      .cls-6 {
        fill: #44af35;
      }

      .cls-7 {
        clip-path: url(#clippath);
      }

      .cls-8 {
        fill: #3d3a39;
      }
    </style>
    <clipPath id="clippath">
      <rect class="cls-3" width="20" height="35"/>
    </clipPath>
    <clipPath id="clippath-1">
      <rect class="cls-3" x="154.27" y="0" width="136.27" height="35"/>
    </clipPath>
  </defs>
  <g id="art">
    <g>
      <rect class="cls-3" y="0" width="331.67" height="35"/>
      <g class="cls-7">
        <g>
          <path class="cls-5" d="M4.29,7.86c-.07.11-.2.21-.4.32l-2.51,1.46.71,1.19,2.46-1.47c.24-.14.43-.29.6-.44.16.16.35.31.59.44l2.47,1.47.69-1.19-2.5-1.46c-.2-.11-.33-.22-.41-.32-.07-.11-.11-.21-.11-.3v-.07h2.66v-1.2H1.74v1.2h2.65v.07c0,.1-.04.2-.11.3Z"/>
          <polygon class="cls-5" points=".69 12.57 4.41 12.57 4.41 15.87 5.87 15.87 5.87 12.57 9.64 12.57 9.64 11.4 .69 11.4 .69 12.57"/>
          <rect class="cls-5" x="17.02" y="5.93" width="1.47" height="9.61"/>
          <polygon class="cls-5" points="16.45 12.59 14.2 12.59 14.2 11.34 12.72 11.34 12.72 12.59 10.32 12.59 10.32 13.77 16.45 13.77 16.45 12.59"/>
          <path class="cls-5" d="M12.32,8.91l-1.9,1.8.94.98,1.87-1.79c.1-.09.17-.17.25-.26.08.09.16.18.26.27l1.88,1.78.95-.98-1.93-1.83c-.17-.13-.28-.26-.34-.38-.03-.06-.03-.13-.04-.2h2.11v-1.2h-2.16v-1.06h-1.45v1.06h-2.14v1.2h2.09c-.01.06-.01.12-.04.17-.06.12-.18.27-.35.43Z"/>
          <path class="cls-5" d="M4.29,21.06c-.07.11-.2.21-.4.32l-2.51,1.46.71,1.19,2.46-1.47c.24-.14.43-.29.6-.44.16.16.35.31.59.44l2.47,1.47.69-1.19-2.5-1.46c-.2-.11-.33-.22-.41-.32-.07-.11-.11-.21-.11-.3v-.07h2.66v-1.2H1.74v1.2h2.65v.07c0,.1-.04.2-.11.3Z"/>
          <polygon class="cls-5" points=".69 25.77 4.41 25.77 4.41 29.07 5.87 29.07 5.87 25.77 9.64 25.77 9.64 24.6 .69 24.6 .69 25.77"/>
          <polygon class="cls-5" points="13.36 25.89 11.9 25.89 11.9 27.71 11.9 28.07 11.9 28.87 18.5 28.87 18.5 27.71 13.36 27.71 13.36 25.89"/>
          <polygon class="cls-5" points="15.64 23.3 15.64 19.69 15.02 19.69 14.16 19.69 10.73 19.69 10.73 20.89 14.16 20.89 14.16 23.3 15.64 23.3"/>
          <polygon class="cls-5" points="18.16 22.15 18.16 19.14 16.67 19.14 16.67 26.27 18.16 26.27 18.16 23.34 19.31 23.34 19.31 22.15 18.16 22.15"/>
          <polygon class="cls-5" points="16.1 23.89 13.23 23.89 13.23 22.16 11.78 22.16 11.78 23.89 10.18 23.89 10.18 25.08 16.1 25.08 16.1 23.89"/>
        </g>
      </g>
      <g class="cls-4">
        <g>
          <path class="cls-1" d="M227.82,19.13c-.37-.28-.78-.49-1.24-.64-.49-.15-.99-.23-1.52-.23s-1.04.08-1.51.21c-.48.15-.89.38-1.22.66-.37.29-.64.63-.84,1.03-.21.41-.31.87-.31,1.38s.09.95.31,1.35c.2.4.47.75.83,1.04.34.28.75.49,1.22.65.46.15.97.23,1.52.23s1.04-.08,1.53-.23c.46-.16.87-.38,1.24-.66.34-.29.61-.65.83-1.04.2-.4.31-.84.31-1.33s-.11-.95-.31-1.36c-.21-.4-.49-.75-.84-1.04ZM227.42,22.4c-.14.26-.32.47-.55.66-.25.17-.51.31-.82.41-.32.09-.66.14-.99.14s-.66-.05-.97-.14c-.32-.11-.6-.24-.81-.41-.24-.18-.43-.4-.55-.66-.15-.25-.22-.54-.22-.86,0-.31.06-.6.2-.87.12-.24.31-.48.55-.66.21-.19.49-.32.81-.43.31-.09.63-.14.98-.14s.69.06,1.01.15c.31.11.57.25.81.43.21.18.4.41.54.66.12.26.2.55.2.86,0,.32-.08.61-.2.86ZM223.75,17.37c.15-.14.31-.29.46-.44.15-.15.3-.29.46-.44-.46-.28-.89-.58-1.26-.92-.38-.34-.7-.69-.97-1.09-.27-.37-.47-.77-.61-1.2-.15-.42-.21-.83-.21-1.26v-1.39h-1.32v1.39c0,.46-.08.91-.21,1.34-.15.46-.37.89-.63,1.29-.27.41-.6.8-.96,1.15-.4.37-.83.71-1.29,1,.16.15.31.29.46.44.15.15.31.31.46.44.65-.38,1.21-.86,1.73-1.44.51-.55.87-1.15,1.12-1.78.27.58.65,1.13,1.14,1.62.48.51,1.03.94,1.64,1.29ZM206.48,14.58c-.43.3-.88.55-1.35.74-.49.2-.97.35-1.43.47.12.17.26.32.39.47.12.17.24.34.38.49,1.1-.27,2.05-.71,2.88-1.29.8-.55,1.41-1.2,1.81-1.93.19.37.43.7.74,1.03.31.34.66.63,1.07.91.4.27.84.52,1.34.74.47.23.98.41,1.53.55.12-.15.26-.32.4-.49.12-.15.24-.3.36-.47-.55-.14-1.06-.32-1.55-.54-.49-.2-.94-.46-1.33-.77-.42-.29-.77-.64-1.04-1.04-.31-.4-.52-.86-.64-1.4h3.88v-1.19h-9.51v1.19h3.86c-.15.55-.4,1.04-.7,1.46-.32.43-.69.78-1.09,1.07ZM202.46,19.76h5.97v4.89h1.39v-4.89h6.04v-1.18h-13.4v1.18ZM278.96,18.11c1.22-.37,2.25-.87,3.08-1.55.81-.65,1.41-1.43,1.79-2.33.35.92.95,1.7,1.78,2.35.81.66,1.84,1.16,3.08,1.53.14-.16.28-.32.43-.49.12-.15.26-.31.42-.48-.8-.23-1.52-.53-2.13-.93-.63-.37-1.15-.8-1.58-1.29-.43-.46-.75-.97-.96-1.52-.23-.52-.34-1.07-.34-1.63v-.61h-1.39v.61c0,.55-.11,1.09-.32,1.61-.23.55-.55,1.06-.97,1.52-.43.49-.96.92-1.58,1.3-.63.4-1.35.7-2.15.93.14.17.28.32.43.48.12.17.26.34.42.49ZM271.64,14.44c-.09.8-.2,1.58-.33,2.35l1.28.12c.34-1.56.51-3.57.51-6.06h-9.13v1.19h7.78c0,.83-.04,1.63-.11,2.39ZM257.85,19.59h1.35v-9.35h-1.35v1.78h-2.41v1.11h2.41v2h-2.41v1.12h2.41v3.36ZM241.78,17.86l-.12-1.1c-1.44.31-2.76.46-3.95.46v-.83c.34-.03.66-.12.97-.24.27-.13.53-.28.75-.48.21-.19.38-.4.5-.64.11-.25.17-.52.17-.83,0-.35-.09-.67-.24-.96-.17-.28-.39-.51-.67-.71-.21-.13-.44-.23-.68-.32h2.39v-1.04h-3.16v-1.15h-1.35v1.15h-3.22v1.04h2.36c-.23.09-.45.2-.64.32-.29.2-.51.43-.67.71-.17.28-.25.6-.25.96,0,.65.23,1.14.69,1.5.46.38,1.04.62,1.78.71v.81h-3.49v1.1h3.68c1.96,0,3.68-.15,5.15-.46ZM236.36,15.24c-.21-.03-.4-.11-.55-.2-.15-.08-.28-.19-.37-.34-.09-.12-.14-.29-.14-.51,0-.4.17-.71.51-.92.34-.19.74-.29,1.21-.29s.91.11,1.24.29c.32.21.49.52.49.92s-.17.7-.51.86c-.33.17-.75.24-1.23.24-.24,0-.46-.02-.66-.06ZM261.8,19.53h5.96v5.12h1.39v-5.12h6.04v-1.18h-13.4v1.18ZM243.84,10.24h-1.35v8.4h1.35v-3.76h2.22v-1.19h-2.22v-3.45ZM253.1,17.46c.42-.15.79-.4,1.11-.72.31-.31.54-.68.72-1.12.17-.43.26-.9.26-1.44s-.09-1.01-.26-1.46c-.18-.43-.41-.8-.72-1.12-.32-.31-.69-.54-1.11-.72-.44-.17-.91-.26-1.4-.26-.52,0-.98.09-1.41.26-.43.18-.8.41-1.11.72-.32.32-.57.69-.73,1.12-.19.45-.26.94-.26,1.46s.08,1.01.26,1.44c.17.44.41.81.73,1.12.31.32.68.57,1.11.72.43.18.89.26,1.41.26.49,0,.96-.08,1.4-.26ZM250.14,15.88c-.4-.41-.6-.98-.6-1.7s.2-1.3.61-1.73c.4-.42.92-.63,1.56-.63s1.15.22,1.55.63c.4.43.6,1.01.6,1.73s-.2,1.27-.58,1.7c-.4.43-.92.65-1.56.65s-1.18-.22-1.58-.65ZM284.51,21.59v-3.4h-1.35v3.4h-6.02v1.18h13.4v-1.18h-6.03ZM228.23,13.31h-1.62v-2.91h-1.26v6.9h1.26v-2.79h1.62v3.41h1.27v-7.67h-1.27v3.07ZM251.72,19.44h-1.33v4.83h8.97v-1.2h-7.63v-3.63ZM236.21,22.25h7.63v-3.04h-8.97v1.04h7.62v.97h-7.62v3.2h9.2v-1.04h-7.86v-1.13Z"/>
          <g>
            <path class="cls-6" d="M169.55,15.35l-5.27-.03.02-4.55h-2.02s-.06,11.59-.06,11.59h2.02s.03-5.2.03-5.2l5.27.02-.02,5.21h2.02s.06-11.59.06-11.59h-2.02s-.02,4.54-.02,4.54ZM181.81,18.09c-.18.92-.54,1.63-1.07,2.11-.52.48-1.16.71-1.97.71h0c-1.09,0-1.89-.35-2.45-1.07-.57-.72-.85-1.8-.85-3.2,0-1.32.33-2.37.95-3.13.61-.75,1.41-1.12,2.46-1.12.79,0,1.44.19,1.93.56.49.37.79.87.92,1.55l.04.21h1.96s-.04-.28-.04-.28c-.16-1.19-.68-2.15-1.53-2.84-.84-.68-1.93-1.03-3.28-1.04-1.64,0-2.97.56-3.96,1.65-.99,1.1-1.49,2.59-1.5,4.43,0,1.84.46,3.33,1.4,4.43.95,1.11,2.24,1.68,3.84,1.69h.04c1.35,0,2.5-.41,3.4-1.22.9-.81,1.46-1.94,1.67-3.36l.04-.29h-1.96s-.04.2-.04.2ZM185.83,10.89l-.06,11.6h2.02s.06-11.59.06-11.59h-2.02Z"/>
            <path class="cls-6" d="M193.69,5.76v18.07c0,2.48-2.01,4.49-4.49,4.49h-28.52c-2.48,0-4.49-2.01-4.49-4.49V5.76h-1.92v18.07c0,3.53,2.88,6.41,6.41,6.41h28.52c3.53,0,6.41-2.88,6.41-6.41V5.76h-1.92Z"/>
          </g>
        </g>
      </g>
      <g>
        <g>
          <path class="cls-2" d="M69.77,14.16c.45,0,.79.15,1.03.45.24.3.36.71.36,1.22,0,.93-.18,1.66-.54,2.19-.36.53-.9.91-1.61,1.15-1.37.45-2.84.68-4.39.68-1.31,0-2.55-.18-3.72-.54-.87,1.41-1.82,2.87-2.87,4.38-1.19,1.72-2.22,2.89-3.07,3.52-.85.63-1.81.95-2.89.95-1.19,0-2.1-.47-2.71-1.4-.61-.93-.99-2.47-1.14-4.6l-.22-3.3c-.93,2.53-1.75,4.45-2.49,5.78-.73,1.32-1.46,2.24-2.19,2.75-.73.51-1.59.77-2.58.77-1.22,0-2.19-.48-2.89-1.44-.7-.96-1.14-2.48-1.32-4.56-.36-4.21-.54-7.9-.54-11.06v-1.58c.03-.99.3-1.69.81-2.08.51-.39,1.27-.59,2.28-.59.78,0,1.35.17,1.72.52.37.35.56.93.56,1.74,0,3.24.18,7.4.55,12.46.02.28.4.35.51.1,1.86-4.02,3.58-8.19,5.16-12.52.33-.9.72-1.51,1.19-1.83.46-.32,1.02-.47,1.68-.47.81,0,1.37.17,1.68.5.31.33.47.92.47,1.76,0,3.3.19,7.54.57,12.72.02.25.35.35.49.13,1.58-2.38,2.78-4.3,3.6-5.76-.45-.87-.67-1.91-.67-3.11,0-1.02.22-2.02.67-2.98.45-.96,1.06-1.74,1.84-2.35.49-.38,1.06-.65,1.66-.79,1.33-.3,2.36-.02,3.08.81.54.62.81,1.51.81,2.69,0,1.35-.36,2.9-1.07,4.65,1.13-.06,2.64-.29,4.52-.68l1.21-.23c.09-.03.24-.05.45-.05Z"/>
          <g>
            <g>
              <path class="cls-8" d="M79.65,13.67c0-2.28,1.95-3.9,4.4-3.9s4.38,1.62,4.38,3.9-1.95,3.92-4.38,3.92-4.4-1.62-4.4-3.92ZM81.37,13.67c0,1.41,1.18,2.3,2.67,2.3s2.66-.89,2.66-2.3-1.18-2.28-2.66-2.28-2.67.89-2.67,2.28Z"/>
              <polygon class="cls-8" points="83.17 25.49 83.17 20.7 76.48 20.7 76.48 19.08 91.59 19.08 91.59 20.7 84.91 20.7 84.91 25.49 83.17 25.49"/>
            </g>
            <g>
              <path class="cls-8" d="M102.67,19.37s-6.25,0-7.12,0v-3.04h5.83v-5.7h-7.56v1.6h5.83v2.52h-5.83v6.22h8.85v-1.6Z"/>
              <rect class="cls-8" x="104.24" y="9.51" width="1.74" height="15.98"/>
            </g>
            <g>
              <path class="cls-8" d="M134.96,19.37s-6.25,0-7.12,0v-3.04h5.83v-5.7h-7.56v1.6h5.83v2.52h-5.83v6.22h8.85v-1.6Z"/>
              <rect class="cls-8" x="136.53" y="9.51" width="1.74" height="15.98"/>
            </g>
            <g>
              <polygon class="cls-8" points="111.43 25.23 111.43 20.19 113.17 20.19 113.17 23.61 122.27 23.61 122.27 25.23 111.43 25.23"/>
              <polygon class="cls-8" points="120.1 21.32 120.1 9.51 121.84 9.51 121.84 14.86 124.48 14.86 124.48 16.48 121.84 16.48 121.84 21.32 120.1 21.32"/>
              <polygon class="cls-8" points="115.99 16.13 117.73 16.13 117.73 10.22 109.75 10.22 109.75 11.82 115.99 11.82 115.99 16.13"/>
              <polygon class="cls-8" points="118.93 17.43 113.55 17.43 113.55 14.03 111.81 14.03 111.81 17.43 108.83 17.43 108.83 19.03 118.93 19.03 118.93 17.43"/>
            </g>
          </g>
        </g>
        <rect class="cls-3" x="36" y="0" width="102.27" height="35"/>
      </g>
    </g>
  </g>
</svg>