<?xml version="1.0" encoding="UTF-8"?>
<svg id="_레이어_2" data-name="레이어 2" xmlns="http://www.w3.org/2000/svg" xmlns:xlink="http://www.w3.org/1999/xlink" viewBox="0 0 380 35">
  <defs>
    <style>
      .cls-1 {
        fill: #231815;
      }

      .cls-2 {
        fill: #009e41;
      }

      .cls-3 {
        fill: #fff;
      }

      .cls-4 {
        fill: #f6ba81;
      }

      .cls-5 {
        fill: none;
      }

      .cls-6 {
        fill: #f39e50;
      }

      .cls-7 {
        fill: #004097;
      }

      .cls-8 {
        fill: #333;
        opacity: .95;
      }

      .cls-9 {
        fill: #e50012;
      }

      .cls-10 {
        fill: #ec7000;
      }

      .cls-11 {
        clip-path: url(#clippath);
      }
    </style>
    <clipPath id="clippath">
      <rect class="cls-5" y="0" width="20.01" height="35"/>
    </clipPath>
  </defs>
  <g id="art">
    <g>
      <rect class="cls-5" width="380" height="35"/>
      <g>
        <path class="cls-7" d="M374.76,27.58c.76,0,1.49-.61,1.65-1.37l3.23-17.42c.15-.76-.33-1.37-1.03-1.37h-35.53c-.82,0-1.56.61-1.71,1.37l-3.56,17.42c-.15.75.33,1.37,1.09,1.37h35.85Z"/>
        <path class="cls-3" d="M354.38,14.58l-1.38,6.74s-.94,3.88,4.17,3.88c0,0,4.5.15,5.74-3.42l.41-1.99h-3.51l-.33,1.58s-.34,1.33-1.78,1.23c0,0-1.49.15-1.17-1.07l1.43-6.95s.04-1.15,1.65-1.28c0,0,1.46,0,1.3,1.13l-.36,1.74h3.51l.36-1.74s.69-3.73-4.3-3.63c0,0-4.79.2-5.74,3.78Z"/>
        <path class="cls-3" d="M365.06,14.58l-1.38,6.74s-.94,3.88,4.17,3.88c0,0,4.5.15,5.74-3.42l.41-1.99h-3.5l-.33,1.58s-.35,1.33-1.79,1.23c0,0-1.49.15-1.17-1.07l1.43-6.95s.04-1.15,1.65-1.28c0,0,1.46,0,1.3,1.13l-.36,1.74h3.51l.36-1.74s.69-3.73-4.29-3.63c0,0-4.79.2-5.74,3.78Z"/>
        <g>
          <polyline class="cls-3" points="359.23 7.42 355.17 7.42 348 15.23 349.14 10.14 345.44 10.13 342.27 24.84 345.97 24.84 346.83 20.74 347.79 19.64 349.06 24.85 352.73 24.85 350.6 16.84 359.23 7.42"/>
          <polygon class="cls-9" points="361.91 4.5 357.84 4.5 355.17 7.42 359.22 7.42 361.91 4.5"/>
        </g>
        <rect class="cls-5" x="337.8" y="0" width="41.88" height="35"/>
      </g>
      <g class="cls-11">
        <g>
          <path class="cls-8" d="M3.1,14.84c-.28.37-.42.78-.42,1.24s.12.87.35,1.24c.23.36.56.65.99.85.43.21.9.31,1.43.31s1.04-.1,1.47-.31c.43-.21.76-.49,1-.85.24-.36.36-.78.36-1.24s-.14-.87-.42-1.24c0,0-.01-.01-.02-.02h1.17v-1.19h-2.82v-1.11h-1.41v1.11H1.94v1.19h1.17s-.01.01-.02.02ZM6.47,16.97c-.25.22-.59.33-1.01.33s-.73-.11-.97-.33c-.24-.22-.36-.52-.36-.89s.12-.68.36-.91.56-.34.97-.34.75.11,1.01.34.38.53.38.91-.13.67-.38.89Z"/>
          <polygon class="cls-8" points="1.02 20.15 4.76 20.15 4.76 22.48 6.24 22.48 6.24 20.15 9.99 20.15 9.99 18.98 1.02 18.98 1.02 20.15"/>
          <polygon class="cls-8" points="15.58 18.53 15.58 19.52 17.44 19.52 17.44 20.17 18.91 20.17 18.91 12.57 17.44 12.57 17.44 18.53 15.58 18.53"/>
          <path class="cls-8" d="M12.4,16.24c.38.16.82.24,1.3.24s.92-.08,1.29-.24c.38-.16.67-.39.89-.68s.32-.63.32-1.02-.11-.71-.32-1c-.21-.29-.51-.52-.89-.69s-.81-.25-1.3-.25-.92.08-1.3.25-.68.39-.89.69c-.21.29-.31.63-.31,1.01s.11.72.32,1.02.51.52.89.68ZM12.88,13.96c.2-.14.47-.21.81-.21s.62.07.82.21.3.33.3.57-.1.43-.3.57-.47.21-.81.21-.62-.07-.82-.21c-.2-.14-.3-.33-.3-.57s.1-.43.3-.57Z"/>
          <polygon class="cls-8" points="13.52 21.14 13.52 19.75 14.65 19.75 14.65 18.02 16.85 18.02 16.85 16.83 10.77 16.83 10.77 18.02 13.17 18.02 13.17 19.54 12.07 19.54 12.07 21.14 12.07 21.48 12.07 22.3 18.99 22.3 18.99 21.14 13.52 21.14"/>
        </g>
      </g>
      <g>
        <g>
          <path class="cls-4" d="M216.85,17.93c-.49-4.43,4.15-7.98,10.36-7.93,6.21.05,11.64,3.67,12.13,8.09.49,4.43-4.15,7.97-10.36,7.92-6.21-.04-11.64-3.67-12.13-8.09M240.49,19.3c-.56-5.49-6.81-9.98-13.96-10.04-7.15-.06-12.49,4.34-11.93,9.83.56,5.49,6.81,9.98,13.96,10.04,7.15.06,12.49-4.34,11.93-9.83"/>
          <path class="cls-6" d="M229.7,29.24c-3.52,3.68-9.17,3.99-12.63.68-3.45-3.3-3.39-8.96.13-12.63,3.52-3.68,9.18-3.98,12.62-.68,3.45,3.3,3.39,8.96-.13,12.63M216.65,17.17c-4.09,4.27-4.16,10.85-.15,14.68,4.01,3.84,10.58,3.48,14.67-.79,4.1-4.27,4.17-10.85.15-14.68-4.01-3.83-10.58-3.48-14.67.79"/>
          <path class="cls-10" d="M217.03,3.41c7.33-2.74,14.57.03,16.18,6.2,1.61,6.17-3.02,13.39-10.35,16.13-7.33,2.75-14.57-.03-16.18-6.19-1.61-6.16,3.02-13.39,10.35-16.13M210.23,5.77c-7.6,6.01-9.53,14.73-4.32,19.46,5.21,4.73,15.6,3.7,23.2-2.31,7.6-6.01,9.53-14.72,4.32-19.46-5.22-4.73-15.6-3.7-23.2,2.31"/>
          <g>
            <path class="cls-1" d="M254.35,13.78h-8.72v-1.39h8.72v1.39ZM249.99,19.9c-1.1,0-2-.28-2.69-.83-.69-.56-1.04-1.22-1.04-2s.35-1.43,1.04-1.98c.69-.56,1.59-.83,2.69-.83s2,.28,2.69.83c.69.56,1.04,1.22,1.04,1.98s-.35,1.44-1.04,2c-.69.56-1.59.83-2.69.83ZM250.66,23.1h7.53v1.49h-8c-1.73,0-2.59-.8-2.59-2.41v-1.55h1.94v1.33c0,.77.37,1.15,1.12,1.15ZM247.75,10.47h4.47v1.41h-4.47v-1.41ZM249.99,18.54c.51,0,.94-.14,1.3-.42.36-.28.54-.63.54-1.05s-.18-.76-.54-1.04c-.36-.28-.8-.42-1.3-.42s-.94.14-1.3.42c-.36.28-.54.63-.54,1.04s.18.77.54,1.05c.36.28.8.42,1.3.42ZM258.13,14.28h2.01v1.52h-2.01v4.91h-1.93v-9.99h1.93v3.56Z"/>
            <path class="cls-1" d="M265.19,19.82c-.69-.12-1.28-.38-1.77-.78-.67-.55-1-1.21-1-1.98s.35-1.43,1.04-1.98c.69-.56,1.59-.83,2.69-.83s2,.28,2.69.83c.69.56,1.04,1.22,1.04,1.98s-.34,1.43-1,1.98c-.47.39-1.05.65-1.73.78v1.47h2.16c1.94,0,2.92-.75,2.92-2.25v-8.32h1.93v4.66h2.01v1.54h-2.01v7.71h-1.93v-2.61c-.58.52-1.45.78-2.59.78h-8.17v-1.51h3.74v-1.47ZM270.47,13.78h-8.72v-1.39h8.72v1.39ZM263.91,10.47h4.47v1.41h-4.47v-1.41ZM266.15,18.54c.51,0,.94-.14,1.3-.42.36-.28.54-.63.54-1.05s-.18-.76-.54-1.04c-.36-.28-.8-.42-1.3-.42s-.94.14-1.31.42c-.36.28-.54.63-.54,1.04s.18.77.54,1.05c.36.28.8.42,1.31.42Z"/>
            <path class="cls-1" d="M285.78,21.43h-5.2c-1.72,0-2.58-.85-2.58-2.56v-7.93h1.91v3.37h3.97v-3.37h1.9v10.49ZM283.89,19.93v-4.15h-3.97v2.98c0,.78.35,1.17,1.05,1.17h2.92ZM288.17,24.63v-13.91h1.94v13.91h-1.94Z"/>
            <path class="cls-1" d="M297.14,16.25c-.26.46-.58.87-.96,1.23-1.04.98-2.24,1.58-3.6,1.8v-1.47c.92-.21,1.72-.73,2.41-1.57.71-.87,1.1-2.15,1.17-3.82h-3.26v-1.47h8.46v1.47h-3.26c.06,1.67.45,2.95,1.17,3.82.69.84,1.5,1.36,2.41,1.57v1.47c-1.36-.22-2.56-.82-3.6-1.8-.38-.36-.7-.77-.96-1.23ZM298.26,23.09h7.53v1.51h-8c-1.73,0-2.59-.8-2.59-2.41v-2.15h1.95v1.91c0,.77.37,1.15,1.12,1.15ZM303.7,10.72h1.93v9.99h-1.93v-5.41h-3.16v-1.52h3.16v-3.06Z"/>
          </g>
        </g>
        <rect class="cls-5" x="202.98" y="0" width="102.82" height="35"/>
      </g>
      <g>
        <g>
          <g>
            <path d="M73.95,9.94c-2.57,0-4.65,1.97-4.65,4.4s2.08,4.4,4.65,4.4,4.65-1.97,4.65-4.4-2.08-4.4-4.65-4.4ZM74.04,17.17c-1.16,0-2.1-1.25-2.1-2.8s.94-2.8,2.1-2.8,2.1,1.25,2.1,2.8-.94,2.8-2.1,2.8Z"/>
            <rect x="102.35" y="22.48" width="12.12" height="2.11"/>
            <path d="M81.3,10.01c-.75.08-1.35.86-1.43,1.86,0,.07,0,.14,0,.22s0,12.55,0,12.55h2.69v-12.51h1.73v-2.15s-2.83.03-2.87.03-.08,0-.12,0Z"/>
            <path d="M97.94,10.01c-.75.08-1.35.86-1.43,1.86,0,.07,0,.14,0,.22,0,.03,0,2.1,0,4.54h-1.99v-4.47h.94v-2.11h-9.24v2.11h.91v4.47h-.91v2.11h10.29c0,3.01,0,5.9,0,5.9h2.69v-12.51h1.73v-2.15s-2.83.03-2.87.03-.08,0-.12,0ZM91.83,16.64h-2.01v-4.47h2.01v4.47Z"/>
            <path d="M126.25,10.14h-.07v.02c-.66.16-1.17.87-1.26,1.77,0,.05,0,2.15,0,4.01h-.96c0-1.76,0-3.99,0-4.01-.02-.3-.1-.58-.2-.83-.24-.54-.65-.92-1.13-1.01-.07-.01-6.92,0-6.92,0v2.1h5.57v3.74h-1.5v-2.69h-2.69v2.69h-1.64v2.11h9.48c0,.44,0,.71,0,.71h2.69v-6.5h1.8v-2.11s-3.09-.01-3.16,0Z"/>
            <path d="M118.91,18.72h-2.69s0,3.54,0,3.63v.13h.02c.13,1.12.81,1.99,1.66,2.11.02,0,.04,0,.05,0,.05,0,9.88,0,9.88,0v-2.11h-8.92v-3.77Z"/>
            <path d="M148.58,18.43h-2.69s0,3.86,0,3.95v.13h.02c.03,1.08.77,1.94,1.61,2.06.02,0,.17,0,.19.01.05,0,9.41-.01,9.41-.01v-2.06h-8.54v-4.08Z"/>
            <path d="M161.56,19.52h-2.69s0,2.77,0,2.86v.13h.02c.13,1.11.81,1.98,1.66,2.11.02,0,10.16,0,10.16,0v-2.11h-9.14v-2.99Z"/>
            <polygon points="158.63 16.71 158.63 18.82 163.9 18.82 163.9 21.46 166.59 21.46 166.59 18.82 170.98 18.82 170.98 16.71 158.63 16.71"/>
            <path d="M158.87,13.64c.11,1.25.81,1.99,1.66,2.11.02,0,.04,0,.05,0,.03,0,10.14,0,10.14,0h0s0-5.56,0-5.56h-11.91l.04,3.45h.02ZM161.54,12.29h6.49v1.35h-6.49v-1.35Z"/>
            <rect x="154.25" y="10.16" width="2.69" height="8.58"/>
            <path d="M140.64,16.66h-6.79v-1.38h5.44v-5.15s0,0,0,0h-8.12v2.11h5.44v.94h-5.44s0,3.26,0,3.35v.13h.02c.13,1.11.81,1.99,1.66,2.1.02,0,6.27,0,7.8,0v5.84h2.69v-14.57h-2.69v6.61Z"/>
            <path d="M104.38,18.77s9.09,0,9.09,0v-2.11h-8.13v-1.34h8.13v-2.11h-8.13v-1h8.13v-2.14h-10.82s0,6.36,0,6.45c.1,1.2.82,2.15,1.73,2.24Z"/>
            <path d="M149.06,14.55c1.07,2.12,2.23,3.01,4.31,3.22v-2.12c-2.2-.43-3.16-3.19-3.16-5.48h-2.28c0,2.3-.97,5.05-2.94,5.48v2.12c1.76-.17,3.04-.95,4.08-3.22Z"/>
          </g>
          <g>
            <path class="cls-2" d="M60.33,10.7h-1.09l-7.23,14.37h16.28l-7.97-14.37ZM60.39,11.96l6.85,12.46h-12.94l6.09-12.46Z"/>
            <path class="cls-2" d="M61.37,19.2c0,.5-.41.91-.91.91s-.91-.41-.91-.91.41-.91.91-.91.91.41.91.91Z"/>
          </g>
        </g>
        <rect class="cls-5" x="52.01" y="0" width="118.96" height="35"/>
      </g>
    </g>
  </g>
</svg>