<?xml version="1.0" encoding="UTF-8"?>
<svg id="_레이어_1" xmlns="http://www.w3.org/2000/svg" width="603" height="163" version="1.1" viewBox="0 0 603 163">
  <!-- Generator: Adobe Illustrator 30.5.1, SVG Export Plug-In . SVG Version: 2.1.4 Build 3)  -->
  <g id="aptn-logo-rgb-g-c">
    <g>
      <circle cx="51.117" cy="91.167" r="6.739" fill="#00a040"/>
      <path d="M51.117,46.5h0s-10.708,0-10.708,0L0,116.5h91.527L51.117,46.5ZM51.117,54.795l33.227,57.557H17.891l33.226-57.557Z" fill="#00a040"/>
    </g>
    <g>
      <g>
        <path d="M551.289,74.177c-3.226,0-5.568-2.342-5.568-5.569v-21.694h49.782v27.263h-44.214ZM558.166,64.385h24.99v-7.856h-24.99v7.856Z"/>
        <path d="M551.069,115.094c-3.505,0-6.049-2.544-6.049-6.049v-13.718h13.444v9.11h37.74v10.656h-45.135Z"/>
        <polygon points="566.159 99.558 566.159 89.665 538.024 89.665 538.024 79.008 603 79.008 603 89.665 577.68 89.665 577.68 99.558 566.159 99.558"/>
      </g>
      <g>
        <path d="M466.104,76.334c14.758-4.66,17.063-16.46,17.122-23.091v-6.742h12.923v6.741c-.071,7.73,2.707,17.804,16.32,21.978l-6.235,9.623c-7.471-2.292-12.965-6.78-16.329-13.341l-.183-.356-.177.359c-3.565,7.216-9.325,12.132-17.124,14.611l-6.317-9.782Z"/>
        <rect x="517.11" y="46.5" width="12.444" height="47.675"/>
        <path d="M485.321,115.094c-3.505,0-6.048-2.544-6.048-6.049v-17.756h13.483v13.149h37.434v10.656h-44.869Z"/>
      </g>
      <path d="M447.4,116.5v-24.734h-42.563c-2.948,0-5.088-2.14-5.088-5.089v-22.601h24.08v-6.561h-24.287v-10.136h36.684v26.559h-23.511v7.17h34.684v-34.609h12.444v70h-12.444Z"/>
      <g>
        <path d="M372.878,97.042v-9.039h-50.876v-9.705h11.677v-12.494h11.521v12.494h7.437v-19.934c0-.388-.315-.703-.703-.703h-26.542v-10.09h32.814c3.6,0,6.53,2.93,6.53,6.53v24.196h8.142v-23.74c0-4.443,3.615-8.059,8.058-8.059h11.307v10.692h-6.609c-.388,0-.703.315-.703.703v39.147h-12.052Z"/>
        <path d="M339.144,115.094c-3.505,0-6.049-2.544-6.049-6.049v-14.872h13.444v10.264h40.685v10.656h-48.08Z"/>
      </g>
      <g>
        <rect x="253.814" y="97.975" width="64.783" height="11.33"/>
        <path d="M266.601,87.984c-3.505,0-6.048-2.545-6.048-6.05v-35.02h51.113v10.09h-38.714v5.505h37.383v9.807h-37.383v5.866h39.254v9.802h-45.603Z"/>
      </g>
      <path d="M230.122,115.955v-24.768h-50.485v-10.08h7.005v-23.262h-4.868v-9.985h42.61v9.985h-5.024v23.262h10.762v-26.549c0-4.669,3.388-8.059,8.057-8.059h12.615v10.403h-7.532c-.388,0-.704.315-.704.703v58.349h-12.435ZM198.738,81.107h8.526v-23.262h-8.526v23.262Z"/>
      <g>
        <path d="M124.324,47.216c-12.725-.063-22.117,8.027-22.029,20.72-.088,12.88,9.304,20.907,22.029,20.907,12.638,0,21.942-8.027,21.942-20.907,0-12.693-9.303-20.783-21.942-20.72ZM124.322,79.932c-5.217,0-8.634-3.745-8.544-11.996-.09-8.124,3.327-11.996,8.544-11.932,5.307-.064,8.634,3.808,8.725,11.932-.09,8.251-3.418,11.996-8.725,11.996Z"/>
        <path d="M152.628,115.955v-61.396c0-4.669,3.388-8.059,8.057-8.059h12.615v10.692h-7.532c-.388,0-.704.315-.704.703v58.06h-12.435Z"/>
      </g>
    </g>
  </g>
</svg>