<?xml version="1.0" encoding="UTF-8"?>
<svg id="_레이어_1" xmlns="http://www.w3.org/2000/svg" width="650" height="163" version="1.1" viewBox="0 0 650 163">
  <!-- Generator: Adobe Illustrator 30.5.1, SVG Export Plug-In . SVG Version: 2.1.4 Build 3)  -->
  <g>
    <polygon points="43.861 43.5 0 119.5 10.313 119.5 49.004 52.444 43.861 43.5" fill="#ffb300"/>
    <polygon points="10.313 119.5 54.173 43.5 98.008 119.5 10.313 119.5" fill="#008837"/>
  </g>
  <g>
    <g>
      <path d="M130.625,112.21v-11.684h-12.38v15.407c0,1.861,1.396,3.386,3.127,3.386h56.887c1.706,0,3.127-1.499,3.127-3.361v-3.748h-50.761Z" fill="#0f218b"/>
      <path d="M155.231,89.927h13.311v14.761h12.38v-47.642c0-1.861-1.396-3.361-3.102-3.361h-9.253v14.088h-12.871c-1.602-1.603-3.489-3.024-5.686-4.162h7.392c1.732,0,3.127-1.499,3.127-3.335v-3.8h-17.86v-2.068c0-1.861-1.422-3.361-3.153-3.361h-9.227v5.429h-17.911v7.109h10.623c-6.306,3.283-10.442,8.789-10.442,15.019,0,10.056,10.7,18.199,23.933,18.224,7.599,0,14.37-2.688,18.764-6.902h-.026ZM159.909,74.908h8.633v7.91h-8.788c.414-1.344.672-2.74.672-4.162,0-1.293-.181-2.533-.517-3.722v-.026ZM124.578,78.863c0-6.514,5.324-11.788,11.863-11.788s11.863,5.299,11.863,11.788-5.324,11.788-11.863,11.788-11.863-5.273-11.863-11.788Z" fill="#0f218b"/>
    </g>
    <g>
      <path d="M191.88,109.237c0,2.068,1.396,3.748,3.102,3.748h28.431c1.732,0,3.127-1.654,3.127-3.722v-3.361h-22.305v-43.635h17.136c1.732,0,3.102-1.68,3.102-3.748v-3.464h-32.54v54.156l-.052.026Z" fill="#0f218b"/>
      <path d="M260.708,57.485c0-2.068-1.396-3.774-3.102-3.774h-9.227v21.378h-6.565v-17.604c0-2.068-1.396-3.774-3.102-3.774h-9.227v65.582h12.329v-37.069h6.591v37.095h12.329v-61.834h-.026Z" fill="#0f218b"/>
    </g>
    <g>
      <path d="M412.321,53.659h-9.253v65.634h12.354v-62.273c0-1.861-1.396-3.361-3.127-3.361h.026Z" fill="#0f218b"/>
      <path d="M399.32,108.514v-3.748h-36.494v-18.819h27.759v-27.324c0-1.861-1.422-3.361-3.127-3.361h-36.986v7.109h27.759v16.467h-27.759v29.65c0,1.861,1.396,3.361,3.127,3.361h42.62c1.732,0,3.127-1.499,3.127-3.335h-.026Z" fill="#0f218b"/>
    </g>
    <g>
      <path d="M429.508,113.063h29.025v-54.622c0-1.861-1.396-3.361-3.127-3.361h-9.253v20.344h-7.392v-17.01c0-1.861-1.396-3.361-3.127-3.361h-9.253v54.208c0,2.068,1.396,3.748,3.102,3.748l.026.052ZM438.761,82.586h7.392v23.395h-7.392v-23.395Z" fill="#0f218b"/>
      <path d="M476.315,119.371h-12.329v-37.069h-8.865v-7.135h8.865v-21.352h9.227c1.732,0,3.127,1.706,3.127,3.774v61.808l-.026-.026Z" fill="#0f218b"/>
      <path d="M482.932,119.371h12.303v-61.782c0-2.068-1.396-3.774-3.127-3.774h-9.201v65.556h.026Z" fill="#0f218b"/>
    </g>
    <g>
      <path d="M529.196,114.433c15.146,0,24.269-13.623,24.295-30.452,0-16.829-9.124-30.452-24.269-30.452s-24.295,13.623-24.295,30.452,9.098,30.452,24.295,30.452h-.026ZM529.222,60.639c6.436,0,11.424,9.59,11.424,22.852s-4.988,23.395-11.424,23.395-11.424-10.133-11.424-23.395,4.988-22.852,11.45-22.852h-.026Z" fill="#0f218b"/>
      <path d="M570.911,53.659h-9.253v65.686h12.38v-62.325c0-1.861-1.396-3.361-3.127-3.361h0Z" fill="#0f218b"/>
    </g>
    <g>
      <path d="M650,119.371v-62.299c0-1.835-1.396-3.361-3.127-3.361h-9.253v21.327h-8.141v7.109h8.141v37.199h12.38v.026Z" fill="#0f218b"/>
      <path d="M584.997,109.108c0,2.068,1.396,3.722,3.127,3.722h42.362c1.706,0,3.102-1.654,3.102-3.722v-3.361h-36.236v-23.576h24.993c1.732,0,3.102-1.732,3.102-3.671v-3.464h-28.095v-12.899h31.067c1.706,0,3.102-1.654,3.102-3.722v-3.464h-46.497v54.156h-.026Z" fill="#0f218b"/>
    </g>
    <g>
      <path d="M276.345,97.889h50.736v3.748h-50.761v14.373c0,1.861,1.396,3.361,3.127,3.361h56.887c1.732,0,3.127-1.499,3.127-3.361v-3.748h-50.761v-3.567h50.761v-17.94h-63.142v7.109l.026.026Z" fill="#0f218b"/>
      <path d="M339.461,57.433c0-2.042-1.396-3.748-3.102-3.748h-9.227v34.045h12.303v-30.297h.026Z" fill="#0f218b"/>
      <path d="M308.213,72.84v14.864h12.329v-30.271c.026-2.068-1.37-3.774-3.076-3.774h-9.227v12.046h-6.384v7.135h6.384-.026Z" fill="#0f218b"/>
      <path d="M286.632,53.427c-9.796,0-16.257,8.893-16.257,16.777,0,8.324,6.72,16.777,16.257,16.777s16.231-8.479,16.231-16.777-6.177-16.777-16.231-16.777ZM281.488,70.126c0-4.782,2.3-10.004,5.143-10.004s5.169,5.222,5.169,10.004-2.3,9.978-5.169,9.978c-2.843,0-5.143-5.196-5.143-9.978Z" fill="#0f218b"/>
    </g>
  </g>
</svg>