<?xml version="1.0" encoding="UTF-8"?>
<svg id="_레이어_1" xmlns="http://www.w3.org/2000/svg" width="492" height="163" version="1.1" viewBox="0 0 492 163">
  <!-- Generator: Adobe Illustrator 30.5.1, SVG Export Plug-In . SVG Version: 2.1.4 Build 3)  -->
  <path d="M66.357,83.554c-2.347-21.218,19.865-38.197,49.606-37.968,29.712.229,55.703,17.581,58.021,38.77,2.319,21.218-19.865,38.197-49.577,37.968-29.712-.2-55.703-17.581-58.021-38.741M179.537,90.14c-2.691-26.286-32.574-47.818-66.809-48.105-34.235-.286-59.768,20.788-57.077,47.074,2.691,26.286,32.603,47.818,66.809,48.105,34.206.286,59.768-20.788,57.077-47.074Z" fill="#fbb584"/>
  <path d="M127.87,137.729c-16.86,17.638-43.881,19.099-60.397,3.264-16.516-15.806-16.23-42.893.63-60.503,16.86-17.61,43.91-19.07,60.397-3.264,16.488,15.806,16.23,42.893-.63,60.503ZM65.441,79.947c-19.579,20.444-19.923,51.942-.716,70.324,19.207,18.354,50.636,16.665,70.215-3.808,19.608-20.473,19.923-51.942.716-70.324-19.178-18.354-50.636-16.665-70.215,3.808Z" fill="#f89b6c"/>
  <path d="M67.244,14.032c35.065-13.143,69.7.172,77.4,29.693,7.729,29.521-14.455,64.14-49.52,77.254-35.065,13.172-69.7-.143-77.4-29.665-7.7-29.55,14.484-64.14,49.52-77.282ZM34.698,25.313C-1.683,54.09-10.929,95.838,14.003,118.488c24.932,22.678,74.624,17.696,110.976-11.081,36.353-28.777,45.627-70.525,20.667-93.174C120.714-8.446,71.051-3.492,34.698,25.313Z" fill="#f37321"/>
  <path d="M245.802,63.654h-41.706v-6.672h41.706v6.672ZM224.935,92.975c-5.267,0-9.561-1.317-12.881-3.98-3.32-2.663-4.952-5.841-4.952-9.592s1.66-6.843,4.952-9.506,7.585-3.98,12.881-3.98,9.561,1.317,12.881,3.98c3.292,2.663,4.952,5.841,4.952,9.506s-1.66,6.901-4.952,9.592c-3.32,2.663-7.585,3.98-12.881,3.98ZM228.113,108.323h36.038v7.13h-38.299c-8.272,0-12.394-3.866-12.394-11.568v-7.445h9.303v6.357c0,3.665,1.775,5.498,5.353,5.498v.029ZM214.23,47.819h21.411v6.758h-21.411v-6.758ZM224.935,86.446c2.433,0,4.494-.659,6.24-2.004,1.717-1.346,2.605-3.035,2.605-5.04s-.859-3.608-2.605-4.954c-1.746-1.346-3.807-2.004-6.24-2.004s-4.523.687-6.24,2.004c-1.717,1.346-2.605,3.007-2.605,4.954s.859,3.694,2.605,5.04c1.717,1.346,3.807,2.004,6.24,2.004ZM263.864,66.059h9.618v7.302h-9.618v23.508h-9.217v-47.847h9.217v17.066s0-.029,0-.029Z" fill="#000500"/>
  <path d="M297.67,92.603c-3.32-.573-6.126-1.804-8.444-3.722-3.206-2.634-4.809-5.784-4.809-9.449s1.66-6.843,4.952-9.506c3.292-2.663,7.585-3.98,12.881-3.98s9.561,1.317,12.881,3.98c3.292,2.663,4.952,5.841,4.952,9.506s-1.603,6.815-4.809,9.449c-2.261,1.861-5.038,3.092-8.301,3.722v7.073h10.305c9.303,0,13.969-3.579,13.969-10.795v-39.858h9.217v22.334h9.618v7.359h-9.618v36.909h-9.217v-12.484c-2.805,2.491-6.927,3.722-12.394,3.722h-39.072v-7.216h17.919v-7.073s-.029.029-.029.029ZM322.945,63.683h-41.706v-6.672h41.706v6.672ZM291.544,47.848h21.411v6.758h-21.411v-6.758ZM302.25,86.475c2.433,0,4.494-.659,6.24-2.004,1.717-1.346,2.605-3.035,2.605-5.04s-.859-3.608-2.605-4.954-3.807-2.004-6.24-2.004-4.523.687-6.24,2.004c-1.746,1.346-2.605,3.007-2.605,4.954s.859,3.694,2.605,5.04c1.717,1.346,3.807,2.004,6.24,2.004Z" fill="#000500"/>
  <path d="M396.223,100.362h-24.875c-8.215,0-12.337-4.095-12.337-12.255v-37.997h9.16v16.121h19.007v-16.121h9.074v50.252s-.029,0-.029,0ZM387.149,93.147v-19.843h-19.007v14.26c0,3.722,1.689,5.584,5.038,5.584h13.969ZM407.616,115.653V49.022h9.303v66.631h-9.303Z" fill="#000500"/>
  <path d="M450.581,75.537c-1.231,2.233-2.777,4.181-4.58,5.899-4.952,4.696-10.706,7.588-17.203,8.619v-7.073c4.408-.974,8.244-3.493,11.564-7.531,3.406-4.181,5.267-10.28,5.582-18.297h-15.572v-7.044h40.475v7.044h-15.572c.315,8.017,2.175,14.116,5.582,18.297,3.32,4.037,7.156,6.528,11.564,7.531v7.073c-6.526-1.031-12.251-3.894-17.203-8.619-1.803-1.718-3.32-3.665-4.58-5.899h-.057,0ZM455.933,108.265h36.067v7.216h-38.299c-8.272,0-12.394-3.866-12.394-11.568v-10.308h9.303v9.163c0,3.665,1.775,5.498,5.353,5.498h-.029ZM481.981,49.022h9.217v47.847h-9.217v-25.914h-15.114v-7.302h15.114v-14.66s0,.029,0,.029Z" fill="#000500"/>
</svg>