<?xml version="1.0" encoding="UTF-8"?>
<svg id="_레이어_2" data-name="레이어 2" xmlns="http://www.w3.org/2000/svg" xmlns:xlink="http://www.w3.org/1999/xlink" viewBox="0 0 1657.98 72">
  <defs>
    <style>
      .cls-1 {
        font-family: SUITEVariable-ExtraBold, 'SUITE Variable';
        font-size: 21px;
        font-variation-settings: 'wght' 800;
        font-weight: 700;
      }

      .cls-1, .cls-2 {
        fill: #fff;
      }

      .cls-1, .cls-3 {
        opacity: .95;
      }

      .cls-4 {
        fill: #3e3a39;
      }

      .cls-5 {
        fill: #231815;
      }

      .cls-6 {
        fill: #333;
      }

      .cls-7 {
        fill: #0c9268;
      }

      .cls-8 {
        fill: #009e41;
      }

      .cls-9 {
        fill: #f6ba81;
      }

      .cls-10 {
        fill: none;
      }

      .cls-11 {
        fill: #f39e50;
      }

      .cls-12 {
        fill: #004097;
      }

      .cls-13 {
        fill: #44af35;
      }

      .cls-14 {
        fill: #e50012;
      }

      .cls-15 {
        fill: #ec7000;
      }

      .cls-16 {
        clip-path: url(#clippath);
      }

      .cls-17 {
        fill: #3d3a39;
      }
    </style>
    <clipPath id="clippath">
      <rect class="cls-10" x="1558.25" y="5.02" width="99.73" height="61.96"/>
    </clipPath>
  </defs>
  <g id="art">
    <g>
      <g>
        <g>
          <g>
            <path class="cls-7" d="M243.62,28.49c1.01,0,1.78.34,2.32,1.02.54.68.81,1.59.81,2.74,0,2.1-.4,3.74-1.21,4.92-.81,1.18-2.01,2.05-3.63,2.59-3.09,1.02-6.38,1.52-9.87,1.52-2.96,0-5.74-.41-8.36-1.22-1.95,3.18-4.1,6.46-6.45,9.85-2.69,3.86-4.99,6.5-6.9,7.92-1.91,1.42-4.08,2.13-6.5,2.13-2.69,0-4.72-1.05-6.09-3.15-1.38-2.1-2.23-5.55-2.57-10.35l-.5-7.41c-2.08,5.69-3.95,10.02-5.59,12.99-1.65,2.98-3.29,5.04-4.94,6.19-1.65,1.15-3.58,1.73-5.79,1.73-2.75,0-4.92-1.08-6.5-3.25-1.58-2.17-2.57-5.58-2.97-10.25-.81-9.47-1.21-17.77-1.21-24.87v-3.55c.07-2.23.67-3.79,1.81-4.67,1.14-.88,2.85-1.32,5.14-1.32,1.75,0,3.04.39,3.88,1.17.84.78,1.26,2.08,1.26,3.91,0,7.29.41,16.64,1.24,28.03.05.62.89.79,1.15.23,4.19-9.04,8.06-18.42,11.61-28.16.74-2.03,1.63-3.4,2.67-4.11,1.04-.71,2.3-1.07,3.78-1.07,1.81,0,3.07.37,3.78,1.12.7.75,1.06,2.07,1.06,3.96,0,7.41.43,16.95,1.28,28.6.04.57.79.78,1.1.3,3.55-5.34,6.24-9.66,8.09-12.96-1.01-1.96-1.51-4.3-1.51-7,0-2.3.5-4.53,1.51-6.7,1.01-2.16,2.38-3.92,4.13-5.28,1.11-.86,2.38-1.47,3.74-1.77,2.99-.66,5.3-.06,6.93,1.82,1.21,1.39,1.81,3.4,1.81,6.04,0,3.05-.81,6.53-2.42,10.46,2.55-.13,5.94-.64,10.17-1.52l2.72-.51c.2-.07.54-.1,1.01-.1Z"/>
            <g>
              <g>
                <path class="cls-17" d="M265.85,27.39c0-5.13,4.39-8.77,9.88-8.77s9.85,3.64,9.85,8.77-4.39,8.81-9.85,8.81-9.88-3.64-9.88-8.81ZM269.72,27.39c0,3.16,2.64,5.17,6.01,5.17s5.98-2,5.98-5.17-2.64-5.14-5.98-5.14-6.01,2-6.01,5.14Z"/>
                <polygon class="cls-17" points="273.75 53.97 273.75 43.19 258.72 43.19 258.72 39.55 292.7 39.55 292.7 43.19 277.67 43.19 277.67 53.97 273.75 53.97"/>
              </g>
              <g>
                <path class="cls-17" d="M317.6,40.21s-14.06,0-16.02,0v-6.83h13.12v-12.82h-17v3.6h13.12v5.66h-13.12v13.99h19.89v-3.6Z"/>
                <rect class="cls-17" x="321.14" y="18.03" width="3.91" height="35.94"/>
              </g>
              <g>
                <path class="cls-17" d="M390.22,40.21s-14.06,0-16.02,0v-6.83h13.12v-12.82h-17v3.6h13.12v5.66h-13.12v13.99h19.89v-3.6Z"/>
                <rect class="cls-17" x="393.76" y="18.03" width="3.91" height="35.94"/>
              </g>
              <g>
                <polygon class="cls-17" points="337.31 53.38 337.31 42.06 341.23 42.06 341.23 49.74 361.69 49.74 361.69 53.38 337.31 53.38"/>
                <polygon class="cls-17" points="356.8 44.59 356.8 18.03 360.72 18.03 360.72 30.06 366.65 30.06 366.65 33.7 360.72 33.7 360.72 44.59 356.8 44.59"/>
                <polygon class="cls-17" points="347.57 32.91 351.48 32.91 351.48 19.63 333.52 19.63 333.52 23.23 347.57 23.23 347.57 32.91"/>
                <polygon class="cls-17" points="354.18 35.84 342.08 35.84 342.08 28.19 338.17 28.19 338.17 35.84 331.45 35.84 331.45 39.44 354.18 39.44 354.18 35.84"/>
              </g>
            </g>
          </g>
          <g>
            <path class="cls-4" d="M543.97,39.89h13.16v10.79h3.08v-10.79h13.32v-2.6h-29.56v2.6ZM590.94,34.61c.34-.3.68-.63,1.02-.98.33-.34.67-.64,1.02-.98-1.02-.61-1.97-1.29-2.78-2.04-.84-.74-1.55-1.52-2.13-2.4-.61-.81-1.04-1.69-1.35-2.64-.34-.92-.47-1.82-.47-2.78v-3.07h-2.91v3.07c0,1.02-.17,2-.47,2.95-.34,1.02-.81,1.96-1.39,2.84-.61.91-1.32,1.75-2.13,2.53-.88.81-1.83,1.56-2.84,2.2.34.34.67.65,1.02.98.33.33.67.67,1.01.97,1.43-.84,2.68-1.89,3.82-3.17,1.12-1.22,1.93-2.54,2.46-3.93.59,1.28,1.43,2.5,2.51,3.58,1.05,1.12,2.27,2.07,3.61,2.84ZM552.84,28.46c-.95.67-1.93,1.22-2.98,1.63-1.08.44-2.13.78-3.15,1.04.28.37.58.71.85,1.05.27.38.54.75.85,1.08,2.43-.6,4.53-1.56,6.35-2.83,1.77-1.22,3.12-2.64,4-4.26.41.81.95,1.55,1.63,2.26.67.74,1.45,1.39,2.36,2,.88.6,1.86,1.14,2.95,1.62,1.04.5,2.16.91,3.38,1.21.27-.33.57-.71.88-1.08.26-.33.53-.67.8-1.05-1.21-.3-2.33-.7-3.41-1.18-1.08-.44-2.06-1.02-2.94-1.69-.92-.64-1.7-1.42-2.3-2.3-.67-.88-1.15-1.89-1.42-3.09h8.55v-2.64h-20.97v2.64h8.53c-.33,1.22-.88,2.3-1.55,3.23-.72.94-1.53,1.72-2.4,2.36ZM696.59,28.15c-.2,1.76-.43,3.48-.74,5.18l2.83.27c.75-3.45,1.13-7.87,1.13-13.36h-20.13v2.64h17.15c0,1.83-.1,3.59-.24,5.28ZM712.73,36.24c2.7-.82,4.96-1.93,6.79-3.42,1.79-1.42,3.11-3.15,3.96-5.14.78,2.03,2.1,3.75,3.92,5.17,1.8,1.45,4.06,2.57,6.8,3.38.31-.34.61-.71.94-1.09.27-.34.58-.67.92-1.05-1.76-.51-3.35-1.18-4.7-2.06-1.39-.81-2.54-1.76-3.49-2.84-.94-1.02-1.65-2.13-2.12-3.35-.51-1.15-.75-2.37-.75-3.59v-1.35h-3.07v1.35c0,1.22-.24,2.4-.71,3.55-.51,1.22-1.21,2.33-2.13,3.35-.95,1.09-2.13,2.03-3.48,2.88-1.39.88-2.97,1.55-4.74,2.06.31.38.62.71.95,1.05.27.38.58.74.92,1.09ZM599.91,38.5c-.81-.61-1.72-1.08-2.75-1.42-1.08-.33-2.19-.5-3.34-.5s-2.3.17-3.32.47c-1.05.33-1.96.84-2.7,1.45-.82.65-1.42,1.39-1.86,2.27-.47.91-.68,1.92-.68,3.04s.21,2.09.68,2.97c.44.88,1.04,1.66,1.83,2.3.75.61,1.65,1.08,2.7,1.43,1.02.33,2.13.5,3.35.5s2.3-.17,3.38-.5c1.01-.34,1.92-.85,2.73-1.46.75-.64,1.35-1.42,1.83-2.3.44-.89.68-1.86.68-2.94s-.24-2.1-.68-3.01c-.47-.88-1.07-1.66-1.86-2.3ZM599.03,45.71c-.31.57-.72,1.04-1.21,1.44-.55.38-1.13.68-1.8.91-.71.21-1.45.31-2.19.31s-1.46-.1-2.13-.31c-.72-.23-1.32-.54-1.8-.91-.53-.4-.94-.88-1.21-1.44-.33-.55-.47-1.19-.47-1.9,0-.67.14-1.32.44-1.93.27-.54.67-1.05,1.22-1.45.47-.41,1.07-.71,1.79-.95.67-.2,1.39-.3,2.16-.3s1.51.14,2.23.34c.68.23,1.25.54,1.79.95.47.4.88.91,1.19,1.45.26.58.44,1.22.44,1.89,0,.71-.17,1.35-.44,1.9ZM652.63,39.18h-2.94v10.66h19.78v-2.64h-16.84v-8.01ZM666.15,39.52h2.97v-20.63h-2.97v3.92h-5.31v2.44h5.31v4.4h-5.31v2.47h5.31v7.4ZM674.88,39.38h13.15v11.29h3.08v-11.29h13.33v-2.61h-29.56v2.61ZM655.68,34.81c.93-.33,1.75-.88,2.46-1.59.68-.68,1.19-1.49,1.59-2.47.37-.94.57-2,.57-3.18s-.2-2.23-.57-3.21c-.4-.94-.92-1.76-1.59-2.46-.71-.68-1.53-1.18-2.46-1.59-.96-.38-2-.58-3.09-.58-1.15,0-2.16.2-3.11.58-.95.41-1.76.91-2.44,1.59-.71.71-1.26,1.52-1.62,2.46-.41.98-.58,2.07-.58,3.21s.17,2.24.58,3.18c.36.98.91,1.79,1.62,2.47.68.71,1.49,1.26,2.44,1.59.94.4,1.96.57,3.11.57,1.08,0,2.13-.17,3.09-.57ZM649.15,31.33c-.88-.91-1.32-2.16-1.32-3.75s.44-2.87,1.35-3.82c.88-.92,2.03-1.39,3.45-1.39s2.54.47,3.42,1.39c.87.94,1.32,2.23,1.32,3.82s-.44,2.81-1.29,3.75c-.88.95-2.03,1.43-3.45,1.43s-2.6-.48-3.48-1.43ZM635.25,18.88h-2.98v18.54h2.98v-8.29h4.9v-2.63h-4.9v-7.62ZM600.81,25.65h-3.58v-6.42h-2.78v15.21h2.78v-6.16h3.58v7.51h2.81v-16.91h-2.81v6.77ZM724.97,43.91v-7.5h-2.98v7.5h-13.28v2.61h29.56v-2.61h-13.29ZM630.72,35.69l-.27-2.43c-3.17.68-6.08,1.02-8.72,1.02v-1.84c.75-.07,1.45-.27,2.13-.53.61-.28,1.18-.61,1.66-1.05.47-.41.84-.88,1.11-1.42.24-.55.37-1.16.37-1.83,0-.77-.2-1.48-.54-2.13-.38-.61-.86-1.12-1.47-1.56-.46-.29-.96-.51-1.5-.71h5.26v-2.3h-6.97v-2.54h-2.97v2.54h-7.11v2.3h5.2c-.51.2-1,.43-1.42.71-.63.43-1.13.94-1.48,1.56-.37.61-.54,1.31-.54,2.13,0,1.42.5,2.51,1.52,3.31,1.01.85,2.29,1.36,3.93,1.56v1.79h-7.69v2.43h8.12c4.33,0,8.13-.33,11.36-1.02ZM618.75,29.91c-.47-.07-.88-.24-1.21-.44-.34-.17-.62-.41-.82-.74-.21-.27-.31-.65-.31-1.12,0-.88.37-1.56,1.12-2.03.74-.41,1.62-.64,2.67-.64s2,.23,2.74.64c.71.47,1.08,1.14,1.08,2.03s-.37,1.55-1.12,1.9c-.74.37-1.66.54-2.7.54-.54,0-1.02-.04-1.45-.13ZM618.42,45.37h16.84v-6.7h-19.79v2.3h16.8v2.13h-16.8v7.07h20.3v-2.3h-17.35v-2.5Z"/>
            <g>
              <path class="cls-13" d="M471.37,30.16l-11.63-.06.05-10.03-4.45-.02-.13,25.6,4.45.02.06-11.49,11.62.05-.05,11.5,4.45.03.13-25.6-4.45-.02-.05,10.03ZM498.41,36.19c-.4,2.02-1.19,3.59-2.35,4.66-1.15,1.06-2.56,1.58-4.35,1.58h0c-2.4-.01-4.17-.78-5.41-2.36-1.26-1.6-1.88-3.97-1.86-7.06.02-2.9.72-5.23,2.09-6.91,1.35-1.66,3.12-2.47,5.43-2.47,1.74.01,3.17.42,4.26,1.23,1.08.81,1.74,1.93,2.02,3.42l.08.46,4.32.02-.09-.64c-.36-2.64-1.5-4.74-3.37-6.26-1.86-1.51-4.26-2.28-7.23-2.29-3.62,0-6.56,1.23-8.74,3.65-2.18,2.42-3.29,5.71-3.31,9.77-.02,4.06,1.02,7.35,3.09,9.78,2.09,2.45,4.95,3.71,8.48,3.73h.08c2.99,0,5.51-.9,7.49-2.68,1.99-1.78,3.23-4.28,3.69-7.42l.09-.64-4.32-.02-.09.46ZM507.3,20.31l-.13,25.59,4.45.02.13-25.59-4.45-.03Z"/>
              <path class="cls-13" d="M524.62,9v39.86c0,5.46-4.44,9.9-9.9,9.9h-62.9c-5.46,0-9.9-4.44-9.9-9.9V9h-4.24v39.86c0,7.8,6.34,14.14,14.14,14.14h62.9c7.8,0,14.14-6.35,14.14-14.14V9h-4.24Z"/>
            </g>
          </g>
        </g>
        <g>
          <rect class="cls-6" x="0" y="13.5" width="127.68" height="45" rx="22.5" ry="22.5"/>
          <g class="cls-3">
            <text class="cls-1" transform="translate(21.58 43.64)"><tspan x="0" y="0">주최·주관</tspan></text>
          </g>
        </g>
      </g>
      <g>
        <g>
          <rect class="cls-6" x="888.26" y="13.5" width="81.12" height="45" rx="22.5" ry="22.5"/>
          <g class="cls-3">
            <text class="cls-1" transform="translate(911.12 43.7)"><tspan x="0" y="0">후원</tspan></text>
          </g>
        </g>
        <g>
          <g>
            <g>
              <path d="M1055.76,20c-5.43,0-9.83,4.17-9.83,9.31s4.4,9.31,9.83,9.31,9.83-4.17,9.83-9.31-4.4-9.31-9.83-9.31ZM1055.94,35.3c-2.45,0-4.44-2.65-4.44-5.92s1.99-5.92,4.44-5.92,4.44,2.65,4.44,5.92-1.99,5.92-4.44,5.92Z"/>
              <rect x="1115.81" y="46.55" width="25.63" height="4.45"/>
              <path d="M1071.3,20.16c-1.59.16-2.86,1.83-3.03,3.94-.01.15-.02.3-.02.46s.02,26.54.02,26.54h5.68v-26.46h3.66v-4.55s-5.98.06-6.06.06-.17,0-.25.02Z"/>
              <path d="M1106.48,20.16c-1.59.16-2.86,1.83-3.03,3.94-.01.15-.02.3-.02.46,0,.06,0,4.44,0,9.62h-4.21v-9.46h1.99v-4.45h-19.53v4.45h1.93v9.46h-1.93v4.45h21.75c0,6.36,0,12.47,0,12.47h5.68v-26.46h3.66v-4.55s-5.98.06-6.06.06-.17,0-.25.02ZM1093.55,34.17h-4.24v-9.46h4.24v9.46Z"/>
              <path d="M1166.33,20.43h-.15v.03c-1.39.34-2.47,1.85-2.66,3.74-.01.11-.01,4.55,0,8.48h-2.02c0-3.72,0-8.44,0-8.48-.05-.63-.2-1.22-.43-1.75-.5-1.14-1.37-1.96-2.39-2.15-.15-.03-14.64,0-14.64,0v4.45h11.78v7.92h-3.17v-5.69h-5.68v5.69h-3.47v4.45h20.03c0,.92,0,1.5,0,1.5h5.68v-13.75h3.81v-4.45s-6.54-.03-6.68,0Z"/>
              <path d="M1150.81,38.58h-5.68s-.02,7.49,0,7.68v.28h.03c.28,2.36,1.71,4.2,3.5,4.45.04,0,.07,0,.11,0,.11.01,20.88,0,20.88,0v-4.45h-18.85v-7.97Z"/>
              <path d="M1213.54,37.97h-5.68s-.01,8.16,0,8.35v.28h.03c.06,2.28,1.62,4.1,3.41,4.36.04,0,.36.02.4.02.1.01,19.9-.02,19.9-.02v-4.36h-18.06v-8.64Z"/>
              <path d="M1240.97,40.28h-5.68s-.02,5.86,0,6.04v.28h.03c.28,2.36,1.72,4.2,3.5,4.45.04,0,21.48,0,21.48,0v-4.45h-19.33v-6.33Z"/>
              <polygon points="1234.78 34.34 1234.78 38.79 1245.93 38.79 1245.93 44.38 1251.61 44.38 1251.61 38.79 1260.89 38.79 1260.89 34.34 1234.78 34.34"/>
              <path d="M1235.29,27.84c.23,2.65,1.71,4.2,3.5,4.45.04,0,.07,0,.11,0,.07,0,21.44,0,21.44,0h0s0-11.77,0-11.77h-25.17l.09,7.31h.03ZM1240.94,24.98h13.73v2.85h-13.73v-2.85Z"/>
              <rect x="1225.53" y="20.47" width="5.68" height="18.16"/>
              <path d="M1196.75,34.22h-14.35v-2.92h11.49l.02-10.89h-17.18v4.45h11.5v1.98h-11.51s-.02,6.9,0,7.09v.28h.03c.28,2.36,1.71,4.2,3.5,4.45.04,0,.56,0,.59,0,.09.01,12.66,0,15.9,0v12.35h5.68v-30.82h-5.68v13.99Z"/>
              <path d="M1120.08,38.68c.1.01,19.22,0,19.22,0v-4.46h-17.19v-2.84h17.19v-4.45h-17.19v-2.11h17.19v-4.53h-22.87s-.02,13.46,0,13.65c.2,2.54,1.74,4.55,3.65,4.75Z"/>
              <path d="M1214.54,29.76c2.27,4.49,4.72,6.38,9.1,6.8v-4.49c-4.64-.91-6.69-6.74-6.69-11.6h-4.82c0,4.86-2.05,10.69-6.21,11.6v4.49c3.73-.36,6.43-2,8.62-6.8Z"/>
            </g>
            <g>
              <path class="cls-8" d="M1026.96,21.6h-2.3l-15.28,30.4h34.43l-16.85-30.4ZM1027.09,24.27l14.48,26.36h-27.36l12.88-26.36Z"/>
              <path class="cls-8" d="M1029.16,39.59c0,1.07-.86,1.93-1.93,1.93s-1.93-.86-1.93-1.93.86-1.93,1.93-1.93,1.93.86,1.93,1.93Z"/>
            </g>
          </g>
          <g>
            <path class="cls-9" d="M1330.2,36.91c-1.03-9.37,8.78-16.88,21.91-16.77,13.13.1,24.61,7.77,25.64,17.12,1.03,9.37-8.77,16.87-21.91,16.76-13.13-.09-24.61-7.77-25.64-17.11M1380.2,39.81c-1.19-11.61-14.4-21.12-29.51-21.24-15.12-.12-26.41,9.19-25.22,20.79,1.18,11.61,14.4,21.12,29.52,21.24,15.11.12,26.41-9.19,25.22-20.79"/>
            <path class="cls-11" d="M1357.38,60.83c-7.44,7.79-19.39,8.43-26.69,1.44-7.29-6.98-7.17-18.95.28-26.72,7.45-7.78,19.4-8.42,26.69-1.44,7.29,6.99,7.17,18.95-.28,26.72M1329.8,35.31c-8.66,9.04-8.8,22.95-.32,31.06,8.48,8.11,22.37,7.36,31.02-1.68,8.66-9.04,8.81-22.95.32-31.07-8.47-8.11-22.37-7.36-31.02,1.68"/>
            <path class="cls-15" d="M1330.59,6.19c15.49-5.8,30.8.07,34.2,13.11,3.41,13.05-6.39,28.33-21.87,34.12-15.49,5.81-30.8-.07-34.2-13.11-3.4-13.04,6.39-28.32,21.87-34.13M1316.21,11.18c-16.07,12.72-20.15,31.15-9.13,41.16,11.02,10.02,32.97,7.82,49.04-4.9,16.06-12.72,20.16-31.15,9.14-41.16-11.03-10.01-32.98-7.83-49.04,4.9"/>
            <g>
              <path class="cls-5" d="M1409.49,28.12h-18.43v-2.95h18.43v2.95ZM1400.28,41.07c-2.33,0-4.23-.59-5.69-1.76-1.46-1.18-2.19-2.59-2.19-4.23s.73-3.02,2.19-4.2c1.46-1.18,3.36-1.76,5.69-1.76s4.22.59,5.69,1.76c1.46,1.18,2.19,2.58,2.19,4.2s-.73,3.05-2.19,4.23c-1.46,1.18-3.36,1.76-5.69,1.76ZM1401.68,47.85h15.93v3.15h-16.92c-3.65,0-5.48-1.7-5.48-5.11v-3.29h4.11v2.81c0,1.62.79,2.43,2.37,2.43ZM1395.55,21.13h9.45v2.98h-9.45v-2.98ZM1400.28,38.19c1.07,0,1.99-.3,2.76-.89.76-.59,1.15-1.34,1.15-2.23s-.38-1.6-1.15-2.19c-.77-.59-1.68-.89-2.76-.89s-1.99.3-2.76.89c-.77.59-1.15,1.32-1.15,2.19s.38,1.63,1.15,2.23c.76.59,1.68.89,2.76.89ZM1417.48,29.18h4.25v3.22h-4.25v10.38h-4.08v-21.13h4.08v7.54Z"/>
              <path class="cls-5" d="M1432.41,40.9c-1.46-.25-2.71-.8-3.73-1.64-1.42-1.16-2.12-2.56-2.12-4.18s.73-3.02,2.19-4.2c1.46-1.18,3.36-1.76,5.69-1.76s4.22.59,5.69,1.76c1.46,1.18,2.19,2.58,2.19,4.2s-.71,3.01-2.12,4.18c-1,.82-2.23,1.37-3.67,1.64v3.12h4.56c4.11,0,6.17-1.59,6.17-4.76v-17.61h4.08v9.87h4.25v3.25h-4.25v16.31h-4.08v-5.52c-1.23,1.1-3.06,1.65-5.48,1.65h-17.26v-3.19h7.91v-3.12ZM1443.58,28.12h-18.43v-2.95h18.43v2.95ZM1429.7,21.13h9.45v2.98h-9.45v-2.98ZM1434.43,38.19c1.07,0,1.99-.3,2.76-.89.76-.59,1.15-1.34,1.15-2.23s-.38-1.6-1.15-2.19c-.77-.59-1.68-.89-2.76-.89s-1.99.3-2.76.89c-.77.59-1.15,1.32-1.15,2.19s.38,1.63,1.15,2.23c.76.59,1.68.89,2.76.89Z"/>
              <path class="cls-5" d="M1475.95,44.32h-11c-3.63,0-5.45-1.8-5.45-5.41v-16.78h4.04v7.13h8.39v-7.13h4.01v22.2ZM1471.94,41.14v-8.77h-8.39v6.3c0,1.65.74,2.47,2.23,2.47h6.17ZM1480.98,51.07v-29.43h4.11v29.43h-4.11Z"/>
              <path class="cls-5" d="M1499.96,33.36c-.55.98-1.22,1.85-2.02,2.6-2.19,2.08-4.73,3.35-7.6,3.8v-3.12c1.94-.43,3.64-1.54,5.1-3.32,1.51-1.85,2.33-4.54,2.47-8.08h-6.89v-3.12h17.88v3.12h-6.89c.14,3.54.96,6.23,2.47,8.08,1.46,1.78,3.16,2.89,5.1,3.32v3.12c-2.88-.46-5.41-1.72-7.6-3.8-.8-.75-1.47-1.62-2.02-2.6ZM1502.33,47.82h15.93v3.19h-16.92c-3.65,0-5.48-1.7-5.48-5.11v-4.56h4.11v4.04c0,1.62.79,2.43,2.36,2.43ZM1513.84,21.65h4.08v21.13h-4.08v-11.44h-6.68v-3.22h6.68v-6.47Z"/>
            </g>
          </g>
          <g class="cls-16">
            <g>
              <path class="cls-12" d="M1646.29,60.02c1.8,0,3.56-1.46,3.93-3.26l7.7-41.52c.37-1.8-.79-3.25-2.44-3.25h-84.61c-1.95,0-3.71,1.46-4.07,3.25l-8.47,41.52c-.36,1.8.8,3.26,2.59,3.26h85.38Z"/>
              <path class="cls-2" d="M1597.76,29.03l-3.3,16.07s-2.24,9.25,9.93,9.25c0,0,10.71.37,13.67-8.16l.97-4.75h-8.35l-.78,3.77s-.82,3.17-4.25,2.92c0,0-3.55.36-2.78-2.56l3.4-16.56s.09-2.74,3.93-3.04c0,0,3.48,0,3.11,2.68l-.85,4.14h8.35l.85-4.14s1.65-8.89-10.23-8.64c0,0-11.4.49-13.67,9.01Z"/>
              <path class="cls-2" d="M1623.18,29.03l-3.29,16.07s-2.25,9.25,9.93,9.25c0,0,10.71.37,13.67-8.16l.97-4.75h-8.34l-.78,3.77s-.82,3.17-4.25,2.92c0,0-3.55.36-2.78-2.56l3.4-16.56s.1-2.74,3.93-3.04c0,0,3.48,0,3.11,2.68l-.85,4.14h8.35l.85-4.14s1.65-8.89-10.23-8.64c0,0-11.41.49-13.68,9.01Z"/>
              <g>
                <polyline class="cls-2" points="1609.3 11.98 1599.63 11.98 1582.56 30.58 1585.28 18.46 1576.46 18.44 1568.91 53.5 1577.73 53.5 1579.77 43.72 1582.05 41.09 1585.08 53.51 1593.83 53.51 1588.75 34.42 1609.3 11.98"/>
                <polygon class="cls-14" points="1615.67 5.02 1605.98 5.02 1599.63 11.98 1609.29 11.97 1615.67 5.02"/>
              </g>
            </g>
          </g>
        </g>
      </g>
    </g>
  </g>
</svg>