<?xml version="1.0" encoding="UTF-8"?>
<svg id="_레이어_1" data-name="레이어_1" xmlns="http://www.w3.org/2000/svg" version="1.1" viewBox="0 0 112.42 14.25">
  <!-- Generator: Adobe Illustrator 30.3.0, SVG Export Plug-In . SVG Version: 2.1.3 Build 182)  -->
  <defs>
    <style>
      .st0 {
        fill: #00a040;
      }
    </style>
  </defs>
  <g id="aptn-logo-rgb-g-c">
    <g>
      <circle class="st0" cx="10.36" cy="8.98" r="1.24"/>
      <path class="st0" d="M10.36.75h0s-1.97,0-1.97,0L.94,13.65h16.87L10.36.75ZM10.36,2.28l6.12,10.61H4.24L10.36,2.28Z"/>
    </g>
    <g>
      <g>
        <path d="M102.53,5.85c-.59,0-1.03-.43-1.03-1.03V.83h9.17v5.02h-8.15ZM103.8,4.05h4.6v-1.45h-4.6v1.45Z"/>
        <path d="M102.49,13.39c-.65,0-1.11-.47-1.11-1.11v-2.53h2.48v1.68h6.95v1.96h-8.32Z"/>
        <polygon points="105.27 10.53 105.27 8.7 100.08 8.7 100.08 6.74 112.06 6.74 112.06 8.7 107.39 8.7 107.39 10.53 105.27 10.53"/>
      </g>
      <g>
        <path d="M86.83,6.25c2.72-.86,3.14-3.03,3.16-4.25V.75h2.38v1.24c-.01,1.42.5,3.28,3.01,4.05l-1.15,1.77c-1.38-.42-2.39-1.25-3.01-2.46l-.03-.07-.03.07c-.66,1.33-1.72,2.24-3.16,2.69l-1.16-1.8Z"/>
        <rect x="96.23" y=".75" width="2.29" height="8.78"/>
        <path d="M90.37,13.39c-.65,0-1.11-.47-1.11-1.11v-3.27h2.48v2.42h6.9v1.96h-8.27Z"/>
      </g>
      <path d="M83.38,13.65v-4.56h-7.84c-.54,0-.94-.39-.94-.94V3.99h4.44v-1.21h-4.48V.91h6.76v4.89h-4.33v1.32h6.39V.75h2.29v12.9h-2.29Z"/>
      <g>
        <path d="M69.65,10.06v-1.67h-9.38v-1.79h2.15v-2.3h2.12v2.3h1.37v-3.67c0-.07-.06-.13-.13-.13h-4.89V.95h6.05c.66,0,1.2.54,1.2,1.2v4.46h1.5V2.24c0-.82.67-1.48,1.48-1.48h2.08v1.97h-1.22c-.07,0-.13.06-.13.13v7.21h-2.22Z"/>
        <path d="M63.43,13.39c-.65,0-1.11-.47-1.11-1.11v-2.74h2.48v1.89h7.5v1.96h-8.86Z"/>
      </g>
      <g>
        <rect x="47.71" y="10.24" width="11.94" height="2.09"/>
        <path d="M50.07,8.39c-.65,0-1.11-.47-1.11-1.11V.83h9.42v1.86h-7.13v1.01h6.89v1.81h-6.89v1.08h7.23v1.81h-8.4Z"/>
      </g>
      <path d="M43.34,13.55v-4.56h-9.3v-1.86h1.29V2.84h-.9v-1.84h7.85v1.84h-.93v4.29h1.98V2.24c0-.86.62-1.48,1.48-1.48h2.32v1.92h-1.39c-.07,0-.13.06-.13.13v10.75h-2.29ZM37.56,7.13h1.57V2.84h-1.57v4.29Z"/>
      <g>
        <path d="M23.85.88c-2.34-.01-4.08,1.48-4.06,3.82-.02,2.37,1.71,3.85,4.06,3.85s4.04-1.48,4.04-3.85-1.71-3.83-4.04-3.82ZM23.85,6.91c-.96,0-1.59-.69-1.57-2.21-.02-1.5.61-2.21,1.57-2.2.98-.01,1.59.7,1.61,2.2-.02,1.52-.63,2.21-1.61,2.21Z"/>
        <path d="M29.06,13.55V2.24c0-.86.62-1.48,1.48-1.48h2.32v1.97h-1.39c-.07,0-.13.06-.13.13v10.7h-2.29Z"/>
      </g>
    </g>
  </g>
</svg>