<?xml version="1.0" encoding="UTF-8"?>
<svg id="_레이어_1" data-name="레이어_1" xmlns="http://www.w3.org/2000/svg" version="1.1" viewBox="0 0 260.82 44.3">
  <!-- Generator: Adobe Illustrator 30.3.0, SVG Export Plug-In . SVG Version: 2.1.3 Build 182)  -->
  <defs>
    <style>
      .st0 {
        fill: #008837;
      }

      .st1 {
        fill: #0f218b;
      }

      .st2 {
        fill: #ffb300;
      }
    </style>
  </defs>
  <g>
    <polygon class="st2" points="22.08 6.64 5.11 36.04 9.1 36.04 24.07 10.1 22.08 6.64"/>
    <polygon class="st0" points="9.1 36.04 26.07 6.64 43.03 36.04 9.1 36.04"/>
  </g>
  <g>
    <g>
      <path class="st1" d="M55.65,33.22v-4.52h-4.79s0,5.96,0,5.96c0,.72.54,1.31,1.21,1.31h22.01c.66,0,1.21-.58,1.21-1.3v-1.45s-19.64,0-19.64,0Z"/>
      <path class="st1" d="M65.17,24.6h5.15s0,5.71,0,5.71h4.79V11.88c0-.72-.54-1.3-1.2-1.3h-3.58s0,5.45,0,5.45h-4.98c-.62-.62-1.35-1.17-2.2-1.61h2.86c.67,0,1.21-.58,1.21-1.29v-1.47s-6.91,0-6.91,0v-.8c0-.72-.55-1.3-1.22-1.3h-3.57s0,2.1,0,2.1h-6.93s0,2.75,0,2.75h4.11c-2.44,1.27-4.04,3.4-4.04,5.81,0,3.89,4.14,7.04,9.26,7.05,2.94,0,5.56-1.04,7.26-2.67ZM66.98,18.79h3.34v3.06h-3.4c.16-.52.26-1.06.26-1.61,0-.5-.07-.98-.2-1.44ZM53.31,20.32c0-2.52,2.06-4.56,4.59-4.56s4.59,2.05,4.59,4.56-2.06,4.56-4.59,4.56c-2.53,0-4.59-2.04-4.59-4.56Z"/>
    </g>
    <g>
      <path class="st1" d="M79.35,32.07c0,.8.54,1.45,1.2,1.45h11c.67,0,1.21-.64,1.21-1.44v-1.3s-8.63,0-8.63,0V13.9s6.63,0,6.63,0c.67,0,1.2-.65,1.2-1.45v-1.34s-12.59,0-12.59,0v20.95Z"/>
      <path class="st1" d="M105.98,12.05c0-.8-.54-1.46-1.2-1.46h-3.57v8.27h-2.54s0-6.81,0-6.81c0-.8-.54-1.46-1.2-1.46h-3.57s0,25.37,0,25.37h4.77v-14.34s2.55,0,2.55,0v14.35s4.77,0,4.77,0V12.05Z"/>
    </g>
    <g>
      <path class="st1" d="M164.64,10.57h-3.58s0,25.39,0,25.39h4.78s0-24.09,0-24.09c0-.72-.54-1.3-1.21-1.3Z"/>
      <path class="st1" d="M159.61,31.79v-1.45s-14.12,0-14.12,0v-7.28h10.74v-10.57c0-.72-.55-1.3-1.21-1.3h-14.31s0,2.75,0,2.75h10.74s0,6.37,0,6.37h-10.74s0,11.47,0,11.47c0,.72.54,1.3,1.21,1.3h16.49c.67,0,1.21-.58,1.21-1.29Z"/>
    </g>
    <g>
      <path class="st1" d="M171.29,33.55h11.23V12.42c0-.72-.54-1.3-1.21-1.3h-3.58s0,7.87,0,7.87h-2.86v-6.58c0-.72-.54-1.3-1.21-1.3h-3.58s0,20.97,0,20.97c0,.8.54,1.45,1.2,1.45ZM174.87,21.76h2.86v9.05h-2.86v-9.05Z"/>
      <path class="st1" d="M189.4,35.99h-4.77v-14.34s-3.43,0-3.43,0v-2.76h3.43v-8.26s3.57,0,3.57,0c.67,0,1.21.66,1.21,1.46v23.91Z"/>
      <path class="st1" d="M191.96,35.99h4.76s0-23.9,0-23.9c0-.8-.54-1.46-1.21-1.46h-3.56s0,25.36,0,25.36Z"/>
    </g>
    <g>
      <path class="st1" d="M209.86,34.08c5.86,0,9.39-5.27,9.4-11.78,0-6.51-3.53-11.78-9.39-11.78-5.87,0-9.4,5.27-9.4,11.78,0,6.51,3.52,11.78,9.4,11.78ZM209.87,13.27c2.49,0,4.42,3.71,4.42,8.84,0,5.13-1.93,9.05-4.42,9.05-2.5,0-4.42-3.92-4.42-9.05s1.93-8.84,4.43-8.84Z"/>
      <path class="st1" d="M226,10.57h-3.58s0,25.41,0,25.41h4.79s0-24.11,0-24.11c0-.72-.54-1.3-1.21-1.3Z"/>
    </g>
    <g>
      <path class="st1" d="M256.6,35.99V11.89c0-.71-.54-1.3-1.21-1.3h-3.58s0,8.25,0,8.25h-3.15v2.75h3.15v14.39h4.79Z"/>
      <path class="st1" d="M231.45,32.02c0,.8.54,1.44,1.21,1.44h16.39c.66,0,1.2-.64,1.2-1.44v-1.3s-14.02,0-14.02,0v-9.12h9.67c.67,0,1.2-.67,1.2-1.42v-1.34h-10.87v-4.99h12.02c.66,0,1.2-.64,1.2-1.44v-1.34h-17.99v20.95Z"/>
    </g>
    <g>
      <path class="st1" d="M112.03,27.68h19.63s0,1.45,0,1.45h-19.64s0,5.56,0,5.56c0,.72.54,1.3,1.21,1.3h22.01c.67,0,1.21-.58,1.21-1.3v-1.45h-19.64v-1.38h19.64v-6.94h-24.43s0,2.75,0,2.75Z"/>
      <path class="st1" d="M136.45,12.03c0-.79-.54-1.45-1.2-1.45h-3.57s0,13.17,0,13.17h4.76v-11.72Z"/>
      <path class="st1" d="M124.36,17.99v5.75s4.77,0,4.77,0v-11.71c.01-.8-.53-1.46-1.19-1.46h-3.57s0,4.66,0,4.66h-2.47v2.76s2.47,0,2.47,0Z"/>
      <path class="st1" d="M116.01,10.48c-3.79,0-6.29,3.44-6.29,6.49,0,3.22,2.6,6.49,6.29,6.49s6.28-3.28,6.28-6.49-2.39-6.49-6.28-6.49ZM114.02,16.94c0-1.85.89-3.87,1.99-3.87s2,2.02,2,3.87c0,1.85-.89,3.86-2,3.86-1.1,0-1.99-2.01-1.99-3.86Z"/>
    </g>
  </g>
</svg>