<?xml version="1.0" encoding="UTF-8"?>
<svg id="_레이어_1" data-name="레이어_1" xmlns="http://www.w3.org/2000/svg" version="1.1" viewBox="0 0 125.63 28.76">
  <!-- Generator: Adobe Illustrator 30.3.0, SVG Export Plug-In . SVG Version: 2.1.3 Build 182)  -->
  <defs>
    <style>
      .st0 {
        fill: #45b035;
      }

      .st1 {
        fill: #3c3c3c;
      }
    </style>
  </defs>
  <g id="hci-logo-rgb-g-c">
    <path class="st1" d="M46.13,16.98h5.33v4.37h1.25v-4.37h5.4v-1.06h-11.97v1.06ZM65.15,14.84c.14-.12.28-.26.41-.4.13-.14.27-.26.41-.4-.41-.25-.8-.52-1.12-.82-.34-.3-.63-.62-.86-.97-.25-.33-.42-.69-.55-1.07-.14-.37-.19-.74-.19-1.13v-1.24h-1.18v1.24c0,.41-.07.81-.19,1.19-.14.41-.33.79-.56,1.15-.25.37-.53.71-.86,1.03-.36.33-.74.63-1.15.89.14.14.27.26.41.4.13.13.27.27.41.39.58-.34,1.08-.76,1.55-1.28.45-.49.78-1.03,1-1.59.24.52.58,1.01,1.02,1.45.42.46.92.84,1.46,1.15ZM49.72,12.35c-.38.27-.78.49-1.21.66-.44.18-.86.31-1.28.42.11.15.23.29.34.42.11.15.22.3.34.44.99-.24,1.83-.63,2.57-1.15.72-.49,1.26-1.07,1.62-1.73.17.33.38.63.66.92.27.3.59.56.96.81.36.24.75.46,1.19.66.42.2.87.37,1.37.49.11-.13.23-.29.36-.44.11-.13.22-.27.33-.42-.49-.12-.94-.29-1.38-.48-.44-.18-.84-.41-1.19-.69-.37-.26-.69-.57-.93-.93-.27-.36-.47-.77-.58-1.25h3.46v-1.07h-8.49v1.07h3.45c-.13.5-.36.93-.63,1.31-.29.38-.62.7-.97.96ZM107.94,12.23c-.08.71-.17,1.41-.3,2.1l1.15.11c.3-1.4.46-3.19.46-5.41h-8.15v1.07h6.95c0,.74-.04,1.45-.1,2.14ZM114.48,15.5c1.09-.33,2.01-.78,2.75-1.38.73-.58,1.26-1.27,1.6-2.08.32.82.85,1.52,1.59,2.1.73.59,1.64,1.04,2.75,1.37.12-.14.25-.29.38-.44.11-.14.23-.27.37-.42-.71-.21-1.36-.48-1.9-.83-.56-.33-1.03-.71-1.41-1.15-.38-.41-.67-.86-.86-1.36-.21-.47-.3-.96-.3-1.45v-.55h-1.24v.55c0,.49-.1.97-.29,1.44-.21.49-.49.94-.86,1.36-.38.44-.86.82-1.41,1.17-.56.36-1.2.63-1.92.83.12.15.25.29.39.42.11.15.24.3.37.44ZM90.14,16.69h-1.19v4.32h8.01v-1.07h-6.82v-3.25ZM95.62,16.83h1.2v-8.36h-1.2v1.59h-2.15v.99h2.15v1.78h-2.15v1h2.15v3ZM83.1,8.47h-1.21v7.51h1.21v-3.36h1.99v-1.07h-1.99v-3.08ZM91.38,14.92c.38-.14.71-.36,1-.64.27-.27.48-.6.64-1,.15-.38.23-.81.23-1.29s-.08-.9-.23-1.3c-.16-.38-.37-.71-.64-1-.29-.27-.62-.48-1-.64-.39-.15-.81-.23-1.25-.23-.46,0-.88.08-1.26.23-.38.16-.71.37-.99.64-.29.29-.51.62-.66,1-.17.4-.23.84-.23,1.3s.07.91.23,1.29c.15.4.37.73.66,1,.27.29.6.51.99.64.38.16.79.23,1.26.23.44,0,.86-.07,1.25-.23ZM88.73,13.51c-.36-.37-.54-.88-.54-1.52s.18-1.16.55-1.55c.36-.37.82-.56,1.4-.56s1.03.19,1.39.56c.35.38.53.9.53,1.55s-.18,1.14-.52,1.52c-.36.39-.82.58-1.4.58s-1.05-.19-1.41-.58ZM68.79,16.42c-.33-.25-.7-.44-1.11-.57-.44-.13-.89-.2-1.35-.2s-.93.07-1.35.19c-.43.13-.79.34-1.09.59-.33.26-.58.56-.75.92-.19.37-.28.78-.28,1.23s.08.85.28,1.2c.18.36.42.67.74.93.3.25.67.44,1.09.58.41.14.86.2,1.36.2s.93-.07,1.37-.2c.41-.14.78-.34,1.11-.59.3-.26.55-.58.74-.93.18-.36.28-.75.28-1.19s-.1-.85-.28-1.22c-.19-.36-.43-.67-.75-.93ZM68.43,19.34c-.13.23-.29.42-.49.59-.22.15-.46.28-.73.37-.29.08-.59.13-.89.13s-.59-.04-.86-.13c-.29-.09-.54-.22-.73-.37-.22-.16-.38-.35-.49-.59-.14-.22-.19-.48-.19-.77,0-.27.06-.53.18-.78.11-.22.27-.43.49-.59.19-.17.43-.29.72-.38.27-.08.56-.12.88-.12s.61.05.9.14c.27.09.51.22.73.38.19.16.35.37.48.59.11.23.18.49.18.77,0,.29-.07.55-.18.77ZM76.28,19.2h6.82v-2.71h-8.01v.93h6.81v.86h-6.81v2.86h8.22v-.93h-7.03v-1.01ZM99.15,16.78h5.33v4.57h1.25v-4.57h5.4v-1.06h-11.97v1.06ZM69.15,11.21h-1.45v-2.6h-1.12v6.16h1.12v-2.49h1.45v3.04h1.14v-6.85h-1.14v2.74ZM81.26,15.28l-.11-.99c-1.29.28-2.46.41-3.53.41v-.74c.3-.03.59-.11.86-.22.25-.11.48-.25.67-.43.19-.17.34-.36.45-.57.1-.22.15-.47.15-.74,0-.31-.08-.6-.22-.86-.15-.25-.35-.45-.59-.63-.18-.12-.39-.21-.61-.29h2.13v-.93h-2.82v-1.03h-1.2v1.03h-2.88v.93h2.1c-.21.08-.41.18-.57.29-.26.18-.46.38-.6.63-.15.25-.22.53-.22.86,0,.58.2,1.02.62,1.34.41.34.93.55,1.59.63v.73h-3.11v.98h3.29c1.75,0,3.29-.14,4.6-.41ZM76.42,12.94c-.19-.03-.36-.1-.49-.18-.14-.07-.25-.17-.33-.3-.08-.11-.12-.26-.12-.45,0-.36.15-.63.45-.82.3-.17.66-.26,1.08-.26s.81.09,1.11.26c.29.19.44.46.44.82s-.15.63-.45.77c-.3.15-.67.22-1.09.22-.22,0-.41-.01-.59-.05ZM119.44,18.61v-3.04h-1.21v3.04h-5.38v1.06h11.97v-1.06h-5.38Z"/>
    <g>
      <polygon class="st0" points="16.58 13.71 11.86 13.69 11.88 9.62 10.07 9.61 10.02 20 11.82 20 11.85 15.34 16.56 15.36 16.54 20.03 18.35 20.04 18.4 9.65 16.6 9.64 16.58 13.71"/>
      <path class="st0" d="M27.55,16.16c-.16.82-.48,1.46-.96,1.89-.47.43-1.04.64-1.76.64h0c-.98,0-1.69-.32-2.19-.96-.51-.65-.77-1.61-.76-2.87,0-1.18.29-2.12.85-2.81.55-.67,1.27-1,2.2-1,.71,0,1.29.17,1.73.5.44.33.71.78.82,1.39l.03.19h1.75s-.04-.25-.04-.25c-.15-1.07-.61-1.92-1.37-2.54-.76-.61-1.73-.93-2.93-.93-1.47,0-2.66.5-3.55,1.48-.88.98-1.34,2.32-1.34,3.97,0,1.65.42,2.98,1.25,3.97.85,1,2.01,1.51,3.44,1.51h.03c1.21,0,2.24-.37,3.04-1.09.81-.72,1.31-1.74,1.5-3.01l.04-.26h-1.75s-.04.18-.04.18Z"/>
      <rect class="st0" x="26.84" y="14.01" width="10.39" height="1.81" transform="translate(16.96 46.88) rotate(-89.71)"/>
      <path class="st0" d="M38.19,3.92v16.18c0,2.22-1.8,4.02-4.02,4.02H8.64c-2.22,0-4.02-1.8-4.02-4.02V3.92h-1.72v16.18c0,3.16,2.57,5.74,5.74,5.74h25.53c3.16,0,5.74-2.58,5.74-5.74V3.92h-1.72Z"/>
    </g>
  </g>
</svg>