<?xml version="1.0" encoding="UTF-8"?>
<svg id="_레이어_1" data-name="레이어_1" xmlns="http://www.w3.org/2000/svg" version="1.1" viewBox="0 0 600.25 338.87">
  <!-- Generator: Adobe Illustrator 30.3.0, SVG Export Plug-In . SVG Version: 2.1.3 Build 182)  -->
  <defs>
    <style>
      .st0 {
        fill: #fff;
      }

      .st1 {
        fill: #e60012;
      }

      .st2 {
        fill: #08287f;
      }
    </style>
  </defs>
  <path class="st2" d="M525.77,331.03c10.64,0,21.02-8.62,23.18-19.25l45.46-245.23c2.16-10.64-4.71-19.24-14.41-19.24H80.26c-11.51,0-21.88,8.6-24.04,19.24L6.23,311.78c-2.15,10.63,4.7,19.25,15.31,19.25h504.23Z"/>
  <path class="st0" d="M239.11,148.03l-19.45,94.94s-13.26,54.61,58.64,54.61c0,0,63.24,2.2,80.75-48.16l5.77-28.03h-49.32l-4.59,22.29s-4.83,18.69-25.08,17.26c0,0-21,2.15-16.43-15.12l20.05-97.79s.55-16.16,23.21-17.97c0,0,20.54,0,18.31,15.83l-5.01,24.44h49.32l5.02-24.44s9.72-52.5-60.43-51.04c0,0-67.33,2.87-80.75,53.18Z"/>
  <path class="st0" d="M389.29,148.03l-19.45,94.94s-13.27,54.61,58.65,54.61c0,0,63.22,2.2,80.76-48.16l5.74-28.03h-49.29l-4.6,22.29s-4.85,18.69-25.08,17.26c0,0-21.01,2.15-16.44-15.12l20.05-97.79s.56-16.16,23.18-17.97c0,0,20.56,0,18.35,15.83l-5.03,24.44h49.32l5.01-24.44s9.74-52.5-60.4-51.04c0,0-67.37,2.87-80.76,53.18Z"/>
  <g>
    <polyline class="st0" points="307.28 47.35 250.17 47.32 149.39 157.18 165.41 85.57 113.34 85.5 68.77 292.55 120.85 292.55 132.9 234.77 146.36 219.22 164.28 292.58 215.91 292.58 185.94 179.85 307.28 47.35"/>
    <polygon class="st1" points="344.94 6.24 287.7 6.22 250.17 47.32 307.2 47.27 344.94 6.24"/>
  </g>
</svg>