<?xml version="1.0" encoding="UTF-8"?>
<svg id="_레이어_1" xmlns="http://www.w3.org/2000/svg" width="210" height="163" version="1.1" viewBox="0 0 210 163">
  <!-- Generator: Adobe Illustrator 30.5.1, SVG Export Plug-In . SVG Version: 2.1.4 Build 3)  -->
  <path d="M185.384,139.5c3.794,0,7.495-3.078,8.265-6.875l16.209-87.579c.77-3.8-1.679-6.871-5.138-6.871H26.536c-4.104,0-7.801,3.071-8.572,6.871L.141,132.625c-.767,3.796,1.676,6.875,5.459,6.875h179.785,0Z" fill="#08287f"/>
  <path d="M83.175,74.145l-6.935,33.906s-4.728,19.503,20.908,19.503c0,0,22.548.786,28.792-17.2l2.057-10.01h-17.585l-1.637,7.96s-1.722,6.675-8.942,6.164c0,0-7.488.768-5.858-5.4l7.149-34.924s.196-5.771,8.276-6.418c0,0,7.324,0,6.528,5.654l-1.786,8.728h17.585l1.79-8.728s3.466-18.749-21.546-18.228c0,0-24.007,1.025-28.792,18.992h-.004Z" fill="#fff"/>
  <path d="M136.722,74.145l-6.935,33.906s-4.731,19.503,20.912,19.503c0,0,22.541.786,28.795-17.2l2.047-10.01h-17.574l-1.64,7.96s-1.729,6.675-8.942,6.164c0,0-7.491.768-5.862-5.4l7.149-34.924s.2-5.771,8.265-6.418c0,0,7.331,0,6.543,5.654l-1.793,8.728h17.585l1.786-8.728s3.473-18.749-21.536-18.228c0,0-24.021,1.025-28.795,18.992h-.004Z" fill="#fff"/>
  <g>
    <polyline points="107.481 38.189 87.118 38.178 51.185 77.413 56.897 51.838 38.331 51.813 22.44 125.758 41.009 125.758 45.305 105.122 50.104 99.569 56.494 125.768 74.903 125.768 64.217 85.509 107.481 38.189" fill="#fff"/>
    <polygon points="120.909 23.507 100.5 23.5 87.118 38.178 107.452 38.16 120.909 23.507" fill="#e60012"/>
  </g>
</svg>