<?xml version="1.0" encoding="UTF-8"?>
<svg id="_레이어_1" xmlns="http://www.w3.org/2000/svg" width="478" height="100" version="1.1" viewBox="0 0 478 100">
  <!-- Generator: Adobe Illustrator 30.5.1, SVG Export Plug-In . SVG Version: 2.1.4 Build 3)  -->
  <g id="woori-logo-rgb-g-c">
    <g id="_x3C_Group_x3E_">
      <path d="M157.825,34.322c2.093,0,3.696.709,4.814,2.119,1.116,1.413,1.675,3.32,1.675,5.72,0,4.38-.837,7.806-2.512,10.275-1.674,2.473-4.186,4.274-7.536,5.403-6.42,2.118-13.259,3.178-20.513,3.178-6.142,0-11.931-.847-17.373-2.542-4.049,6.641-8.513,13.49-13.396,20.551-5.583,8.051-10.361,13.559-14.338,16.525-3.977,2.966-8.477,4.449-13.501,4.449-5.583,0-9.805-2.188-12.664-6.568-2.862-4.376-4.641-11.58-5.338-21.61l-1.046-15.466c-4.327,11.864-8.199,20.905-11.617,27.118-3.421,6.217-6.839,10.524-10.256,12.924-3.421,2.403-7.431,3.602-12.036,3.602-5.724,0-10.224-2.258-13.501-6.78-3.28-4.519-5.337-11.652-6.175-21.398C.838,52.049,0,34.746,0,19.915v-7.415C.138,7.839,1.393,4.592,3.768,2.754,6.139.921,9.698,0,14.443,0,18.07,0,20.755.814,22.502,2.437c1.743,1.625,2.617,4.343,2.617,8.157,0,15.222.856,34.722,2.573,58.5.094,1.297,1.849,1.654,2.393.476,8.703-18.857,16.747-38.444,24.129-58.764,1.534-4.237,3.382-7.097,5.547-8.58C61.922.742,64.539,0,67.61,0,71.378,0,73.994.778,75.459,2.33c1.465,1.556,2.198,4.31,2.198,8.263,0,15.472.884,35.366,2.659,59.677.087,1.196,1.634,1.62,2.293.624,7.369-11.153,12.975-20.165,16.817-27.038-2.093-4.095-3.14-8.968-3.14-14.619,0-4.8,1.046-9.461,3.14-13.983,2.092-4.516,4.949-8.186,8.577-11.013,2.309-1.799,4.936-3.063,7.781-3.699,6.206-1.387,11.013-.115,14.412,3.8,2.512,2.897,3.768,7.097,3.768,12.606,0,6.356-1.675,13.632-5.024,21.822,5.302-.281,12.35-1.341,21.141-3.178l5.652-1.059c.419-.139,1.115-.212,2.093-.212Z" fill="#009b6b"/>
    </g>
    <g id="_x3C_Group_x3E_1" data-name="_x3C_Group_x3E_">
      <g id="_x3C_Group_x3E_2" data-name="_x3C_Group_x3E_">
        <path d="M204.024,32.025c0-10.712,9.129-18.304,20.543-18.304,11.331,0,20.46,7.592,20.46,18.304,0,10.796-9.13,18.386-20.46,18.386-11.413,0-20.543-7.59-20.543-18.386ZM212.073,32.034c0,6.6,5.496,10.783,12.485,10.783,6.923,0,12.419-4.183,12.419-10.783,0-6.536-5.497-10.719-12.419-10.719-6.989,0-12.485,4.183-12.485,10.719Z" fill="#3c3c3c"/>
        <polygon points="220.46 87.5 220.46 65.008 189.21 65.008 189.21 57.415 259.84 57.415 259.84 65.008 228.59 65.008 228.59 87.5 220.46 87.5" fill="#3c3c3c"/>
      </g>
      <g id="_x3C_Group_x3E_3" data-name="_x3C_Group_x3E_">
        <path d="M311.582,58.795s-29.218-.002-33.293,0v-14.247h27.271v-26.75h-35.32v7.512h27.271v11.807h-27.271v29.19h41.342v-7.512Z" fill="#3c3c3c"/>
        <rect x="318.943" y="12.5" width="8.13" height="75" fill="#3c3c3c"/>
      </g>
      <g id="_x3C_Group_x3E_4" data-name="_x3C_Group_x3E_">
        <path d="M462.508,58.795s-29.218-.002-33.293,0v-14.247h27.271v-26.75h-35.32v7.512h27.271v11.807h-27.271v29.19h41.342v-7.512Z" fill="#3c3c3c"/>
        <rect x="469.87" y="12.5" width="8.13" height="75" fill="#3c3c3c"/>
      </g>
      <g id="_x3C_Group_x3E_5" data-name="_x3C_Group_x3E_">
        <polygon points="352.553 86.278 352.553 62.637 360.683 62.637 360.683 78.684 403.22 78.684 403.22 86.278 352.553 86.278" fill="#3c3c3c"/>
        <polygon points="393.059 67.936 393.059 12.5 401.189 12.5 401.189 37.603 413.528 37.603 413.528 45.197 401.189 45.197 401.189 67.936 393.059 67.936" fill="#3c3c3c"/>
        <polygon points="373.862 43.559 381.993 43.559 381.993 15.842 344.675 15.842 344.675 23.352 373.862 23.352 373.862 43.559" fill="#3c3c3c"/>
        <polygon points="387.609 49.668 362.461 49.668 362.461 33.696 354.331 33.696 354.331 49.668 340.376 49.668 340.376 57.18 387.609 57.18 387.609 49.668" fill="#3c3c3c"/>
      </g>
    </g>
  </g>
</svg>