<?xml version="1.0" encoding="UTF-8"?>
<svg id="_레이어_1" xmlns="http://www.w3.org/2000/svg" width="662" height="119" version="1.1" viewBox="0 0 662 119">
  <!-- Generator: Adobe Illustrator 30.5.1, SVG Export Plug-In . SVG Version: 2.1.4 Build 3)  -->
  <g id="hci-logo-rgb-g-c">
    <path d="M234.733,70.912h28.938v23.722h6.767v-23.722h29.298v-5.728h-65.003v5.728ZM338.015,59.307c.743-.661,1.5-1.395,2.237-2.151.729-.749,1.471-1.415,2.238-2.153-2.238-1.341-4.326-2.832-6.105-4.476-1.849-1.626-3.413-3.34-4.686-5.271-1.335-1.791-2.292-3.725-2.972-5.798-.748-2.015-1.044-4.012-1.044-6.114v-6.755h-6.402v6.755c0,2.245-.365,4.401-1.039,6.487-.741,2.233-1.78,4.311-3.046,6.247-1.334,2.009-2.898,3.857-4.679,5.57-1.939,1.785-4.016,3.422-6.253,4.846.753.744,1.484,1.42,2.237,2.154.731.732,1.483,1.483,2.214,2.139,3.138-1.846,5.887-4.151,8.409-6.971,2.453-2.685,4.233-5.583,5.421-8.633,1.29,2.824,3.139,5.494,5.523,7.872,2.306,2.472,4.982,4.542,7.949,6.254ZM605.851,62.888c5.934-1.795,10.91-4.241,14.939-7.517,3.946-3.13,6.846-6.92,8.701-11.301,1.712,4.458,4.627,8.252,8.626,11.378,3.948,3.199,8.924,5.646,14.949,7.44.673-.759,1.347-1.561,2.077-2.388.604-.747,1.266-1.48,2.019-2.307-3.868-1.113-7.372-2.593-10.339-4.531-3.058-1.787-5.579-3.878-7.667-6.244-2.066-2.237-3.635-4.686-4.673-7.368-1.129-2.531-1.649-5.212-1.649-7.891v-2.964h-6.756v2.964c0,2.679-.518,5.283-1.57,7.81-1.124,2.679-2.669,5.129-4.688,7.366-2.089,2.39-4.68,4.464-7.657,6.326-3.06,1.938-6.54,3.418-10.429,4.531.673.827,1.357,1.56,2.099,2.307.605.828,1.278,1.63,2.019,2.388ZM357.735,67.854c-1.781-1.335-3.788-2.373-6.037-3.119-2.384-.726-4.816-1.103-7.348-1.103-2.626,0-5.062.377-7.304,1.041-2.318.728-4.313,1.846-5.94,3.181-1.792,1.421-3.127,3.058-4.085,5.001-1.04,1.999-1.496,4.23-1.496,6.68,0,2.464.457,4.604,1.496,6.54.958,1.946,2.293,3.648,4.017,5.066,1.642,1.342,3.635,2.379,5.938,3.133,2.237.736,4.69,1.107,7.374,1.107,2.59,0,5.054-.37,7.439-1.107,2.223-.754,4.223-1.866,6.013-3.207,1.655-1.412,2.979-3.132,4.016-5.059.97-1.947,1.494-4.098,1.494-6.474s-.525-4.616-1.494-6.615c-1.037-1.94-2.362-3.645-4.084-5.066ZM355.804,83.715c-.685,1.251-1.573,2.294-2.669,3.177-1.209.828-2.477,1.501-3.96,2.011-1.563.457-3.194.684-4.824.684-1.645,0-3.207-.227-4.692-.684-1.574-.51-2.909-1.183-3.947-2.011-1.176-.883-2.066-1.925-2.67-3.177-.736-1.201-1.044-2.607-1.044-4.179,0-1.481.308-2.893.975-4.234.582-1.183,1.483-2.31,2.683-3.195,1.038-.903,2.361-1.566,3.936-2.084,1.483-.448,3.047-.668,4.76-.668,1.699,0,3.331.296,4.904.742,1.485.511,2.751,1.196,3.938,2.085,1.039.887,1.927,2.011,2.612,3.195.582,1.266.96,2.679.96,4.159,0,1.572-.378,2.978-.96,4.179ZM503.425,70.096h6.541V24.72h-6.541v8.623h-11.673v5.361h11.673v9.68h-11.673v5.43h11.673v16.282ZM570.346,45.098c-.434,3.874-.948,7.659-1.62,11.394l6.218.587c1.656-7.582,2.476-17.314,2.476-29.386h-44.274v5.796h37.725c0,4.031-.217,7.896-.525,11.61ZM254.223,45.774c-2.089,1.478-4.246,2.677-6.55,3.575-2.374.965-4.69,1.709-6.928,2.298.605.821,1.267,1.568,1.872,2.298.594.827,1.188,1.655,1.86,2.385,5.353-1.327,9.962-3.42,13.967-6.233,3.892-2.679,6.859-5.799,8.787-9.374.901,1.777,2.089,3.418,3.583,4.978,1.484,1.634,3.184,3.055,5.192,4.395,1.94,1.329,4.097,2.514,6.482,3.565,2.288,1.11,4.74,2.009,7.435,2.668.604-.73,1.26-1.558,1.94-2.385.571-.73,1.175-1.477,1.768-2.298-2.659-.668-5.13-1.55-7.509-2.597-2.373-.964-4.536-2.236-6.464-3.723-2.02-1.41-3.732-3.113-5.054-5.048-1.484-1.94-2.535-4.165-3.127-6.79h18.811v-5.796h-46.118v5.796h18.748c-.73,2.69-1.928,5.069-3.412,7.095-1.575,2.065-3.355,3.78-5.282,5.191ZM522.607,69.802h28.922v24.832h6.767v-24.832h29.319v-5.746h-65.009v5.746ZM359.73,39.601h-7.872v-14.117h-6.105v33.455h6.105v-13.541h7.872v16.516h6.186V24.72h-6.186v14.881ZM473.672,69.354h-6.471v23.431h43.505v-5.809h-37.034v-17.622ZM632.764,79.752v-16.496h-6.555v16.496h-29.212v5.731h65.003v-5.731h-29.236ZM480.393,59.752c2.048-.733,3.85-1.928,5.407-3.494,1.485-1.487,2.614-3.277,3.498-5.428.824-2.075,1.256-4.388,1.256-6.992,0-2.525-.433-4.904-1.256-7.069-.883-2.074-2.013-3.87-3.498-5.42-1.557-1.492-3.359-2.604-5.407-3.495-2.112-.827-4.406-1.267-6.791-1.267-2.521,0-4.758.44-6.835,1.267-2.087.891-3.878,2.003-5.363,3.495-1.553,1.551-2.761,3.346-3.56,5.42-.9,2.164-1.267,4.544-1.267,7.069,0,2.604.367,4.917,1.267,6.992.799,2.15,2.007,3.941,3.56,5.428,1.485,1.566,3.276,2.761,5.363,3.494,2.077.885,4.314,1.263,6.835,1.263,2.385,0,4.679-.379,6.791-1.263ZM466.026,52.088c-1.941-1.991-2.911-4.752-2.911-8.249s.97-6.32,2.979-8.393c1.941-2.014,4.461-3.057,7.578-3.057,3.058,0,5.59,1.044,7.531,3.057,1.922,2.074,2.892,4.904,2.892,8.393,0,3.414-.971,6.176-2.83,8.249-1.935,2.09-4.468,3.137-7.594,3.137-3.184,0-5.718-1.047-7.646-3.137ZM425.493,61.681l-.594-5.352c-6.978,1.495-13.379,2.245-19.176,2.245v-4.037c1.643-.145,3.195-.593,4.69-1.172,1.335-.608,2.592-1.345,3.651-2.308,1.029-.907,1.85-1.943,2.442-3.118.524-1.201.822-2.542.822-4.025,0-1.703-.445-3.261-1.176-4.679-.833-1.343-1.883-2.467-3.228-3.42-1.003-.635-2.111-1.126-3.298-1.569h11.57v-5.051h-15.325v-5.577h-6.539v5.577h-15.627v5.051h11.429c-1.131.449-2.202.956-3.115,1.569-1.394.954-2.492,2.077-3.247,3.42-.822,1.347-1.198,2.89-1.198,4.679,0,3.131,1.107,5.513,3.348,7.279,2.226,1.858,5.032,2.983,8.639,3.432v3.947h-16.913v5.342h17.86c9.528,0,17.869-.736,24.984-2.235ZM399.174,48.972c-1.038-.144-1.933-.521-2.669-.966-.742-.376-1.357-.899-1.792-1.634-.456-.598-.673-1.421-.673-2.456,0-1.944.82-3.424,2.465-4.458,1.631-.899,3.572-1.412,5.864-1.412,2.385,0,4.394.513,6.026,1.412,1.563,1.034,2.374,2.515,2.374,4.458,0,2.007-.811,3.42-2.455,4.169-1.62.816-3.64,1.182-5.945,1.182-1.187,0-2.237-.081-3.195-.296ZM398.443,82.955h37.022v-14.727h-43.515v5.058h36.954v4.692h-36.954v15.544h44.639v-5.062h-38.146v-5.504ZM435.466,24.72h-6.561v40.76h6.561v-18.228h10.783v-5.784h-10.783v-16.747Z" fill="#3c3c3c"/>
    <g id="_x3C_Group_x3E_">
      <polygon points="74.257 53.179 48.617 53.046 48.731 30.933 38.93 30.882 38.644 87.289 48.446 87.333 48.571 62.009 74.189 62.128 74.074 87.471 83.878 87.528 84.164 31.119 74.361 31.082 74.257 53.179" fill="#45b035"/>
      <path d="M133.852,66.456c-.879,4.453-2.624,7.911-5.186,10.277-2.528,2.333-5.632,3.475-9.58,3.475h0c-5.295-.022-9.187-1.711-11.914-5.191-2.773-3.524-4.154-8.754-4.108-15.561.034-6.399,1.586-11.524,4.599-15.234,2.967-3.652,6.869-5.44,11.97-5.44,3.835.025,6.995.936,9.38,2.711,2.384,1.788,3.828,4.249,4.451,7.533l.182,1.018,9.511.043-.194-1.421c-.787-5.808-3.297-10.441-7.429-13.791-4.108-3.322-9.397-5.022-15.936-5.039-7.976,0-14.447,2.707-19.262,8.035-4.804,5.334-7.252,12.574-7.297,21.535-.04,8.942,2.254,16.204,6.807,21.544,4.61,5.409,10.909,8.182,18.68,8.216h.183c6.584,0,12.152-1.99,16.517-5.91,4.381-3.925,7.121-9.437,8.124-16.351l.205-1.415-9.51-.046-.195,1.013Z" fill="#45b035"/>
      <polygon points="153.439 31.472 153.154 87.876 162.968 87.922 163.254 31.529 153.439 31.472" fill="#45b035"/>
      <path d="M191.621,0v87.834c0,12.032-9.79,21.822-21.818,21.822H31.169c-12.032,0-21.824-9.789-21.824-21.822V0H0v87.834c0,17.183,13.979,31.166,31.169,31.166h138.634c17.185,0,31.163-13.984,31.163-31.166V0h-9.345Z" fill="#45b035"/>
    </g>
  </g>
</svg>