<?xml version="1.0" encoding="UTF-8"?>
<svg id="_레이어_1" xmlns="http://www.w3.org/2000/svg" width="603" height="70" version="1.1" viewBox="0 0 603 70">
  <!-- Generator: Adobe Illustrator 30.5.1, SVG Export Plug-In . SVG Version: 2.1.4 Build 3)  -->
  <g id="aptn-logo-rgb-g-c">
    <g>
      <circle cx="51.117" cy="44.667" r="6.739" fill="#00a040"/>
      <path d="M51.117,0h0s-10.708,0-10.708,0L0,70h91.527L51.117,0ZM51.117,8.295l33.227,57.557H17.891L51.117,8.295Z" fill="#00a040"/>
    </g>
    <g>
      <g>
        <path d="M551.289,27.677c-3.226,0-5.568-2.342-5.568-5.569V.414h49.782v27.263h-44.214ZM558.166,17.885h24.99v-7.856h-24.99v7.856Z"/>
        <path d="M551.069,68.594c-3.505,0-6.049-2.544-6.049-6.049v-13.718h13.444v9.11h37.74v10.656h-45.135Z"/>
        <polygon points="566.159 53.058 566.159 43.165 538.024 43.165 538.024 32.508 603 32.508 603 43.165 577.68 43.165 577.68 53.058 566.159 53.058"/>
      </g>
      <g>
        <path d="M466.104,29.834c14.758-4.66,17.063-16.46,17.122-23.091V0h12.923v6.741c-.071,7.73,2.707,17.804,16.32,21.978l-6.235,9.623c-7.471-2.292-12.965-6.78-16.329-13.341l-.183-.356-.177.359c-3.565,7.216-9.325,12.132-17.124,14.611l-6.317-9.782Z"/>
        <rect x="517.11" width="12.444" height="47.675"/>
        <path d="M485.321,68.594c-3.505,0-6.048-2.544-6.048-6.049v-17.756h13.483v13.149h37.434v10.656h-44.869Z"/>
      </g>
      <path d="M447.4,70v-24.734h-42.563c-2.948,0-5.088-2.14-5.088-5.089v-22.601h24.08v-6.561h-24.287V.88h36.684v26.559h-23.511v7.17h34.684V0h12.444v70h-12.444Z"/>
      <g>
        <path d="M372.878,50.542v-9.039h-50.876v-9.705h11.677v-12.494h11.521v12.494h7.437V11.864c0-.388-.315-.703-.703-.703h-26.542V1.072h32.814c3.6,0,6.53,2.93,6.53,6.53v24.196h8.142V8.059c0-4.443,3.615-8.059,8.058-8.059h11.307v10.692h-6.609c-.388,0-.703.315-.703.703v39.147h-12.052Z"/>
        <path d="M339.144,68.594c-3.505,0-6.049-2.544-6.049-6.049v-14.872h13.444v10.264h40.685v10.656h-48.08Z"/>
      </g>
      <g>
        <rect x="253.814" y="51.475" width="64.783" height="11.33"/>
        <path d="M266.601,41.484c-3.505,0-6.048-2.545-6.048-6.05V.414h51.113v10.09h-38.714v5.505h37.383v9.807h-37.383v5.866h39.254v9.802h-45.603Z"/>
      </g>
      <path d="M230.122,69.455v-24.768h-50.485v-10.08h7.005V11.345h-4.868V1.36h42.61v9.985h-5.024v23.262h10.762V8.059c0-4.669,3.388-8.059,8.057-8.059h12.615v10.403h-7.532c-.388,0-.704.315-.704.703v58.349h-12.435ZM198.738,34.607h8.526V11.345h-8.526v23.262Z"/>
      <g>
        <path d="M124.324.716c-12.725-.063-22.117,8.027-22.029,20.72-.088,12.88,9.304,20.907,22.029,20.907,12.638,0,21.942-8.027,21.942-20.907,0-12.693-9.303-20.783-21.942-20.72ZM124.322,33.432c-5.217,0-8.634-3.745-8.544-11.996-.09-8.124,3.327-11.996,8.544-11.932,5.307-.064,8.634,3.808,8.725,11.932-.09,8.251-3.418,11.996-8.725,11.996Z"/>
        <path d="M152.628,69.455V8.059c0-4.669,3.388-8.059,8.057-8.059h12.615v10.692h-7.532c-.388,0-.704.315-.704.703v58.06h-12.435Z"/>
      </g>
    </g>
  </g>
</svg>