<?xml version="1.0" encoding="UTF-8"?>
<svg id="_레이어_1" data-name="레이어_1" xmlns="http://www.w3.org/2000/svg" version="1.1" viewBox="0 0 89.11 19.63">
  <!-- Generator: Adobe Illustrator 30.3.0, SVG Export Plug-In . SVG Version: 2.1.3 Build 182)  -->
  <defs>
    <style>
      .st0 {
        fill: #009b6b;
      }

      .st1 {
        fill: #3c3c3c;
      }
    </style>
  </defs>
  <g id="woori-logo-rgb-g-c">
    <path class="st0" d="M29.72,7.06c.39,0,.68.13.89.39.21.26.31.61.31,1.05,0,.81-.15,1.44-.46,1.89-.31.46-.77.79-1.39.99-1.19.39-2.45.58-3.79.58-1.14,0-2.21-.16-3.21-.47-.75,1.22-1.57,2.48-2.48,3.78-1.03,1.48-1.91,2.5-2.65,3.04-.74.55-1.57.82-2.5.82-1.03,0-1.81-.4-2.34-1.21-.53-.81-.86-2.13-.99-3.98l-.19-2.85c-.8,2.18-1.52,3.85-2.15,4.99-.63,1.14-1.26,1.94-1.9,2.38-.63.44-1.37.66-2.22.66-1.06,0-1.89-.42-2.5-1.25-.61-.83-.99-2.14-1.14-3.94-.31-3.64-.46-6.82-.46-9.55v-1.36c.03-.86.26-1.46.7-1.79.44-.34,1.1-.51,1.97-.51.67,0,1.17.15,1.49.45.32.3.48.8.48,1.5,0,2.8.16,6.39.48,10.77.02.24.34.3.44.09,1.61-3.47,3.1-7.08,4.46-10.82.28-.78.63-1.31,1.03-1.58.4-.27.88-.41,1.45-.41.7,0,1.18.14,1.45.43.27.29.41.79.41,1.52,0,2.85.16,6.51.49,10.98.02.22.3.3.42.11,1.36-2.05,2.4-3.71,3.11-4.98-.39-.75-.58-1.65-.58-2.69,0-.88.19-1.74.58-2.57.39-.83.91-1.51,1.59-2.03.43-.33.91-.56,1.44-.68,1.15-.26,2.04-.02,2.66.7.46.53.7,1.31.7,2.32,0,1.17-.31,2.51-.93,4.02.98-.05,2.28-.25,3.91-.58l1.04-.19c.08-.03.21-.04.39-.04Z"/>
    <g>
      <g>
        <path class="st1" d="M38.26,6.64c0-1.97,1.69-3.37,3.8-3.37s3.78,1.4,3.78,3.37-1.69,3.38-3.78,3.38-3.8-1.4-3.8-3.38ZM39.75,6.64c0,1.21,1.02,1.98,2.31,1.98s2.3-.77,2.3-1.98-1.02-1.97-2.3-1.97-2.31.77-2.31,1.97Z"/>
        <polygon class="st1" points="41.3 16.85 41.3 12.71 35.52 12.71 35.52 11.31 48.57 11.31 48.57 12.71 42.8 12.71 42.8 16.85 41.3 16.85"/>
      </g>
      <g>
        <path class="st1" d="M58.14,11.57s-5.4,0-6.15,0v-2.62h5.04v-4.92h-6.53v1.38h5.04v2.17h-5.04v5.37h7.64v-1.38Z"/>
        <rect class="st1" x="59.5" y="3.05" width="1.5" height="13.8"/>
      </g>
      <g>
        <path class="st1" d="M86.03,11.57s-5.4,0-6.15,0v-2.62h5.04v-4.92h-6.53v1.38h5.04v2.17h-5.04v5.37h7.64v-1.38Z"/>
        <rect class="st1" x="87.39" y="3.05" width="1.5" height="13.8"/>
      </g>
      <g>
        <polygon class="st1" points="65.71 16.63 65.71 12.27 67.21 12.27 67.21 15.23 75.07 15.23 75.07 16.63 65.71 16.63"/>
        <polygon class="st1" points="73.2 13.25 73.2 3.05 74.7 3.05 74.7 7.67 76.98 7.67 76.98 9.06 74.7 9.06 74.7 13.25 73.2 13.25"/>
        <polygon class="st1" points="69.65 8.76 71.15 8.76 71.15 3.66 64.25 3.66 64.25 5.04 69.65 5.04 69.65 8.76"/>
        <polygon class="st1" points="72.19 9.89 67.54 9.89 67.54 6.95 66.04 6.95 66.04 9.89 63.46 9.89 63.46 11.27 72.19 11.27 72.19 9.89"/>
      </g>
    </g>
  </g>
</svg>